<?xml version="1.0" encoding="utf-8"?>
<!-- Generator: Adobe Illustrator 23.0.3, SVG Export Plug-In . SVG Version: 6.00 Build 0)  -->
<svg version="1.1" id="Layer_1" xmlns="http://www.w3.org/2000/svg" xmlns:xlink="http://www.w3.org/1999/xlink" x="0px" y="0px"
	 viewBox="0 0 640 640" style="enable-background:new 0 0 640 640;" xml:space="preserve">
<style type="text/css">
	.st0{fill:#F50057;}
	.st1{clip-path:url(#SVGID_2_);}
	.st2{fill:#FFFFFF;}
	.st3{fill:#D7CCC8;}
	.st4{fill:#BCAAA4;}
	.st5{fill:#616161;}
	.st6{fill:#EEEEEE;}
	.st7{fill:#FAFAFA;}
	.st8{fill:#212121;}
	.st9{fill:none;stroke:#212121;stroke-width:3;stroke-linecap:round;stroke-linejoin:round;}
	.st10{fill:#304FFE;}
</style>
<title>cd-rgbInvert</title>
<g>
	<g id="Layer_1-2">
		<g>
			<path class="st0" d="M70.2,478.1v93.4H58.6v-10.5c-2.6,3.6-6.2,6.5-10.2,8.5c-4.3,2-8.9,2.9-13.5,2.9c-6.1,0.1-12-1.4-17.3-4.3
				c-5-2.7-9.2-6.9-12-12c-5.8-11.1-5.8-24.3,0-35.6c2.9-5,6.9-9.2,12-12c5.3-2.9,11.2-4.5,17.3-4.3c4.6,0,9.1,0.9,13.3,2.7
				c4,1.7,7.5,4.5,10.1,7.9v-36.7H70.2z M47.4,558.8c3.5-2,6.2-4.8,8.1-8.4c3.9-7.8,3.9-16.7,0-24.5c-1.9-3.5-4.6-6.3-8.1-8.2
				c-7.2-3.9-15.8-3.9-22.9,0c-3.5,1.9-6.2,4.8-8.1,8.2c-3.9,7.6-3.9,16.9,0,24.5c1.9,3.5,4.6,6.3,8.1,8.4
				C31.6,562.7,40.2,562.7,47.4,558.8z"/>
			<path class="st0" d="M178.2,542.2H124c0.6,5.6,3.3,10.7,7.8,14.1c4.6,3.6,10.5,5.6,16.4,5.3c7.9,0,14.4-2.7,19.3-8.1l6.6,7.8
				c-3,3.6-6.9,6.3-11.2,8.1c-10.9,4.2-23.2,3.6-33.7-1.6c-5.3-2.7-9.7-6.9-12.7-12.1c-3-5.3-4.6-11.5-4.5-17.6
				c-0.1-6.1,1.4-12.1,4.3-17.4c2.7-5,6.9-9.2,12-12.1c5.2-2.9,11.2-4.5,17.1-4.3c5.9-0.1,11.8,1.4,17,4.3
				c4.9,2.9,9.1,7.1,11.7,12.1c2.9,5.5,4.3,11.7,4.2,17.9C178.4,539.8,178.4,541,178.2,542.2z M131,519.7c-3.9,3.6-6.3,8.5-6.9,13.8
				h42.8c-0.4-5.3-2.9-10.2-6.9-13.8C151.6,512.7,139.3,512.7,131,519.7L131,519.7z"/>
			<path class="st0" d="M223.7,570c-4.3-1.2-8.2-3-11.8-5.6l5-9.5c3.3,2.3,6.9,3.9,10.7,5c4.2,1.3,8.4,1.9,12.7,1.9
				c10.5,0,15.8-3,15.8-9.1c0.1-1.9-0.7-3.6-2.2-4.8c-1.6-1.3-3.5-2.2-5.3-2.6c-2.2-0.6-5.2-1.2-9.1-1.9c-4.5-0.6-8.8-1.6-13.1-2.9
				c-3.3-1-6.3-3-8.6-5.5c-2.4-2.6-3.6-6.2-3.6-10.9c-0.1-5.8,2.7-11.2,7.5-14.6c5-3.6,11.8-5.5,20.3-5.5c4.5,0,8.9,0.6,13.3,1.7
				c3.9,0.9,7.6,2.3,10.9,4.5l-5.2,9.5c-5.8-3.6-12.4-5.5-19.2-5.2c-5,0-9.1,0.9-11.7,2.4c-2.4,1.3-4,3.9-4,6.6
				c-0.1,2,0.7,3.9,2.3,5.2c1.6,1.3,3.6,2.3,5.6,2.7c2.2,0.6,5.3,1.3,9.4,2c4.3,0.7,8.6,1.7,13,2.9c3.3,1,6.2,2.9,8.5,5.3
				c2.3,2.6,3.5,6.1,3.6,10.5c0.1,5.8-2.9,11.2-7.8,14.4c-5.2,3.6-12.2,5.3-21,5.3C234.1,572.3,228.8,571.6,223.7,570z"/>
			<path class="st0" d="M308.7,489.8c-1.6-1.4-2.3-3.5-2.3-5.5c0-2.2,0.9-4.2,2.3-5.6c1.6-1.6,3.6-2.4,5.9-2.3
				c2.2,0,4.3,0.7,5.9,2.2c1.6,1.4,2.4,3.5,2.3,5.5c0,2.2-0.7,4.3-2.3,5.8c-1.6,1.6-3.6,2.4-5.9,2.3
				C312.3,492.1,310.2,491.2,308.7,489.8z M308.5,504.9h12.1v66.7h-12.1V504.9z"/>
			<path class="st0" d="M432.5,504.9v57.6c0,11.7-2.9,20.3-8.6,25.8c-5.8,5.6-14.4,8.4-25.9,8.4c-6.1,0-12.1-0.9-18-2.6
				c-5.2-1.4-9.9-3.9-13.8-7.3l5.8-9.4c3.5,2.9,7.3,5,11.5,6.3c4.6,1.6,9.4,2.3,14.1,2.3c7.8,0,13.5-1.9,17.3-5.5
				c3.7-3.7,5.6-9.4,5.6-16.9v-5.3c-2.7,3.5-6.3,6.1-10.5,7.8c-4.3,1.7-8.9,2.6-13.5,2.6c-6.1,0.1-12-1.3-17.3-4
				c-5-2.6-9.2-6.6-12.1-11.5c-5.9-10.4-5.9-23.2,0-33.6c2.9-4.9,7.1-8.8,12.1-11.4c5.3-2.7,11.2-4,17.3-4c4.8,0,9.7,0.9,14,2.7
				c4.2,1.7,7.9,4.6,10.7,8.2v-10.4h11.5V504.9z M409.6,555.5c3.5-1.7,6.2-4.5,8.2-7.8c2-3.5,3-7.3,2.9-11.2
				c0.3-5.9-2.2-11.7-6.5-15.7c-9.7-7.9-23.5-7.9-33.1,0c-4.3,4-6.6,9.8-6.5,15.7c0,4,1,7.9,3,11.2c2,3.3,4.8,5.9,8.2,7.8
				c3.7,1.9,7.8,2.9,12,2.7C402,558.2,406,557.3,409.6,555.5z"/>
			<path class="st0" d="M536.5,511.5c5,4.9,7.5,12.1,7.5,21.6v38.3h-12.1v-37c0-6.5-1.6-11.4-4.6-14.6c-3.2-3.3-7.5-4.9-13.4-4.9
				c-6.5,0-11.7,1.9-15.4,5.8c-3.7,3.9-5.6,9.2-5.6,16.4v34.3h-12.1v-66.7h11.5v10.1c2.4-3.5,5.9-6.2,9.9-7.9
				c4.5-1.9,9.2-2.9,14.1-2.7C524.8,504.2,531.5,506.6,536.5,511.5z"/>
			<path class="st0" d="M595,570c-4.3-1.2-8.2-3-11.8-5.6l5-9.5c3.3,2.3,6.9,3.9,10.7,5c4.2,1.3,8.4,1.9,12.7,1.9
				c10.5,0,15.8-3,15.8-9.1c0.1-1.9-0.7-3.6-2.2-4.8c-1.6-1.3-3.5-2.2-5.3-2.6c-2.2-0.6-5.2-1.2-9.1-1.9c-4.5-0.6-8.8-1.6-13.1-2.9
				c-3.3-1-6.3-3-8.8-5.5c-2.4-2.6-3.6-6.2-3.6-10.9c-0.1-5.8,2.7-11.2,7.5-14.6c5-3.6,11.8-5.5,20.3-5.5c4.5,0,8.9,0.6,13.4,1.6
				c3.9,0.9,7.6,2.3,10.9,4.5l-5.2,9.5c-5.8-3.6-12.4-5.5-19.3-5.3c-5.2,0-9.1,0.9-11.7,2.4c-2.4,1.3-4,3.9-4,6.6
				c-0.1,2,0.7,3.9,2.3,5.2c1.6,1.3,3.6,2.3,5.6,2.7c2.2,0.6,5.3,1.3,9.4,2c4.3,0.7,8.6,1.7,13,2.9c3.3,1,6.2,2.9,8.5,5.3
				c2.3,2.6,3.6,6.1,3.6,10.5c0.1,5.8-2.9,11.2-7.8,14.4c-5.2,3.6-12.2,5.3-21,5.3C605.4,572.3,600,571.6,595,570z"/>
		</g>
		<g>
			<g>
				<g>
					<defs>
						<path id="SVGID_1_" d="M511.9,137.1h-38.5l44.5-38.2h45.5l44.5,38.2h-38.5l-28.8-19L511.9,137.1z M508.9,73.8
							c2.7-2.7,6.5-4.3,10.4-4c2.4,0.1,4.8,0.9,6.9,2c2.6,1.3,5.2,2.7,7.9,4.3c4.9,3.2,10.1,5.9,15.4,8.2c5.2,2,10.5,3,16,2.9
							c11.8,0,21-3.7,27.8-11.1c6.6-7.3,10.1-17.4,10.4-30.4h-26.1c-0.3,4-1.7,7.8-4.3,10.8c-2.6,2.9-6.5,4.5-10.4,4.2
							c-2.4,0-4.8-0.6-6.9-1.7c-3-1.4-6.1-3.2-8.9-5c-5-2.9-10.2-5.6-15.6-8.1c-4.8-1.9-9.8-2.9-14.8-2.7
							c-12.1,0-21.5,3.6-28.2,10.8c-6.8,7.2-10.4,17.6-10.5,31h26.8C505,80.3,506.4,76.6,508.9,73.8z M640.1,250.2
							c0,17.9-4.2,33.9-12.7,47.8c-8.4,14-20.6,25.4-35,33c-15,7.9-31.8,11.8-50.9,11.8c-19,0-35.9-3.9-51-11.8
							c-1.4-0.7-2.9-1.6-4.3-2.4c-4.9,16.4-11.8,32-20.7,46.7c-20.2,32.7-48.3,58.1-84.6,76.1s-77.9,27.1-125.2,27.1H58.2V290.7H0
							v-67.9h59.8L58.2,43.4h197.5c47.3,0,88.9,9.1,125.2,27.1c36.2,18,64.4,43.4,84.4,76.1c5.6,9.4,10.5,19,14.7,29.2
							c3.3-2.3,6.8-4.5,10.4-6.3c15-7.9,32.1-11.8,51-11.8c19,0,35.9,3.9,51,11.8c14.6,7.5,26.7,18.9,35.2,33
							C635.8,216.3,640.1,232.3,640.1,250.2L640.1,250.2z M393.5,260.8c0-41.3-13-74.2-38.8-98.4c-25.9-24.2-60.5-36.3-104-36.3
							h-91.9v96.7h108.9v67.9H158.8v105h91.9c43.5,0,78.1-12.1,104-36.3C380.6,335,393.5,302.2,393.5,260.8z M587.1,250.2
							c0-15.1-4.3-27.2-12.8-36.3c-8.6-9.1-19.6-13.5-33-13.5s-24.5,4.5-33.1,13.5c-8.6,9.1-13.1,21.2-13.1,36.3s4.3,27.2,13.1,36.3
							c8.8,9.1,19.7,13.5,33.1,13.5s24.3-4.5,33-13.5S587.1,265.3,587.1,250.2L587.1,250.2z"/>
					</defs>
					<clipPath id="SVGID_2_">
						<use xlink:href="#SVGID_1_"  style="overflow:visible;"/>
					</clipPath>
					<g class="st1">
						<path class="st2" d="M640.1,441.2V-87.5H-0.1v373.4c44.9-6.8,90.3-10.2,135.9-10.2C332.7,275.7,510.9,338.9,640.1,441.2z"/>
						<path class="st0" d="M640.1,564.2v-123C511,338.9,332.7,275.7,135.9,275.7c-45.5,0-90.9,3.5-135.9,10.2v278.3H640.1z"/>
						<path class="st3" d="M125.3,730.4h433.1c1.4-14.7,0.7-29.5-2-44.1l0,0c-7.3-38.6-30.1-72.5-63-93.9H136.1
							C119,652.6,106.9,680.9,125.3,730.4z"/>
						<path class="st4" d="M136.1,592.3H96.2c-32.8,21.5-55.6,55.3-63,93.9l0,0c-2.7,14.6-3.3,29.4-2,44.1h93.8
							C106.9,680.9,119,652.6,136.1,592.3z"/>
						<path class="st4" d="M110.8,339.4l-23.1-27.9c-10.2-12.4-8.4-30.7,4-40.8c1.7-1.4,3.7-2.7,5.8-3.7l7.6-3.7
							c11.2-5.6,24.3-5.6,35.6,0l42.6,21.6L110.8,339.4z"/>
						<path class="st5" d="M140.8,263.1c-11.2-5.6-24.3-5.6-35.6,0L80,275.7c-9.7,4.8-16.9,13.5-19.6,23.9L50,339.5l63.7-38.8
							c10.1-6.1,17.9-15.3,22.3-26.1L140.8,263.1z"/>
						<path class="st4" d="M477.2,339.4l23.1-28.1c10.2-12.4,8.4-30.7-4-40.9c-1.7-1.4-3.7-2.7-5.8-3.7l-7.6-3.7
							c-11.2-5.6-24.3-5.6-35.6,0l-42.6,21.6L477.2,339.4z"/>
						<path class="st5" d="M447.2,263.1c11.2-5.6,24.3-5.6,35.6-0.1l25.2,12.5c9.7,4.8,16.7,13.5,19.4,23.9l10.4,39.9l-63.7-38.8
							c-10.1-6.1-17.9-15.3-22.3-26.1L447.2,263.1z"/>
						<path class="st4" d="M170.7,581c-84.3-54.5-65.7-184.4-34-288c-13.8,13-23.1,30.3-26.2,49l-14.1,86l-4.8,17.7
							c-8.6,32.1-10.1,65.7-4,98.3l8.8,48.4l61.7,17c89.6,24.8,184.1,24.8,273.7,0l6.2-1.7C368.8,621.3,251.5,633.1,170.7,581z"/>
						<path class="st3" d="M502.2,543.9c5.9-32.7,4.6-66.3-4-98.3l-4.8-17.7l-14.1-85.9c-5.3-31.4-27.4-57.5-57.3-68l-26.5-9.5
							c-65.1-23.3-136.3-23.3-201.4,0l-26.2,9.5c-11.5,4.2-22.2,10.7-31.1,19c-31.7,103.6-50.3,233.5,34,288
							c80.8,52.2,198.1,40.5,267.4,26.8l55.5-15.4L502.2,543.9z"/>
						<path class="st6" d="M270.4,708.9c-27.7-22.9-59.4-52.9-74.3-90.5c-12.8-2.4-25.5-5.5-38.2-8.9l-61.5-17.1l-2.6,1.7l24.9,32.8
							c32,42.1,73,76.5,119.9,101l4.8,2.6h51.6C286.7,722.9,278.3,715.4,270.4,708.9z"/>
						<path class="st7" d="M270.4,708.9c7.9,6.5,16.3,14,24.5,21.5h122.9c29.1-32.3,52-69.7,67.4-110.4l10.1-26.5l-1.9-1.2l-61.7,17
							c-76.8,21.2-157.5,24.2-235.7,8.9C211.1,656,242.8,686,270.4,708.9z"/>
						<path class="st5" d="M422.3,451.1c-7.3-3.7-14.4-7.9-21-12.5c-10.9-7.6-50.7-45.1-53.3-48.8c-2-3,35.2,27.7,61.7,45.1
							c5.8,3.7,13.4,2.6,17.9-2.6c12.5-15.1,35.9-46.8,35.9-75.6c0,0-24.5-34.6-47.3-44.2c-22.8-9.7-77.2,4.5-73,30.7
							c0.3,0.7-78.9,0.7-78.7,0c4.2-26.2-50.3-40.3-73-30.7c-22.8,9.7-47.1,43.9-47.1,43.9c0,28.8,23.3,60.7,35.9,75.6
							c4.5,5.3,12.1,6.3,17.9,2.6c26.5-17.4,63.7-48,61.7-45.1c-2.6,3.9-42.4,41.2-53.3,48.8c-6.8,4.6-13.7,8.9-21,12.5l0,0
							c-9.9,5.9-36,6.3-36,43.5c0,50.9,62.1,60.2,84.9,59.2s52.2-21.5,69.6-22c17.3,0.7,46.7,21.2,69.6,22c22.9,0.9,85-8.4,85-59.2
							C458.3,457.5,432.2,457.1,422.3,451.1z"/>
						<path class="st7" d="M239.9,342.7l-51.3,5.8c-4.2,5-6.2,10.9-5,16.7c2.4,12.2,18.3,18.7,35.4,14.6c4.6-1.2,8.9-2.9,13-5.5
							c7.1-4.6,10.9-12.7,10.4-21C242.2,349.7,241.3,346.1,239.9,342.7z"/>
						<path class="st8" d="M199.1,354.3c0.1,0.1,0.1,0.3,0.3,0.4c0.9,2-0.1,4.5-2.2,5.3c-1.6,0.7-3.5,0.1-4.6-1.2
							c-0.1,0.4-0.1,1-0.1,1.4c0,3.3,2.7,6.1,6.1,6.1c3.3,0,6.1-2.7,6.1-6.1C204.6,357.4,202.1,354.8,199.1,354.3L199.1,354.3z"/>
						<path class="st7" d="M197.2,360c2-0.9,3-3.2,2.2-5.2c-0.1-0.1-0.1-0.3-0.3-0.4c-0.3,0-0.4,0-0.7,0c-2.9,0-5.2,2-5.9,4.8
							C193.8,360.2,195.6,360.7,197.2,360z"/>
						<path class="st9" d="M425.6,511.8c-10.9,1-20.6-8.4-41.9-16c-51.6-18.7-108.1-18.7-159.6,0c-21.3,7.6-31,17-41.9,16"/>
						<path class="st2" d="M369.5,339.4l51.3,6.3c4.2,5.6,6.2,12,5,18.2c-2.4,13.4-18.3,20.5-35.4,15.8c-4.6-1.2-9.1-3.2-13-5.9
							c-6.8-4.6-10.9-13.4-10.4-22.8C367.2,347,368.1,343.1,369.5,339.4z"/>
						<path class="st8" d="M410.2,354.3c-0.1,0.1-0.1,0.3-0.3,0.4c-0.9,2,0.3,4.5,2.3,5.2c1.6,0.6,3.3,0.1,4.5-1.2
							c0.1,0.4,0.1,1,0.1,1.4c0,3.3-2.7,6.1-6.1,6.1c-3.3,0-6.1-2.7-6.1-6.1C404.8,357.4,407.1,354.8,410.2,354.3L410.2,354.3z"/>
						<path class="st2" d="M412,360c-2-0.9-3-3.2-2.2-5.2c0.1-0.1,0.1-0.3,0.3-0.4c0.3,0,0.4,0,0.7,0c2.7,0,5.2,2,5.9,4.8
							C415.6,360.2,413.8,360.7,412,360z"/>
						<path class="st8" d="M351.4,400.9c0-16.7-28.5-25.8-47.5-25.8c-19,0-47.5,9.1-47.5,25.8c0,7.2,4.9,12.1,12.2,15.3
							c0.3-1.2,1-2,1.9-2.6c2.2-1.4,3.6-4,3.6-6.6c0-2.6-1.3-5-3.5-6.6c-2-1.4-2.6-4.2-1.4-6.3c0.7-1.9,3-2.9,4.9-2
							c0.1,0.1,0.4,0.1,0.6,0.3c4.8,3.3,7.6,8.8,7.5,14.7c0,4.5-1.6,8.8-4.6,12.2c17.4,3.6,35.4,3.6,53,0c-3-3.3-4.8-7.6-4.8-12.2
							c-0.1-5.8,2.7-11.4,7.5-14.7c1.7-1.2,4-0.6,5.2,1.2c0.1,0.1,0.3,0.4,0.3,0.6c1.2,2.2,0.4,4.9-1.6,6.3
							c-2.2,1.4-3.5,3.9-3.5,6.6c0,2.6,1.3,5.2,3.6,6.6c1,0.6,1.6,1.6,1.9,2.6C346.5,413,351.4,408.1,351.4,400.9z"/>
						<path class="st5" d="M281.9,406.9c0.1-5.8-2.7-11.4-7.5-14.7c-1.7-1.2-4-0.6-5.2,1.2c-0.1,0.1-0.3,0.4-0.3,0.6
							c-1.2,2.2-0.6,4.9,1.4,6.3c2.2,1.4,3.5,3.9,3.5,6.6c0,2.6-1.3,5.2-3.6,6.6c-1,0.6-1.6,1.6-1.9,2.6c2.9,1.2,5.8,2.2,8.8,2.9
							C280.4,415.7,282.1,411.4,281.9,406.9z"/>
						<path class="st5" d="M337.3,413.5c-2.2-1.4-3.6-4-3.6-6.6c0-2.6,1.3-5,3.5-6.6c2-1.4,2.6-4.2,1.6-6.3c-0.7-1.9-3-2.9-4.9-2
							c-0.1,0.1-0.4,0.1-0.6,0.3c-4.8,3.3-7.6,8.8-7.5,14.7c0,4.5,1.6,8.8,4.6,12.2c3-0.7,6.1-1.7,8.8-2.9
							C339,415.1,338.3,414.1,337.3,413.5z"/>
						<path class="st10" d="M345.6,583.5c-0.7-0.7-1.2-1.7-1.2-2.7c-0.1-1,0.3-2,1-2.7c1.4-1.4,3.9-1.6,5.3-0.1
							c0.7,0.7,1.2,1.7,1.2,2.7c0,1-0.3,2-1,2.9C349.5,585,347.2,585,345.6,583.5L345.6,583.5L345.6,583.5z"/>
						<path class="st10" d="M360.5,582.8c-1.7-0.9-3.3-2.2-4.3-3.7c-2.2-3.5-2.2-7.8-0.3-11.4c1-1.7,2.3-3,4-4
							c1.9-1,3.9-1.6,5.9-1.6c2-0.1,4,0.3,5.8,1.3c1.6,0.9,2.9,2.3,3.7,3.9l-4.6,2.7c-0.9-1.7-2.7-2.9-4.8-2.7
							c-1.4,0-2.9,0.6-3.9,1.7c-2,2.6-1.9,6.2,0.3,8.6c1,1,2.4,1.6,4,1.4c2,0,3.9-1.3,4.6-3l4.8,2.4c-0.7,1.7-1.9,3.2-3.5,4
							c-1.7,1-3.7,1.6-5.8,1.6C364.4,584.1,362.3,583.7,360.5,582.8z"/>
						<path class="st10" d="M399.9,553.3l0.9,29.4l-5.8,0.1v-2.4c-1.6,2-4,3-6.5,3c-1.9,0.1-3.7-0.3-5.3-1.2c-1.6-0.9-3-2.2-3.9-3.7
							c-1.9-3.6-2-7.8-0.3-11.5c0.9-1.6,2-3,3.6-4s3.5-1.4,5.3-1.4c2.3-0.1,4.8,0.7,6.3,2.3l-0.3-10.4L399.9,553.3z M393.2,576.5
							c1-1.2,1.6-2.7,1.4-4.3c0-1.6-0.6-3.2-1.6-4.3c-2.2-2-5.6-2-7.6,0.1l0,0c-2,2.6-1.9,6.2,0.3,8.6
							C387.7,578.8,391.1,578.7,393.2,576.5C393.3,576.5,393.3,576.5,393.2,576.5L393.2,576.5z"/>
					</g>
				</g>
			</g>
		</g>
	</g>
</g>
</svg>
