<?xml version="1.0" encoding="utf-8"?>
<!-- Generator: Adobe Illustrator 22.1.0, SVG Export Plug-In . SVG Version: 6.00 Build 0)  -->
<svg version="1.1" id="Layer_1" xmlns="http://www.w3.org/2000/svg" xmlns:xlink="http://www.w3.org/1999/xlink" x="0px" y="0px"
	 viewBox="0 0 234 195.1" style="enable-background:new 0 0 234 195.1;" xml:space="preserve">
<title>WanderSpace-LogoBW</title>
<g>
	<path d="M171.3,149.6c-2.8-2.2-6.4-2.5-14.3-3.6c-2.6-0.4-5.5-0.7-8.7-1.1l9.1,15.8c3.3-0.7,6.5-1.7,9.6-3
		C172.8,154.7,174.1,151.8,171.3,149.6z"/>
	<path d="M183.8,173.7c-2.2,1.1-4.5,2.1-6.9,3.1c-2.7,1.1-5.5,2.2-8.3,3.2l2.5,4.4c3.8,6.5,8,10.1,12.7,10.7c0.5,0.1,1,0.1,1.5,0.1
		c5.3,0,9-3.9,11.2-11.7l6.1-21.8C196.9,166.5,190.6,170.5,183.8,173.7L183.8,173.7z"/>
	<path d="M203,2.6c-3.7-1-7.5-1.6-11.4-1.6l-7.8,29.3v0L174,67L137.7,5c-2-3.3-3.7-5-5-5c-1.1-0.1-2.1,0.3-2.9,1
		c-0.8,0.8-1.5,1.7-2.1,2.6v0c-0.3,0.4-0.6,0.9-0.9,1.4l-39,62.7L70,1h-0.1v0.1H0l49.9,165.5c4.2,0.5,8.5,1,12.9,1.4
		c2.3,0.2,4.7,0.4,7.1,0.6c0.7,0,1.4,0.1,2.1,0.1c10.9,0.6,21.3-4.8,27.1-14.2l8-12.9c-11.3-1.1-20.9-2.2-28.6-3.5
		c-3.1-0.5-6-1.1-8.6-1.8c-6.7-1.8-11.7-4.1-14.8-7.1c-4.3-4.1-3.2-9.7,3.3-16.8c3.4-3.6,7.3-6.8,11.5-9.4v0
		c5.6-3.5,11.4-6.6,17.6-9.1c13-5.4,26.5-9.5,40.3-12.3v0c1.9-0.4,3.9-0.8,5.9-1.2c16.6-3.2,33.3-5.2,50.2-6.1v0
		c1.7-0.1,3.4-0.2,5.1-0.3c12.7-0.6,25.3-0.3,38,0.7l5.6-20C238.7,32.3,225.5,8.9,203,2.6z"/>
	<path d="M183.8,85.8L183.8,85.8L183.8,85.8c-1.9,0-3.8,0.1-5.8,0.2c-19.1,0.7-35.9,2.9-50.3,6.5v0c-1.6,0.4-3.1,0.8-4.6,1.2
		c-15.4,4.4-26.2,10-32.7,17c-5.5,6-4.4,10.3,3.2,12.9c4.9,1.6,12.2,3.1,21.9,4.3l11.8-19.1l0.3,0.5v0.1l12,20.8
		c18.4,1.4,32.8,2.9,43.2,4.3c0.3,0,0.5,0.1,0.8,0.1v0l0,0c11,1.6,18.9,4.3,23.8,8l0.3,0.2l15-53.7
		C212.2,86.1,199.3,85.6,183.8,85.8z"/>
</g>
</svg>
