<svg xmlns="http://www.w3.org/2000/svg" viewBox="0 0 1287.75 440.18"><defs><style>.cls-1{fill:#1e2740;}.cls-2{fill:#fff;}.cls-3{fill:#fcc398;}.cls-4{fill:#f9a159;}.cls-5{fill:#f47920;}</style></defs><title>traede-logo</title><g id="Layer_2" data-name="Layer 2"><g id="Layer_1-2" data-name="Layer 1"><path class="cls-1" d="M392.31,156.57a206.19,206.19,0,0,0-43.73-65A204.39,204.39,0,0,0,204.2,31.78a201.16,201.16,0,0,0-79.41,16.1,206.18,206.18,0,0,0-65,43.72,201.48,201.48,0,0,0-43.73,65,203.89,203.89,0,0,0,0,158.82,206.19,206.19,0,0,0,43.73,65,201.65,201.65,0,0,0,65,43.73,204,204,0,0,0,158.82,0,206.19,206.19,0,0,0,65-43.73,204.1,204.1,0,0,0,43.73-223.79Z"/><path class="cls-2" d="M148,367.08a8.63,8.63,0,0,1-8.63-8.63V263.28a8.63,8.63,0,0,1,17.26,0v95.17A8.63,8.63,0,0,1,148,367.08Z"/><path class="cls-2" d="M196.57,379.11a8.63,8.63,0,0,1-8.63-8.63V216.4a8.63,8.63,0,0,1,17.26,0V370.48A8.63,8.63,0,0,1,196.57,379.11Z"/><path class="cls-2" d="M245.19,372.89a8.63,8.63,0,0,1-8.63-8.63V243.78a8.63,8.63,0,0,1,17.26,0V364.26A8.57,8.57,0,0,1,245.19,372.89Z"/><path class="cls-2" d="M293.82,345a8.62,8.62,0,0,1-8.63-8.63V211.17a8.63,8.63,0,1,1,17.25,0V336.38A8.57,8.57,0,0,1,293.82,345Z"/><path class="cls-2" d="M72.11,271.91a8.66,8.66,0,0,1-6.06-2.41,8.55,8.55,0,0,1-.25-12.19l111-115.59a27.24,27.24,0,0,1,19.58-8.46h.25a27.54,27.54,0,0,1,19.42,8l21.16,21.16a10.29,10.29,0,0,0,7.3,3,9.85,9.85,0,0,0,7.3-3.4l48-52.86a8.64,8.64,0,1,1,12.78,11.62l-48,52.85a26.9,26.9,0,0,1-19.75,9,27.36,27.36,0,0,1-19.91-8l-21.16-21.16a10,10,0,0,0-7.14-3h-.08a10.28,10.28,0,0,0-7.22,3.07l-111,115.59A8.1,8.1,0,0,1,72.11,271.91Z"/><path class="cls-3" d="M287.76,144.46A8.63,8.63,0,0,1,281.37,130l38.83-42.9A8.64,8.64,0,1,1,333,98.74l-38.83,42.9A8.45,8.45,0,0,1,287.76,144.46Z"/><path class="cls-4" d="M302.44,128a8.63,8.63,0,0,1-6.38-14.44l41.4-45.47a8.64,8.64,0,1,1,12.78,11.62l-41.41,45.47A8.76,8.76,0,0,1,302.44,128Z"/><path class="cls-5" d="M316.63,112.6a8.63,8.63,0,0,1-6.39-14.44L363.1,39.91a8.64,8.64,0,1,1,12.78,11.62L323,109.78A8.63,8.63,0,0,1,316.63,112.6Z"/><polygon class="cls-5" points="345.34 42.23 410.89 0 375.21 69.37 345.34 42.23"/><path class="cls-1" d="M529.46,355.24a6.82,6.82,0,0,1-2.08-5V174.68H472.65a6.82,6.82,0,0,1-5-2.07,7.17,7.17,0,0,1-2.07-5.33V145.09a7.46,7.46,0,0,1,1.92-5.32,6.72,6.72,0,0,1,5.18-2.08H623.84a7.11,7.11,0,0,1,7.4,7.4v22.19a7.09,7.09,0,0,1-7.4,7.4H569.4V350.21a7.13,7.13,0,0,1-1.92,5,6.74,6.74,0,0,1-5.18,2.07H534.49A6.82,6.82,0,0,1,529.46,355.24Z"/><path class="cls-1" d="M629.61,355.24a6.85,6.85,0,0,1-2.07-5V210.85a7.24,7.24,0,0,1,2.07-5.33,6.89,6.89,0,0,1,5-2.07h24.27a7.09,7.09,0,0,1,7.39,7.4V223q14.79-19.53,42.61-19.53h12.43a6.65,6.65,0,0,1,7.1,7.1v21.6a7.07,7.07,0,0,1-1.93,5,6.67,6.67,0,0,1-5.17,2.07H698q-13.9,0-21.89,8t-8,21.9v81.07a7.07,7.07,0,0,1-7.1,7.1H634.64A6.85,6.85,0,0,1,629.61,355.24Z"/><path class="cls-1" d="M997.14,341.18q-16-19.08-17.45-51l-.3-9.76.3-9.76q1.17-31.37,17.31-50.75t46-19.37q28.4,0,45.27,19.52V163.38a6.71,6.71,0,0,1,2.07-5.18,7.1,7.1,0,0,1,5-1.92h25.74a6.62,6.62,0,0,1,7.1,7.1V350.21a7.13,7.13,0,0,1-1.92,5,6.74,6.74,0,0,1-5.18,2.07h-24a7.07,7.07,0,0,1-7.1-7.1V339.26q-16.27,21-47,21Q1013.12,360.27,997.14,341.18Zm82.11-23.67q8.13-10.78,9-26.77c.19-2.37.29-6.11.29-11.25q0-8-.29-11.54-.6-14.79-9.18-25.14t-24.85-10.36q-31.66,0-33.73,39.05l-.3,8.88.3,8.88q2.07,39.06,33.73,39.05Q1071.11,328.31,1079.25,317.51Z"/><path class="cls-1" d="M1162.15,341.33q-19.38-18.93-20.57-53.85l-.29-7.39q0-37,19.38-58.29t53.7-21.3q35.2,0,54.29,21.3t19.09,56.81v6.21a6.89,6.89,0,0,1-2.07,5,7.24,7.24,0,0,1-5.33,2.07h-98.23v2.37q.59,16.57,9,27.37c5.62,7.2,13.36,10.19,23.23,10.19,11.24,0,20.41-3.93,27.52-13a16.06,16.06,0,0,1,4.14-4,12.21,12.21,0,0,1,5-.74h26a7.33,7.33,0,0,1,4.58,1.48,4.94,4.94,0,0,1,1.93,4.14q0,7.11-8.44,16.72t-24.11,16.72q-15.69,7.09-36.39,7.1Q1181.52,360.27,1162.15,341.33Zm84.77-74.56v-.59q0-17.46-8.73-28t-23.82-10.5q-15.09,0-23.67,10.5t-8.58,28v.59Z"/><path class="cls-1" d="M948.38,221.8q-19.1-21.3-54.3-21.3c-16.55,0-24.29,1-32,2.94A61,61,0,0,0,847.57,209l-1.53.88-1.53-.88A61,61,0,0,0,830,203.44a108.63,108.63,0,0,0-26.66-2.94q-21.32,0-35.81,6.95t-21.45,16.27q-6.95,9.32-7.25,16.72a6.1,6.1,0,0,0,1.93,4.73,6.5,6.5,0,0,0,4.58,1.78h20.43a8.91,8.91,0,0,0,7.6-4.17,23.93,23.93,0,0,1,3.29-4.24c3.52-3.51,6.65-6.08,9.13-7.27,6.32-3.06,10.74-3.55,17.25-3.55q14.21,0,20.71,6.5a20.2,20.2,0,0,1,4.38,6.81,33.17,33.17,0,0,1,2.13,12.43v13.31H792.33a75.37,75.37,0,0,0-22.86,3.48,79.53,79.53,0,0,0-24.42,12.2Q728.78,294.89,728.77,315A38.88,38.88,0,0,0,736,337.78a50.11,50.11,0,0,0,19.83,16.42,62.86,62.86,0,0,0,27.66,6.07c38.74,0,58.8-12.69,62.06-14.94l.43-.3a63.54,63.54,0,0,0,21,11.26,88.94,88.94,0,0,0,27.42,4q20.7,0,36.39-7.1t24.11-16.72q8.45-9.61,8.44-16.72a4.94,4.94,0,0,0-1.93-4.14,7.33,7.33,0,0,0-4.58-1.48h-26a12.25,12.25,0,0,0-5,.74,16.06,16.06,0,0,0-4.14,4c-7.1,9.07-16.27,13-27.52,13-9.86,0-17.6-3-23.22-10.19-.24-.3-.44-.62-.66-.92-5.18-7.06-8-15.86-8.37-26.45v-2.37h98.23a7.22,7.22,0,0,0,5.33-2.07,6.85,6.85,0,0,0,2.07-5v-6.21Q967.46,243.11,948.38,221.8ZM825.47,313.85a31.78,31.78,0,0,1-5.27,7.36q-10.37,10.65-26.63,10.65-11,0-18.79-5.17A16.55,16.55,0,0,1,766.94,312c0-7.71,5-13.63,15-17.8,2.84-1.12,6.73-2.32,16.84-2.32h31.5C830.25,298.63,828.64,307.9,825.47,313.85Zm101.16-47.08h-64.8v-.59q0-15.18,6.5-25.1a32.61,32.61,0,0,1,2.08-2.86q8.58-10.5,23.67-10.5t23.82,10.5q8.73,10.5,8.73,28Z"/></g></g></svg>