<svg xmlns="http://www.w3.org/2000/svg" viewBox="0 0 436.6 467.7"><defs><style>.cls-1{fill:#fff;}.cls-2{fill:#c4c4c4;}.cls-3{fill:#949494;}.cls-4{fill:#7a7a7a;}</style></defs><title>Traede-MarkOnly-BW</title><g id="Layer_2" data-name="Layer 2"><g id="Layer_1-2" data-name="Layer 1"><path d="M416.9,166.3a217.59,217.59,0,0,0-46.5-69A217.13,217.13,0,0,0,132.5,50.9a217.59,217.59,0,0,0-69,46.5A216.81,216.81,0,0,0,17.1,335.1a217.59,217.59,0,0,0,46.5,69,216.81,216.81,0,0,0,237.8,46.5,217.59,217.59,0,0,0,69-46.5,216.81,216.81,0,0,0,46.5-237.8Z"/><path class="cls-1" d="M157.2,390a9.18,9.18,0,0,1-9.2-9.2V279.7a9.2,9.2,0,0,1,18.4,0V380.8A9.18,9.18,0,0,1,157.2,390Z"/><path class="cls-1" d="M208.9,402.8a9.18,9.18,0,0,1-9.2-9.2V229.9a9.2,9.2,0,1,1,18.4,0V393.6A9.18,9.18,0,0,1,208.9,402.8Z"/><path class="cls-1" d="M260.5,396.2a9.18,9.18,0,0,1-9.2-9.2V259a9.2,9.2,0,0,1,18.4,0V387A9.18,9.18,0,0,1,260.5,396.2Z"/><path class="cls-1" d="M312.2,366.6a9.18,9.18,0,0,1-9.2-9.2v-133a9.2,9.2,0,1,1,18.4,0v133A9.18,9.18,0,0,1,312.2,366.6Z"/><path class="cls-1" d="M267.8,172.2a11,11,0,0,1-7.8,3.6,10.41,10.41,0,0,1-7.8-3.2l-22.5-22.5a29.1,29.1,0,0,0-41.6.5L70.1,273.4a9.18,9.18,0,0,0,.3,13,9.35,9.35,0,0,0,6.4,2.6,9,9,0,0,0,6.6-2.8l118-122.8a10.75,10.75,0,0,1,15.4-.1l22.5,22.5a28.65,28.65,0,0,0,21.2,8.5,29.44,29.44,0,0,0,21-9.5l29.8-32.9a9,9,0,0,1-5.4,1.8,9.31,9.31,0,0,1-6.2-2.4,9.18,9.18,0,0,1-.6-13"/><path class="cls-2" d="M328.2,133a9.11,9.11,0,0,1-6.8,3,9.31,9.31,0,0,1-6.2-2.4,9.17,9.17,0,0,1-1.7-11.5l-14.5,16a9.2,9.2,0,0,0,6.8,15.4,9,9,0,0,0,5.4-1.8,17.41,17.41,0,0,0,1.4-1.2"/><path class="cls-3" d="M314.6,120.6a14.31,14.31,0,0,0-1.1,1.5,9.17,9.17,0,0,0,1.7,11.5,9.31,9.31,0,0,0,6.2,2.4,9.11,9.11,0,0,0,6.8-3l14.1-15.5a8.9,8.9,0,0,1-5.8,2,9.31,9.31,0,0,1-6.2-2.4,9.18,9.18,0,0,1-.6-13"/><path class="cls-4" d="M366.9,44.9l9.1,8.2-46.3,51.1a9.2,9.2,0,0,0,6.8,15.4,9.48,9.48,0,0,0,5.8-2c.4-.3,47.3-52.1,47.3-52.1l9.1,8.2L436.6,0Z"/></g></g></svg>