<svg xmlns="http://www.w3.org/2000/svg" viewBox="0 0 436.6 467.7"><defs><style>.cls-1{fill:#fff;}.cls-2{fill:#231f20;}.cls-3{fill:#fcc398;}.cls-4{fill:#f9a159;}.cls-5{fill:#f47920;}</style></defs><title>Træde-MarkOnly-InvertedColor</title><g id="Layer_2" data-name="Layer 2"><g id="Layer_1-2" data-name="Layer 1"><path class="cls-1" d="M416.9,166.3a217.59,217.59,0,0,0-46.5-69A217.13,217.13,0,0,0,132.5,50.9a217.59,217.59,0,0,0-69,46.5A216.81,216.81,0,0,0,17.1,335.1a217.59,217.59,0,0,0,46.5,69,216.81,216.81,0,0,0,237.8,46.5,217.59,217.59,0,0,0,69-46.5,216.81,216.81,0,0,0,46.5-237.8Z"/><path class="cls-2" d="M157.2,390A9.18,9.18,0,0,1,148,380.8V279.7a9.18,9.18,0,0,1,18.36,0V380.8A9.18,9.18,0,0,1,157.2,390Z"/><path class="cls-2" d="M208.9,402.78a9.18,9.18,0,0,1-9.18-9.18V229.9a9.18,9.18,0,0,1,18.36,0V393.6A9.18,9.18,0,0,1,208.9,402.78Z"/><path class="cls-2" d="M260.5,396.18a9.18,9.18,0,0,1-9.18-9.18V259a9.18,9.18,0,0,1,18.36,0V387A9.18,9.18,0,0,1,260.5,396.18Z"/><path class="cls-2" d="M312.2,366.58A9.18,9.18,0,0,1,303,357.4v-133a9.18,9.18,0,1,1,18.36,0v133A9.18,9.18,0,0,1,312.2,366.58Z"/><path class="cls-2" d="M267.83,172.2a10.82,10.82,0,0,1-7.82,3.56,10.61,10.61,0,0,1-7.82-3.15l-22.5-22.5a29.1,29.1,0,0,0-41.61.43l-118,122.8a9.18,9.18,0,0,0,13.24,12.72l118-122.79a10.75,10.75,0,0,1,15.4-.18l22.5,22.5a29.15,29.15,0,0,0,42.19-1l29.82-32.87A9.17,9.17,0,0,1,299,138.14"/><path class="cls-3" d="M328.19,133a9.18,9.18,0,0,1-14.69-10.86l-14.5,16a9.17,9.17,0,0,0,12.22,13.56,8.94,8.94,0,0,0,1.38-1.24"/><path class="cls-4" d="M314.61,120.62A9.18,9.18,0,0,0,328.19,133l14.07-15.45a9.17,9.17,0,0,1-12.56-13.29"/><path class="cls-5" d="M366.9,44.9l9.1,8.24-46.3,51.1a9.17,9.17,0,0,0,12.56,13.29c.37-.29,47.35-52.06,47.35-52.06l9.09,8.23L436.6,0Z"/></g></g></svg>