<?xml version="1.0" encoding="utf-8"?>
<!-- Generator: Adobe Illustrator 23.0.1, SVG Export Plug-In . SVG Version: 6.00 Build 0)  -->
<svg version="1.1" id="Layer_1" xmlns="http://www.w3.org/2000/svg" xmlns:xlink="http://www.w3.org/1999/xlink" x="0px" y="0px"
	 viewBox="0 0 436.6 467.7" style="enable-background:new 0 0 436.6 467.7;" xml:space="preserve">
<style type="text/css">
	.st0{fill:#1E2740;}
	.st1{fill:#FFFFFF;}
	.st2{fill:#FCC398;}
	.st3{fill:#F9A159;}
	.st4{fill:#F47920;}
</style>
<g>
	<path class="st0" d="M416.9,166.3c-10.9-25.8-26.6-49-46.5-69c-19.9-19.9-43.1-35.6-69-46.5c-26.8-11.3-55.2-17-84.5-17
		s-57.7,5.7-84.4,17.1c-25.8,10.9-49,26.6-69,46.5c-19.9,19.9-35.6,43.1-46.5,69C5.7,193,0,221.4,0,250.7s5.7,57.7,17.1,84.4
		c10.9,25.8,26.6,49,46.5,69c19.9,19.9,43.1,35.6,69,46.5c26.8,11.3,55.2,17.1,84.4,17.1s57.7-5.7,84.4-17.1
		c25.8-10.9,49-26.6,69-46.5c19.9-19.9,35.6-43.1,46.5-69c11.3-26.8,17.1-55.2,17.1-84.4C434,221.4,428.3,193,416.9,166.3z"/>
	<path class="st1" d="M157.2,390c-5.1,0-9.2-4.1-9.2-9.2V279.7c0-5.1,4.1-9.2,9.2-9.2s9.2,4.1,9.2,9.2v101.1
		C166.4,385.9,162.3,390,157.2,390z"/>
	<path class="st1" d="M208.9,402.8c-5.1,0-9.2-4.1-9.2-9.2V229.9c0-5.1,4.1-9.2,9.2-9.2s9.2,4.1,9.2,9.2v163.7
		C218.1,398.7,214,402.8,208.9,402.8z"/>
	<path class="st1" d="M260.5,396.2c-5.1,0-9.2-4.1-9.2-9.2V259c0-5.1,4.1-9.2,9.2-9.2c5.1,0,9.2,4.1,9.2,9.2v128
		C269.7,392.1,265.6,396.2,260.5,396.2z"/>
	<path class="st1" d="M312.2,366.6c-5.1,0-9.2-4.1-9.2-9.2v-133c0-5.1,4.1-9.2,9.2-9.2s9.2,4.1,9.2,9.2v133
		C321.4,362.5,317.3,366.6,312.2,366.6z"/>
	<path class="st1" d="M267.8,172.2c-2,2.2-4.8,3.5-7.8,3.6s-5.7-1.1-7.8-3.2l-22.5-22.5c-5.6-5.6-13-8.6-20.9-8.5s-15.2,3.3-20.7,9
		l-118,122.8c-3.5,3.7-3.4,9.5,0.3,13c1.8,1.7,4.1,2.6,6.4,2.6c2.4,0,4.8-0.9,6.6-2.8l118-122.8c2-2.1,4.8-3.3,7.7-3.3
		s5.6,1.1,7.7,3.2l22.5,22.5c5.7,5.7,13.2,8.7,21.2,8.5c8.1-0.2,15.5-3.6,21-9.5l29.8-32.9c-1.6,1.2-3.5,1.8-5.4,1.8
		c-2.2,0-4.4-0.8-6.2-2.4c-3.8-3.4-4-9.2-0.6-13"/>
	<path class="st2" d="M328.2,133c-1.8,2-4.3,3-6.8,3c-2.2,0-4.4-0.8-6.2-2.4c-3.3-3-3.9-7.8-1.7-11.5l-14.5,16
		c-3.4,3.8-3.1,9.6,0.6,13c1.8,1.6,4,2.4,6.2,2.4c1.9,0,3.8-0.6,5.4-1.8c0.5-0.4,1-0.8,1.4-1.2"/>
	<path class="st3" d="M314.6,120.6c-0.4,0.5-0.8,1-1.1,1.5c-2.2,3.7-1.6,8.5,1.7,11.5c1.8,1.6,4,2.4,6.2,2.4c2.5,0,5-1,6.8-3
		l14.1-15.5c-1.7,1.4-3.7,2-5.8,2c-2.2,0-4.4-0.8-6.2-2.4c-3.8-3.4-4-9.2-0.6-13"/>
	<path class="st4" d="M366.9,44.9l9.1,8.2l-46.3,51.1c-3.4,3.8-3.1,9.6,0.6,13c1.8,1.6,4,2.4,6.2,2.4c2.1,0,4.1-0.7,5.8-2
		c0.4-0.3,47.3-52.1,47.3-52.1l9.1,8.2L436.6,0L366.9,44.9z"/>
</g>
</svg>
