<svg xmlns="http://www.w3.org/2000/svg" xmlns:xlink="http://www.w3.org/1999/xlink" viewBox="0 0 444.3 301.76"><defs><style>.cls-1{fill:none;}.cls-2{clip-path:url(#clip-path);}.cls-3{fill:#fff;}.cls-4{fill:#f50057;}.cls-5{fill:#bcaaa4;}.cls-6{fill:#d7ccc8;}.cls-7{fill:#616161;}.cls-8{fill:#fafafa;}.cls-9{fill:#212121;}</style><clipPath id="clip-path" transform="translate(0 0)"><path class="cls-1" d="M355.39,65h-26.7l30.88-26.46h31.58L422,65H395.32l-20-13.23ZM353.3,21.14a9.25,9.25,0,0,1,7.2-2.79,10.47,10.47,0,0,1,4.75,1.39q2.67,1.4,5.46,3a66.26,66.26,0,0,0,10.68,5.69,29.65,29.65,0,0,0,11.14,2q12.3,0,19.27-7.66T419,1.65H400.89a13,13,0,0,1-3,7.54,9.06,9.06,0,0,1-7.2,2.9,10.91,10.91,0,0,1-4.75-1.16,65.36,65.36,0,0,1-6.16-3.48A113.41,113.41,0,0,0,369,1.88,26,26,0,0,0,358.64,0Q346.1,0,339,7.55T331.71,29h18.57A13.08,13.08,0,0,1,353.3,21.14Zm91,122.33q0,18.59-8.82,33.2a61.61,61.61,0,0,1-24.33,22.87q-15.56,8.24-35.28,8.24t-35.41-8.24c-1-.54-2-1.11-3-1.7a135.6,135.6,0,0,1-14.41,32.36q-21,34.05-58.69,52.81T177.5,301.76H40.42V171.58L0,171.53V124.42H41.49L40.42,0H177.5q49.14,0,86.86,18.75T323,71.57a134.48,134.48,0,0,1,10.16,20.25,68.54,68.54,0,0,1,7.24-4.41q15.67-8.25,35.41-8.24t35.35,8.24a61.53,61.53,0,0,1,24.38,22.87q8.78,14.63,8.77,33.19Zm-171.15,7.41q0-43.11-26.94-68.32T174,57.34H110.25v67.08h75.57v47.11H110.25v72.9h63.8q45.26,0,72.2-25.22T273.15,150.88Zm134.43-7.41q0-15.78-8.94-25.18t-22.86-9.4q-13.93,0-23,9.4t-9.06,25.18q0,15.79,9.06,25.19t23,9.4q13.92,0,22.86-9.4t9-25.19Z"/></clipPath></defs><title>cd-rgbPrimary</title><g id="Layer_2" data-name="Layer 2"><g id="Layer_1-2" data-name="Layer 1"><g id="Layer_1-2-2" data-name="Layer 1-2"><g class="cls-2"><path class="cls-3" d="M0,0V168.33a623.68,623.68,0,0,1,94.27-7.11c136.68,0,260.42,43.92,350,114.93V0Z" transform="translate(0 0)"/><path class="cls-4" d="M444.3,276.15c-89.61-71-213.35-114.93-350-114.93A623.68,623.68,0,0,0,0,168.33V301.76H444.3Z" transform="translate(0 0)"/><path class="cls-5" d="M344.49,157.62a20.06,20.06,0,0,0-4-2.56l-5.33-2.65a27.59,27.59,0,0,0-24.71.05l-29.62,15,50.46,38,16-19.46A20.15,20.15,0,0,0,344.49,157.62Z" transform="translate(0 0)"/><path class="cls-5" d="M88.24,196.92l39.15-29.43-29.63-15a27.59,27.59,0,0,0-24.71-.05l-5.3,2.65a19.9,19.9,0,0,0-4,2.57A20.14,20.14,0,0,0,61,186l16,19.43.19-.14q-.19.94-.36,1.92l-9.83,59.66L63.6,279.21a155.39,155.39,0,0,0-4.3,22.55H77.83C73.63,269.27,79.21,231.93,88.24,196.92Z" transform="translate(0 0)"/><path class="cls-6" d="M345.88,279.16l-3.32-12.33-9.81-59.63A60.86,60.86,0,0,0,292.9,160l-18.41-6.6a207.3,207.3,0,0,0-139.77,0L116.54,160a61.88,61.88,0,0,0-21.6,13.22c-12.63,41.28-22.26,88.57-17.1,128.53H350.18A154.46,154.46,0,0,0,345.88,279.16Z" transform="translate(0 0)"/><path class="cls-7" d="M293.15,283a122.74,122.74,0,0,1-14.62-8.74c-7.63-5.34-35.21-31.27-37-33.94-1.37-2.06,24.39,19.19,42.84,31.25a9.48,9.48,0,0,0,12.43-1.82c8.72-10.46,24.94-32.54,24.94-52.54,0,0-17-24-32.8-30.68s-53.57,3.12-50.71,21.34c.19.45-54.76.45-54.57,0,2.86-18.22-34.89-28-50.72-21.34s-32.79,30.68-32.79,30.68c0,20,16.21,42.08,24.93,52.54a9.48,9.48,0,0,0,12.43,1.82c18.45-12.06,44.22-33.31,42.84-31.25-1.78,2.67-29.36,28.6-37,33.94A121.45,121.45,0,0,1,128.77,283c-5.64,3.37-18.91,4.19-23.44,18.75H316.59C312.06,287.2,298.79,286.38,293.15,283Z" transform="translate(0 0)"/><path class="cls-8" d="M166.55,207.7l-35.61,4.05c-2.87,3.55-4.25,7.64-3.48,11.57,1.66,8.5,12.68,13,24.61,10.14a30.71,30.71,0,0,0,9-3.77,16.06,16.06,0,0,0,7.21-14.57A23.69,23.69,0,0,0,166.55,207.7Z" transform="translate(0 0)"/><path class="cls-9" d="M138.26,215.8a2.27,2.27,0,0,1,.19.34,2.8,2.8,0,0,1-4.73,2.87,4.2,4.2,0,1,0,4.54-3.17Z" transform="translate(0 0)"/><path class="cls-8" d="M137,219.75a2.77,2.77,0,0,0,1.48-3.61,2.27,2.27,0,0,0-.19-.34,2.4,2.4,0,0,0-.46-.05,4.21,4.21,0,0,0-4.08,3.26A2.78,2.78,0,0,0,137,219.75Z" transform="translate(0 0)"/><path class="cls-3" d="M256.5,205.38l35.6,4.4c2.88,3.86,4.25,8.31,3.48,12.58-1.66,9.25-12.68,14.18-24.61,11a29.56,29.56,0,0,1-9-4.09c-4.68-3.19-7.58-9.34-7.21-15.84A28.06,28.06,0,0,1,256.5,205.38Z" transform="translate(0 0)"/><path class="cls-9" d="M284.78,215.8c-.06.11-.13.22-.19.34a2.81,2.81,0,0,0,4.73,2.87,4.15,4.15,0,0,1,.12,1,4.2,4.2,0,1,1-4.66-4.17Z" transform="translate(0 0)"/><path class="cls-3" d="M286.08,219.75a2.77,2.77,0,0,1-1.49-3.61c.06-.12.13-.23.19-.34a2.5,2.5,0,0,1,.47-.05,4.2,4.2,0,0,1,4.07,3.26A2.77,2.77,0,0,1,286.08,219.75Z" transform="translate(0 0)"/><path class="cls-9" d="M244,248.12c0-11.57-19.83-17.9-33-17.9s-33,6.33-33,17.9c0,5,3.41,8.39,8.48,10.63a3.11,3.11,0,0,1,1.31-1.84,5.46,5.46,0,0,0,2.45-4.6,5.38,5.38,0,0,0-2.4-4.56,3.49,3.49,0,0,1-1-4.39,2.6,2.6,0,0,1,3.39-1.43,2.1,2.1,0,0,1,.42.22,12.13,12.13,0,0,1,5.24,10.16,12.46,12.46,0,0,1-3.23,8.45,91.84,91.84,0,0,0,36.78,0,12.52,12.52,0,0,1-3.26-8.45,12.12,12.12,0,0,1,5.23-10.16,2.6,2.6,0,0,1,3.6.79,2.1,2.1,0,0,1,.22.42,3.49,3.49,0,0,1-1.06,4.39,5.37,5.37,0,0,0-2.39,4.56,5.46,5.46,0,0,0,2.45,4.6,3.11,3.11,0,0,1,1.31,1.84C240.55,256.51,244,253.13,244,248.12Z" transform="translate(0 0)"/><path class="cls-7" d="M97.76,152.46a27.59,27.59,0,0,0-24.71-.05l-17.48,8.73A25.9,25.9,0,0,0,42,177.76l-7.19,27.68L79,178.52a38.26,38.26,0,0,0,15.53-18.13Z" transform="translate(0 0)"/><path class="cls-7" d="M310.43,152.46a27.58,27.58,0,0,1,24.72-.05l17.48,8.73a25.9,25.9,0,0,1,13.52,16.62l7.19,27.68-44.18-26.92a38.26,38.26,0,0,1-15.53-18.13Z" transform="translate(0 0)"/></g></g></g></g></svg>