<?xml version="1.0" encoding="utf-8"?>
<!-- Generator: Adobe Illustrator 23.0.3, SVG Export Plug-In . SVG Version: 6.00 Build 0)  -->
<svg version="1.1" id="Layer_1" xmlns="http://www.w3.org/2000/svg" xmlns:xlink="http://www.w3.org/1999/xlink" x="0px" y="0px"
	 viewBox="0 0 444.3 301.8" style="enable-background:new 0 0 444.3 301.8;" xml:space="preserve">
<style type="text/css">
	.st0{clip-path:url(#SVGID_2_);}
	.st1{fill:#F50057;}
	.st2{fill:#BCAAA4;}
	.st3{fill:#D7CCC8;}
	.st4{fill:#616161;}
	.st5{fill:#FAFAFA;}
	.st6{fill:#212121;}
	.st7{fill:#FFFFFF;}
</style>
<title>cd-rgbPrimary</title>
<g>
	<g id="Layer_1-2">
		<g id="Layer_1-2-2">
			<g>
				<defs>
					<path id="SVGID_1_" d="M355.4,65h-26.7l30.9-26.5h31.6L422,65h-26.7l-20-13.2L355.4,65z M353.3,21.1c1.9-1.9,4.5-3,7.2-2.8
						c1.7,0.1,3.3,0.6,4.8,1.4c1.8,0.9,3.6,1.9,5.5,3c3.4,2.2,7,4.1,10.7,5.7c3.6,1.4,7.3,2.1,11.1,2c8.2,0,14.6-2.6,19.3-7.7
						s7-12.1,7.2-21.1h-18.1c-0.2,2.8-1.2,5.4-3,7.5c-1.8,2-4.5,3.1-7.2,2.9c-1.7,0-3.3-0.4-4.8-1.2c-2.1-1-4.2-2.2-6.2-3.5
						c-3.5-2-7.1-3.9-10.8-5.6c-3.3-1.3-6.8-2-10.4-1.9c-8.4,0-14.9,2.5-19.6,7.6c-4.7,5-7.2,12.2-7.3,21.5h18.6
						C350.4,26.1,351.5,23.4,353.3,21.1z M444.3,143.5c0,12.4-2.9,23.5-8.8,33.2c-5.9,9.7-14.3,17.6-24.3,22.9
						c-10.4,5.5-22.1,8.2-35.3,8.2c-13.1,0-24.9-2.7-35.4-8.2c-1-0.5-2-1.1-3-1.7c-3.4,11.4-8.2,22.2-14.4,32.4
						c-14,22.7-33.6,40.3-58.7,52.8s-54.1,18.8-86.9,18.8H40.4V171.6L0,171.5v-47.1h41.5L40.4,0h137.1c32.8,0,61.7,6.3,86.9,18.8
						s44.7,30.1,58.6,52.8c4,6.5,7.3,13.2,10.2,20.3c2.3-1.6,4.7-3.1,7.2-4.4c10.4-5.5,22.3-8.2,35.4-8.2c13.2,0,24.9,2.8,35.4,8.2
						c10.1,5.2,18.5,13.1,24.4,22.9C441.4,120,444.3,131.1,444.3,143.5L444.3,143.5z M273.1,150.9c0-28.7-9-51.5-26.9-68.3
						c-18-16.8-42-25.2-72.2-25.2h-63.8v67.1h75.6v47.1h-75.6v72.9h63.8c30.2,0,54.2-8.4,72.2-25.2S273.2,179.6,273.1,150.9z
						 M407.6,143.5c0-10.5-3-18.9-8.9-25.2c-6-6.3-13.6-9.4-22.9-9.4c-9.3,0-17,3.1-23,9.4c-6,6.3-9.1,14.7-9.1,25.2
						c0,10.5,3,18.9,9.1,25.2c6,6.3,13.7,9.4,23,9.4c9.3,0,16.9-3.1,22.9-9.4C404.6,162.4,407.6,154,407.6,143.5L407.6,143.5z"/>
				</defs>
				<clipPath id="SVGID_2_">
					<use xlink:href="#SVGID_1_"  style="overflow:visible;"/>
				</clipPath>
				<g class="st0">
					<path d="M0,0v168.3c31.2-4.8,62.7-7.1,94.3-7.1c136.7,0,260.4,43.9,350,114.9V0H0z"/>
					<path class="st1" d="M444.3,276.1c-89.6-71-213.4-114.9-350-114.9c-31.6,0-63.1,2.4-94.3,7.1v133.4h444.3V276.1z"/>
					<path class="st2" d="M344.5,157.6c-1.2-1-2.6-1.9-4-2.6l-5.3-2.6c-7.8-3.9-16.9-3.9-24.7,0.1l-29.6,15l50.5,38l16-19.5
						C354.4,177.4,353.1,164.7,344.5,157.6C344.5,157.6,344.5,157.6,344.5,157.6z"/>
					<path class="st2" d="M88.2,196.9l39.2-29.4l-29.6-15c-7.8-3.9-16.9-3.9-24.7-0.1l-5.3,2.6c-1.4,0.7-2.8,1.6-4,2.6
						c-8.6,7.1-9.8,19.8-2.8,28.3l16,19.4l0.2-0.1c-0.1,0.6-0.2,1.3-0.4,1.9L67,266.9l-3.4,12.3c-2,7.4-3.4,14.9-4.3,22.5h18.5
						C73.6,269.3,79.2,231.9,88.2,196.9z"/>
					<path class="st3" d="M345.9,279.2l-3.3-12.3l-9.8-59.6c-3.7-21.8-19-39.9-39.9-47.2l-18.4-6.6c-45.2-16.2-94.6-16.2-139.8,0
						l-18.2,6.6c-8,2.9-15.4,7.4-21.6,13.2c-12.6,41.3-22.3,88.6-17.1,128.5h272.3C349.3,294.1,347.9,286.6,345.9,279.2z"/>
					<path class="st4" d="M293.1,283c-5.1-2.6-10-5.5-14.6-8.7c-7.6-5.3-35.2-31.3-37-33.9c-1.4-2.1,24.4,19.2,42.8,31.3
						c4,2.6,9.3,1.8,12.4-1.8c8.7-10.5,24.9-32.5,24.9-52.5c0,0-17-24-32.8-30.7s-53.6,3.1-50.7,21.3c0.2,0.4-54.8,0.4-54.6,0
						c2.9-18.2-34.9-28-50.7-21.3s-32.8,30.7-32.8,30.7c0,20,16.2,42.1,24.9,52.5c3.1,3.7,8.4,4.4,12.4,1.8
						c18.4-12.1,44.2-33.3,42.8-31.3c-1.8,2.7-29.4,28.6-37,33.9c-4.6,3.3-9.5,6.2-14.6,8.7c-5.6,3.4-18.9,4.2-23.4,18.8h211.3
						C312.1,287.2,298.8,286.4,293.1,283z"/>
					<path class="st5" d="M166.6,207.7l-35.6,4.1c-2.9,3.6-4.3,7.6-3.5,11.6c1.7,8.5,12.7,13,24.6,10.1c3.2-0.8,6.2-2,9-3.8
						c4.9-3.2,7.6-8.8,7.2-14.6C168.1,212.6,167.5,210.1,166.6,207.7z"/>
					<path class="st6" d="M138.3,215.8c0.1,0.1,0.1,0.2,0.2,0.3c0.6,1.4-0.1,3.1-1.5,3.7c-1.1,0.5-2.4,0.1-3.2-0.8
						c-0.6,2.3,0.8,4.5,3.1,5.1c2.3,0.6,4.5-0.8,5.1-3.1s-0.8-4.5-3.1-5.1C138.6,215.9,138.4,215.9,138.3,215.8L138.3,215.8z"/>
					<path class="st5" d="M137,219.8c1.4-0.6,2.1-2.2,1.5-3.6c-0.1-0.1-0.1-0.2-0.2-0.3c-0.2,0-0.3,0-0.5-0.1c-2,0-3.6,1.4-4.1,3.3
						C134.5,220,135.9,220.3,137,219.8z"/>
					<path class="st7" d="M256.5,205.4l35.6,4.4c2.9,3.9,4.3,8.3,3.5,12.6c-1.7,9.3-12.7,14.2-24.6,11c-3.2-0.8-6.3-2.2-9-4.1
						c-4.7-3.2-7.6-9.3-7.2-15.8C254.9,210.7,255.5,208,256.5,205.4z"/>
					<path class="st6" d="M284.8,215.8c-0.1,0.1-0.1,0.2-0.2,0.3c-0.6,1.4,0.2,3.1,1.6,3.6c1.1,0.4,2.3,0.1,3.1-0.8
						c0.1,0.3,0.1,0.7,0.1,1c0,2.3-1.9,4.2-4.2,4.2c-2.3,0-4.2-1.9-4.2-4.2C281,217.9,282.6,216.1,284.8,215.8L284.8,215.8z"/>
					<path class="st7" d="M286.1,219.8c-1.4-0.6-2.1-2.2-1.5-3.6c0.1-0.1,0.1-0.2,0.2-0.3c0.2,0,0.3,0,0.5-0.1
						c1.9,0,3.6,1.4,4.1,3.3C288.5,219.9,287.2,220.3,286.1,219.8z"/>
					<path class="st6" d="M244,248.1c0-11.6-19.8-17.9-33-17.9s-33,6.3-33,17.9c0,5,3.4,8.4,8.5,10.6c0.2-0.8,0.7-1.4,1.3-1.8
						c1.5-1,2.5-2.8,2.4-4.6c0-1.8-0.9-3.5-2.4-4.6c-1.4-1-1.8-2.9-1-4.4c0.5-1.3,2.1-2,3.4-1.4c0,0,0,0,0,0
						c0.1,0.1,0.3,0.1,0.4,0.2c3.3,2.3,5.3,6.1,5.2,10.2c0,3.1-1.1,6.1-3.2,8.4c12.1,2.5,24.6,2.5,36.8,0c-2.1-2.3-3.3-5.3-3.3-8.4
						c-0.1-4,1.9-7.9,5.2-10.2c1.2-0.8,2.8-0.4,3.6,0.8c0,0,0,0,0,0c0.1,0.1,0.2,0.3,0.2,0.4c0.8,1.5,0.3,3.4-1.1,4.4
						c-1.5,1-2.4,2.7-2.4,4.6c0,1.8,0.9,3.6,2.4,4.6c0.7,0.4,1.1,1.1,1.3,1.8C240.6,256.5,244,253.1,244,248.1z"/>
					<path class="st4" d="M97.8,152.5c-7.8-3.9-16.9-3.9-24.7-0.1l-17.5,8.7c-6.7,3.3-11.7,9.4-13.6,16.6l-7.2,27.7L79,178.5
						c7-4.2,12.4-10.6,15.5-18.1L97.8,152.5z"/>
					<path class="st4" d="M310.4,152.5c7.8-3.9,16.9-3.9,24.7-0.1l17.5,8.7c6.7,3.3,11.6,9.4,13.5,16.6l7.2,27.7l-44.2-26.9
						c-7-4.2-12.4-10.6-15.5-18.1L310.4,152.5z"/>
				</g>
			</g>
		</g>
	</g>
</g>
</svg>
