<svg xmlns="http://www.w3.org/2000/svg" viewBox="0 0 327.64 294.48"><defs><style>.cls-1{fill:#d7ccc8;}.cls-2{fill:#bcaaa4;}.cls-3{fill:#616161;}.cls-4{fill:#eee;}.cls-5{fill:#fafafa;}.cls-6{fill:#212121;}.cls-7{fill:none;stroke:#212121;stroke-linecap:round;stroke-linejoin:round;stroke-width:3px;}.cls-8{fill:#304ffe;}</style></defs><title>cdPug-rgbPrimary</title><g id="Layer_2" data-name="Layer 2"><g id="Layer_1-2" data-name="Layer 1"><g id="Layer_1-2-2" data-name="Layer 1-2"><path class="cls-1" d="M58.58,294.48H327.19A94.58,94.58,0,0,0,326,267.61h0a87.7,87.7,0,0,0-39-57.18H65.33C54.66,247.07,47.16,264.41,58.58,294.48Z"/><path class="cls-2" d="M65.33,210.42H40.66a87.7,87.7,0,0,0-39,57.19h0A94.58,94.58,0,0,0,.45,294.48H58.58C47.16,264.41,54.66,247.07,65.33,210.42Z"/><path class="cls-2" d="M49.56,56.31,35.29,39.21a17.51,17.51,0,0,1,6.08-27.13l4.74-2.33a25,25,0,0,1,22.08,0L94.66,22.94Z"/><path class="cls-3" d="M68.19,9.81a25,25,0,0,0-22.08,0L30.49,17.43A22.85,22.85,0,0,0,18.36,32l-6.42,24.3L51.42,32.68A33.69,33.69,0,0,0,65.29,16.77Z"/><path class="cls-2" d="M276.86,56.31l14.27-17.1a17.51,17.51,0,0,0-6.08-27.13l-4.74-2.33a25,25,0,0,0-22.08,0L231.76,22.94Z"/><path class="cls-3" d="M258.23,9.81a25,25,0,0,1,22.08,0l15.62,7.67A22.81,22.81,0,0,1,308.06,32l6.42,24.3L275,32.68a33.76,33.76,0,0,1-13.88-15.91Z"/><path class="cls-2" d="M86.74,203.45C34.46,170.27,46,91.13,65.66,28A52.51,52.51,0,0,0,49.4,57.82l-8.74,52.39-3,10.8a134,134,0,0,0-2.52,59.88l5.52,29.53L78.92,220.8a324.76,324.76,0,0,0,169.81,0l3.87-1C209.66,228.07,136.86,235.21,86.74,203.45Z"/><path class="cls-1" d="M292.42,180.89A133.88,133.88,0,0,0,289.91,121l-3-10.83-8.77-52.33c-3.18-19-16.79-34.79-35.6-41.41l-16.46-5.79a188.39,188.39,0,0,0-124.89,0L84.94,16.38A55.83,55.83,0,0,0,65.66,28C46,91.13,34.46,170.27,86.74,203.45c50.12,31.76,122.92,24.62,165.82,16.3l34.38-9.33Z"/><path class="cls-4" d="M148.66,281.4c-17.14-13.95-36.79-32.2-46.07-55.14Q90.68,224,78.93,220.8L40.66,210.42l-1.57,1,15.48,20a222.42,222.42,0,0,0,74.33,61.52l3,1.53h31.95C158.66,289.87,153.48,285.37,148.66,281.4Z"/><path class="cls-5" d="M148.66,281.4c4.87,4,10.05,8.47,15.19,13.08H240a213.2,213.2,0,0,0,41.84-67.19l6.25-16.15-1.12-.72L248.66,220.8a324.67,324.67,0,0,1-146.15,5.46C111.82,249.21,131.47,267.45,148.66,281.4Z"/><path class="cls-3" d="M242.79,124.38a110.21,110.21,0,0,1-13.06-7.67c-6.81-4.68-31.46-27.44-33-29.78-1.23-1.81,21.8,16.84,38.28,27.42a8.58,8.58,0,0,0,11.11-1.6c7.79-9.18,22.28-28.55,22.28-46.11,0,0-15.16-21.07-29.31-26.92s-47.87,2.73-45.31,18.73c.17.39-48.94.39-48.77,0,2.56-16-31.17-24.58-45.31-18.73S70.39,66.64,70.39,66.64c0,17.56,14.49,36.93,22.28,46.11a8.58,8.58,0,0,0,11.11,1.6c16.49-10.58,39.51-29.23,38.28-27.42-1.59,2.34-26.24,25.1-33,29.78A109.42,109.42,0,0,1,96,124.38h0c-6.13,3.6-22.3,3.88-22.3,26.53,0,31,38.48,36.68,52.62,36.09s32.37-13.07,43.13-13.46c10.75.39,29,12.88,43.12,13.46s52.62-5.07,52.62-36.09C265.09,128.21,248.92,128,242.79,124.38Z"/><path class="cls-5" d="M129.66,58.29,97.84,61.84C95.27,65,94,68.55,94.73,72c1.48,7.46,11.33,11.44,22,8.89a27.57,27.57,0,0,0,8.06-3.3,14,14,0,0,0,6.44-12.79A20.34,20.34,0,0,0,129.66,58.29Z"/><path class="cls-6" d="M104.38,65.4a1.69,1.69,0,0,1,.17.29,2.4,2.4,0,0,1-1.29,3.15l0,0a2.49,2.49,0,0,1-2.9-.65,4.81,4.81,0,0,0-.1.85,3.75,3.75,0,1,0,4.16-3.66Z"/><path class="cls-5" d="M103.22,68.86a2.41,2.41,0,0,0,1.35-3.13l0,0a1.69,1.69,0,0,0-.17-.29,3,3,0,0,0-.42-.05,3.75,3.75,0,0,0-3.64,2.86A2.49,2.49,0,0,0,103.22,68.86Z"/><path class="cls-7" d="M244.84,161.34c-6.82.61-12.78-5.08-26-9.75a147.93,147.93,0,0,0-99,0c-13.21,4.67-19.17,10.36-26,9.75"/><path class="cls-5" d="M210,56.21l31.82,3.87c2.57,3.38,3.8,7.29,3.11,11-1.48,8.11-11.33,12.44-22,9.67a26.56,26.56,0,0,1-8.06-3.6c-4.18-2.79-6.78-8.2-6.44-13.9A24.29,24.29,0,0,1,210,56.21Z"/><path class="cls-6" d="M235.31,65.4a2.75,2.75,0,0,0-.17.29,2.41,2.41,0,0,0,1.29,3.15l0,0a2.49,2.49,0,0,0,2.9-.65,3.47,3.47,0,0,1,.1.85,3.75,3.75,0,1,1-4.16-3.66Z"/><path class="cls-5" d="M236.47,68.86a2.4,2.4,0,0,1-1.34-3.13v0a2.75,2.75,0,0,1,.17-.29,3,3,0,0,1,.42-.05,3.74,3.74,0,0,1,3.64,2.86A2.49,2.49,0,0,1,236.47,68.86Z"/><path class="cls-6" d="M198.84,93.76c0-10.15-17.72-15.7-29.49-15.7s-29.5,5.55-29.5,15.7c0,4.4,3.05,7.37,7.58,9.33a2.83,2.83,0,0,1,1.17-1.62,4.78,4.78,0,0,0,.05-8,3,3,0,0,1-.94-3.86,2.35,2.35,0,0,1,3.09-1.22,1.82,1.82,0,0,1,.31.16,10.56,10.56,0,0,1,4.68,8.92,10.76,10.76,0,0,1-2.88,7.41,83,83,0,0,0,32.87,0,10.87,10.87,0,0,1-2.88-7.41,10.59,10.59,0,0,1,4.68-8.92,2.35,2.35,0,0,1,3.24.75,1.82,1.82,0,0,1,.16.31,3,3,0,0,1-.94,3.86,4.78,4.78,0,0,0,.05,8,2.74,2.74,0,0,1,1.17,1.62C195.79,101.13,198.84,98.21,198.84,93.76Z"/><path class="cls-3" d="M155.79,97.44a10.56,10.56,0,0,0-4.68-8.92,2.34,2.34,0,0,0-3.23.75,1.87,1.87,0,0,0-.17.31,3,3,0,0,0,.94,3.86,4.78,4.78,0,0,1-.05,8,2.83,2.83,0,0,0-1.17,1.62,34.28,34.28,0,0,0,5.48,1.76A10.8,10.8,0,0,0,155.79,97.44Z"/><path class="cls-3" d="M190.09,101.47a4.78,4.78,0,0,1-.05-8,3,3,0,0,0,.94-3.86,2.34,2.34,0,0,0-3.09-1.22,2.29,2.29,0,0,0-.31.16,10.59,10.59,0,0,0-4.68,8.92,10.87,10.87,0,0,0,2.88,7.41,33.65,33.65,0,0,0,5.48-1.76A2.7,2.7,0,0,0,190.09,101.47Z"/><path class="cls-8" d="M178.4,285.21a2.18,2.18,0,0,1-.67-1.54,2,2,0,0,1,.58-1.56,2.28,2.28,0,0,1,3.06-.09,2,2,0,0,1,.66,1.52,2.17,2.17,0,0,1-3.63,1.67Z"/><path class="cls-8" d="M186.83,284.83a6,6,0,0,1-2.44-2.12,6.33,6.33,0,0,1-.19-6.34,6,6,0,0,1,2.31-2.26,7.49,7.49,0,0,1,3.4-.89,6.8,6.8,0,0,1,3.32.69,4.73,4.73,0,0,1,2.12,2.19l-2.64,1.52a3,3,0,0,0-2.73-1.56,3,3,0,0,0-2.22,1,3.75,3.75,0,0,0,.15,4.83,3,3,0,0,0,2.26.82,2.9,2.9,0,0,0,2.64-1.72l2.73,1.38a4.82,4.82,0,0,1-2,2.28,6.59,6.59,0,0,1-3.27.9A7.47,7.47,0,0,1,186.83,284.83Z"/><path class="cls-8" d="M209.34,268.29l.5,16.45-3.31.1v-1.37a4.57,4.57,0,0,1-3.68,1.66,6.07,6.07,0,0,1-3.07-.66,5.49,5.49,0,0,1-2.21-2.09,6.65,6.65,0,0,1-.91-3.17,6.56,6.56,0,0,1,.68-3.26,5.53,5.53,0,0,1,2.07-2.22,6.25,6.25,0,0,1,3-.84,4.53,4.53,0,0,1,3.61,1.33l-.17-5.79Zm-3.87,13a3.27,3.27,0,0,0,.79-2.43,3.31,3.31,0,0,0-.93-2.38,3.12,3.12,0,0,0-4.37.13,3.76,3.76,0,0,0,.14,4.81,2.93,2.93,0,0,0,2.22.84,2.89,2.89,0,0,0,2.15-.95Z"/></g></g></g></svg>