<svg xmlns="http://www.w3.org/2000/svg" viewBox="0 0 368.2 368.2"><defs><style>.cls-1{fill:#fcf8d0;}.cls-2{fill:#f16f62;}.cls-3{fill:#c5e0a5;}.cls-4{opacity:0.75;}.cls-5{fill:#ba5c58;}.cls-6,.cls-8{fill:#fcd736;}.cls-6{opacity:0.5;}.cls-7{fill:#4e5058;}.cls-9{fill:#519657;}.cls-10{fill:#ffb74d;}.cls-11{fill:#78909c;}</style></defs><title>rush-logo-v2.0</title><g id="Layer_2" data-name="Layer 2"><g id="Layer_1-2" data-name="Layer 1"><circle class="cls-1" cx="184.1" cy="184.1" r="184.1"/><path class="cls-2" d="M184.21,341.83a157.73,157.73,0,1,1,39.3-310.42c84.2,21.73,135,107.91,113.28,192.1A157.61,157.61,0,0,1,184.21,341.83Z"/><path class="cls-3" d="M184,31.37A152.72,152.72,0,1,1,36.25,145.94,153,153,0,0,1,184,31.37m0-10h0A162.58,162.58,0,0,0,26.57,143.44,162.7,162.7,0,0,0,143.44,341.63,162.52,162.52,0,0,0,341.63,224.76,162.7,162.7,0,0,0,224.76,26.57,163.24,163.24,0,0,0,184,21.37Z"/><g class="cls-4"><path class="cls-2" d="M184,341.8a156,156,0,0,1-98.26-34.44c-68-54.23-79.13-153.65-24.9-221.62a157.68,157.68,0,0,1,221.62-24.9c68,54.24,79.14,153.65,24.9,221.62A157,157,0,0,1,184,341.8Z"/><path class="cls-3" d="M184.2,31.4A152.7,152.7,0,1,1,64.75,88.86,152,152,0,0,1,184.2,31.4m0-10v0A162,162,0,1,0,237,30.2a162,162,0,0,0-52.8-8.8Z"/><circle class="cls-5" cx="184.1" cy="184.1" r="125.97"/><path class="cls-6" d="M112.16,138.53c-5-2.93-6.73-5.89-5.69-7.66s4.47-1.67,9.45,1.26,7.78,7.43,7.14,8.51S117.14,141.46,112.16,138.53Z"/><path class="cls-6" d="M124.17,123.2c-3.91-4.25-4.72-7.58-3.21-9s4.76-.3,8.66,3.94,5.27,9.35,4.35,10.2S128.07,127.45,124.17,123.2Z"/><path class="cls-6" d="M140.37,110.86c-2.75-5.07-2.72-8.49-.92-9.47s4.68.87,7.43,5.94,2.82,10.34,1.72,10.94S143.12,115.92,140.37,110.86Z"/><path class="cls-6" d="M159.06,101.88c-1.53-5.56-.73-8.88,1.24-9.42s4.37,1.9,5.9,7.46.4,10.72-.81,11S160.59,107.44,159.06,101.88Z"/><path class="cls-6" d="M178.73,96.88c-.16-5.77,1.41-8.81,3.46-8.87s3.79,2.89,3.95,8.66-2.16,10.52-3.42,10.55S178.89,102.65,178.73,96.88Z"/><path class="cls-6" d="M197.86,96.26c1.5-5.59,3.88-8.06,5.86-7.53s2.81,3.86,1.32,9.44-5.08,9.48-6.29,9.16S196.37,101.84,197.86,96.26Z"/><path class="cls-6" d="M248.46,238.58c4,4.21,7.24,5.25,8.73,3.85s.64-4.73-3.32-8.94-9-5.94-9.88-5.07S244.5,234.37,248.46,238.58Z"/><path class="cls-6" d="M262.36,221.06c5.1,2.71,8.53,2.64,9.49.83s-.91-4.68-6-7.38-10.39-2.74-11-1.63S257.25,218.36,262.36,221.06Z"/><path class="cls-6" d="M269.59,201.37c5.72.87,8.93-.33,9.24-2.35s-2.41-4.12-8.12-5-10.71.86-10.9,2.1S263.88,200.5,269.59,201.37Z"/><path class="cls-6" d="M270.53,180.21c5.71-.89,8.42-3,8.1-5s-3.53-3.21-9.24-2.32-10,4-9.77,5.28S264.82,181.1,270.53,180.21Z"/><path class="cls-6" d="M265.56,158.66c5.3-2.32,7.38-5,6.56-6.92s-4.23-2.2-9.53.11-8.61,6.44-8.11,7.6S260.26,161,265.56,158.66Z"/><path class="cls-6" d="M107,212.46c-5.71.91-8.41,3-8.09,5s3.54,3.2,9.25,2.29,10-4.06,9.76-5.3S112.71,211.56,107,212.46Z"/><path class="cls-6" d="M113.73,234.27c-5.12,2.7-7,5.56-6,7.38s4.38,1.88,9.49-.81,8.12-7,7.53-8.16S118.84,231.58,113.73,234.27Z"/><path class="cls-6" d="M125.65,251.38c-3.93,4.23-4.76,7.56-3.26,8.95s4.76.33,8.69-3.89,5.33-9.33,4.41-10.19S129.59,247.15,125.65,251.38Z"/><path class="cls-6" d="M142.23,263.81c-2.49,5.22-2.27,8.64-.42,9.52s4.64-1.11,7.12-6.33,2.28-10.5,1.14-11S144.71,258.59,142.23,263.81Z"/><path class="cls-6" d="M162.7,271.69c-1.07,5.68,0,8.94,2,9.32s4.21-2.26,5.28-7.94-.47-10.74-1.7-11S163.78,266,162.7,271.69Z"/></g><path class="cls-7" d="M166,155.81c-.51,1.24-1,2.48-1.5,3.73a221.67,221.67,0,0,0-10.74,38.28v.09c-.33,1.52-.71,3.74-1.14,6.82s-.8,6.21-1.13,9.48l-.06.68c1.08-3.42,2.49-8,4.41-13.88.61-1.9,1.32-4,2.16-6.44l.45-1.3c1-2.89,2.12-6,3.26-9.24s2.28-6.61,3.44-10.09,2.11-6.71,3-10c.47-1.9,1.1-4.19,1.88-6.81s1.78-5.57,2.95-8.58c.38-1,.79-2,1.22-3a3.8,3.8,0,0,0-.57-.68,151.59,151.59,0,0,0-1.37-1.68,5.48,5.48,0,0,0-.34-.46l-.13.23C171,144.32,168.81,149.08,166,155.81Z"/><path class="cls-7" d="M336.8,184.11a152,152,0,0,0-24.18-82.49,143.89,143.89,0,0,0-21,19c-4.23,4.73-8,9.34-11.3,13.64s-6.32,8.64-9.09,13c-.54.85-1.08,1.71-1.61,2.58,24.67-23.3,36.55-23.74,41.64-23a10.53,10.53,0,0,1,2.36.72c3.1,1.34,5.54,4.2,7.23,8.41a36.2,36.2,0,0,1,2.23,13.83c0,.8,0,1.61,0,2.41l-2.19,1.36a97.88,97.88,0,0,0-14.95,11.89A143.8,143.8,0,0,0,291.15,182a129.25,129.25,0,0,0-10.94,16.68,52.35,52.35,0,0,0-4.71,10.66h0a1.41,1.41,0,0,0,.55-.07,5.93,5.93,0,0,1,2.3-.59,2.85,2.85,0,0,1,.71.12l1.69.59c.07.8.15,1.6.22,2.4a24.06,24.06,0,0,1,.16,3.35,11.42,11.42,0,0,1-.27,2.11,7.68,7.68,0,0,1-3.61,4.76,33.55,33.55,0,0,1-4.23,2.41c-1.5.73-3,1.4-4.37,2a9.18,9.18,0,0,1-3.29.85,4.2,4.2,0,0,1-.81-.08,6.11,6.11,0,0,1-3.61-2.76,15.9,15.9,0,0,1-2.17-4.9,27.68,27.68,0,0,1-.9-5.74,27.29,27.29,0,0,1,.43-6.4,58.78,58.78,0,0,1,3.18-10.26,154.14,154.14,0,0,1,6.58-14.44,191.77,191.77,0,0,1,10.19-17.39c1.36-2.07,2.77-4.13,4.21-6.16a88.56,88.56,0,0,0-8.42,7.46A131.79,131.79,0,0,0,260,183.41a154,154,0,0,0-21.24,43.3,17.91,17.91,0,0,1-1.68,3.83c-.69,1.18-1.63,2.54-3,2.62H234c-1.4,0-2.6-1.33-3.57-4a27,27,0,0,1-1.2-5c-.26-1.65-.48-3.29-.66-4.87a26.86,26.86,0,0,1-.13-5.46,148.82,148.82,0,0,1,3-18.59A195.57,195.57,0,0,1,238,172.62a236,236,0,0,1,10.42-24.79c2.23-4.57,4.65-9.13,7.25-13.64l-.34-.63c-.15-.27-.29-.54-.44-.8s-.29-.54-.44-.81l-.43-.8c-.14-.28-.29-.55-.44-.81s-.29-.55-.44-.81-.29-.55-.43-.81l-.44-.82-.27-.5a21.4,21.4,0,0,1-.14,4.66c0,.16-.06.33-.08.49s-.12.32-.17.47c-1.05,2.91-2.34,6-3.81,9.11s-2.94,6-4.4,8.56a72,72,0,0,1-4.19,6.64c-1.85,2.54-3.43,3.8-5,3.95h-.52a4.09,4.09,0,0,1-3.11-2.24,9.67,9.67,0,0,1-.81-6.12,2,2,0,0,0,0-.24c0-.08,0-.16.05-.24a15.72,15.72,0,0,1,1.18-3.15c.46-1,1-2,1.53-3.23s1.07-2.26,1.59-3.42a14.87,14.87,0,0,0,.86-2.25c.06-.21.11-.4.15-.59-2.19,1.25-4.63,4.39-7,9.31-3.1,6.45-5.92,15.7-7.92,27.57l.43-.06c1.43-.2,2.84-.38,4.24-.53l2.91-.33c.17,1.38.34,2.76.52,4.13a12.39,12.39,0,0,1-.19,3.56,12.62,12.62,0,0,1-1.71,4.95l-.48.72-.66.32c-1.82.89-3.43,1.75-4.66,2.47a17.05,17.05,0,0,0-2.35,1.6c-.1.08-.17.16-.23.21s-.06.35-.09.65c-.13,1.14-.23,2.2-.3,3.24-.08,1.24-.22,2.76-.39,4.54-1.21,12.86-3.55,23.68-7.13,32.29s-8.17,14.43-14.18,17.39l-.2.1-.23,0-.4,0a6.92,6.92,0,0,1-3.93-1.18A17.6,17.6,0,0,1,187,247a28.93,28.93,0,0,1-3.68-5.75,31.45,31.45,0,0,1-2.09-5.51,6.79,6.79,0,0,1-.37,1.28,2.42,2.42,0,0,1-1.36,1.57,4,4,0,0,1-1.18.19,6.54,6.54,0,0,1-1.53-.14,14.83,14.83,0,0,1-3.13-1,26.4,26.4,0,0,1-3.38-1.8,27,27,0,0,1-3.38-2.52l-.25-.22-.23-.27a24.72,24.72,0,0,1-5-11l-.11.35c-1,3.36-2,6.72-2.85,10-1,3.49-1.58,5.79-1.94,7.1l0,.09a.19.19,0,0,1,0,.08,40.52,40.52,0,0,1-2.24,5.6,7.34,7.34,0,0,1-2.32,3l-.14.08-.14,0a6.51,6.51,0,0,1-1.53.24,8.75,8.75,0,0,1-2.91-.4,14.39,14.39,0,0,1-4.83-2.69,23.63,23.63,0,0,1-4.8-5.46,29.39,29.39,0,0,1-3.83-9l-.16-.61c0-.2,0-.4-.07-.6-.45-3.79-.72-6.84-.85-9.32a81.74,81.74,0,0,1,0-8.43c.16-3.36.48-7.2,1-11.59-.67,1.92-1.38,3.77-2.12,5.52-.28.64-.55,1.28-.82,1.93l-1.81-1a23.32,23.32,0,0,1-7.66-7.66,38.42,38.42,0,0,1-2.37-4.12q-3.39,5.61-5.77,10.39a71.7,71.7,0,0,0-5,13,81.87,81.87,0,0,0-2.47,14.62c-.39,4.81-.6,10.64-.47,17.77h0c.3.2.62.43.9.58s.63.43.9.58.64.43.91.58.63.43.91.58.62.43.9.58.63.42.9.58.63.42.9.57.63.42.9.58.63.42.9.57.63.42.9.57.62.42.9.57.62.42.89.57.62.41.89.57.63.41.9.56.62.42.89.56.62.42.89.57.62.41.89.56.61.41.88.56.62.41.89.56.61.41.88.55.62.41.88.56.62.41.89.55.61.41.88.56.61.4.87.55.61.4.88.55.61.4.88.55.61.4.87.54.61.4.88.55.6.4.87.54.6.4.87.55.6.39.87.54.6.39.86.54.61.39.87.54.6.39.87.53.6.4.86.54.6.39.86.54.6.39.86.53.6.39.86.53.6.39.86.53.6.39.86.53.59.39.85.53.6.39.86.53.59.38.85.52a9.31,9.31,0,0,0,.85.52c.29.19.59.39.85.53s.59.38.85.52.59.38.85.52.58.38.84.52.59.38.85.52.58.38.84.51.58.38.84.52.58.37.84.51.58.38.84.51.58.38.83.51.59.38.84.51a9,9,0,0,0,.84.51c.28.18.57.37.83.51s.58.37.83.5.58.38.83.51.58.37.83.5a9.62,9.62,0,0,0,.83.5c.28.18.57.37.82.5s.58.37.83.5.57.37.82.5.57.37.82.5.57.36.82.49.57.37.82.5.57.36.82.49.56.36.81.49a8.41,8.41,0,0,0,.82.49c.28.18.56.36.81.49s.57.36.81.49.57.36.81.49.57.36.81.48.56.36.81.49.56.35.8.48a8.13,8.13,0,0,0,.81.48c.28.18.56.36.8.48s.56.36.8.48.56.36.8.48.56.35.8.48.56.35.8.47.55.35.79.48.56.35.8.47.55.35.79.47a15464972976067.6,15464972976067.6,0,0,1,1.58.94,15464972976085.87,15464972976085.87,0,0,0,1.58.94c.27.17.54.34.78.47s.55.34.79.46.54.34.78.46a7.69,7.69,0,0,0,.78.47c.27.17.54.34.78.46s.54.34.78.46.54.34.77.46.54.34.78.46a8.37,8.37,0,0,0,.77.45c.27.17.54.34.77.46a8.37,8.37,0,0,0,.77.45c.27.17.54.34.77.46s.54.33.77.45.53.33.77.45.53.33.76.45.53.33.76.45.53.33.77.45.53.33.76.44.53.33.76.45a6.88,6.88,0,0,0,.75.44c.27.17.53.33.76.45s.52.32.75.44l.75.44c.27.16.53.32.76.44s.52.32.75.44.52.32.74.43a8,8,0,0,0,.75.44c.26.17.52.32.75.44s.51.32.74.43a7.66,7.66,0,0,0,.74.43,7.92,7.92,0,0,0,.74.44c.26.16.52.32.74.43s.51.32.74.43.51.32.73.43.52.31.74.42a7.6,7.6,0,0,0,.73.43c.26.16.51.32.73.43s.51.31.73.42a7.36,7.36,0,0,0,.73.42,7.6,7.6,0,0,0,.73.43,8.24,8.24,0,0,0,.72.42c.26.16.51.31.73.42a14439459991793.8,14439459991793.8,0,0,1,1.44.84,6.13,6.13,0,0,0,.72.41,8.24,8.24,0,0,0,.72.42,7,7,0,0,0,.71.41c.26.16.5.31.72.42a6.05,6.05,0,0,0,.71.41,43257470608353.3,43257470608353.3,0,0,1,2.13,1.23,6.05,6.05,0,0,0,.71.41,6.93,6.93,0,0,0,.7.41,7.91,7.91,0,0,0,.71.41,5.81,5.81,0,0,0,.7.4,6.93,6.93,0,0,0,.7.41,75.56,75.56,0,0,1,1.4.81,7.5,7.5,0,0,0,.69.4,7.58,7.58,0,0,0,.7.4,5.74,5.74,0,0,0,.69.4,7.5,7.5,0,0,0,.69.4c.25.15.48.3.69.4a7.27,7.27,0,0,0,.69.39,6.58,6.58,0,0,0,.68.4c.25.15.48.29.69.39a6.58,6.58,0,0,0,.68.4c.25.15.48.29.68.39a5.06,5.06,0,0,0,.69.39,6.52,6.52,0,0,0,.67.4,7.19,7.19,0,0,0,.68.39l.5.29A152.75,152.75,0,0,0,336.8,184.11Z"/><path class="cls-7" d="M141.38,164.11a.69.69,0,0,0-.13-.11,2.42,2.42,0,0,0-.8-.82,2.33,2.33,0,0,0-.8-.82,2.45,2.45,0,0,0-.8-.83,2.51,2.51,0,0,0-.8-.82,2.48,2.48,0,0,0-.81-.83,2.35,2.35,0,0,0-.71-.76,80.68,80.68,0,0,0-2.3,19c.06,6.86.88,9.06,1,9.43.07.18.15.35.22.53.94-5.21,2.13-10.6,3.58-16.07C139.76,169.39,140.55,166.74,141.38,164.11Z"/><path class="cls-7" d="M184.38,180.17A170.32,170.32,0,0,0,179.76,199a83.15,83.15,0,0,0-1.47,16.5,48.44,48.44,0,0,0,.48,6.56c.28,1.83.57,3.31.85,4.43.36,1.45.63,2.32.79,2.82.05.13.08.25.12.39A66.3,66.3,0,0,1,182,215.12a63.85,63.85,0,0,1,5.46-15.61,47.41,47.41,0,0,1,8.84-12.29,24.39,24.39,0,0,1,9.52-6q.3-3.65.33-7.13c0-3.45.06-6.78.07-9.9s.08-6.39.17-9.55q.07-2.5.36-5a5.58,5.58,0,0,0-.38-.47,3.67,3.67,0,0,0-.59-.8,4,4,0,0,0-.59-.8,3.85,3.85,0,0,0-.59-.8,4.19,4.19,0,0,0-.59-.81,3.86,3.86,0,0,0-.6-.81,3.81,3.81,0,0,0-.59-.81,3.86,3.86,0,0,0-.6-.81,3.49,3.49,0,0,0-.59-.81,3.86,3.86,0,0,0-.6-.81,4.26,4.26,0,0,0-.59-.82,4.2,4.2,0,0,0-.6-.82,3.28,3.28,0,0,0-.2-.31c-2.81,6.74-5.57,13.53-8.21,20.2C188.56,167.3,186.3,173.89,184.38,180.17Z"/><path class="cls-7" d="M195.33,224.32a32.15,32.15,0,0,0-1.16,5.66q.95-1.53,1.86-3.36a79.51,79.51,0,0,0,4-9.7c1-2.95,1.93-6,2.73-9.26a58.56,58.56,0,0,0-3.58,6.47A66,66,0,0,0,195.33,224.32Z"/><path class="cls-7" d="M299.91,80.6A190.54,190.54,0,0,1,322.7,64a166.17,166.17,0,0,1,23.19-12l2.06-.85,1.94.85a22.27,22.27,0,0,1,6,3.92,28.39,28.39,0,0,1,4.49,5.21c.3.45.57.9.83,1.36a23.45,23.45,0,0,0-1.26-2.14,28.73,28.73,0,0,0-4.55-5.2,22.11,22.11,0,0,0-6-3.89l-1.95-.84-2.05.86a165,165,0,0,0-23.11,12.16,187.64,187.64,0,0,0-22.68,16.76c-.67.57-1.33,1.16-2,1.74l.34.39Z"/><path class="cls-7" d="M232,106.23l.32-.22Z"/><path class="cls-7" d="M137.09,156.8l0,.12v0a5.32,5.32,0,0,1,.81.83,5.25,5.25,0,0,1,.8.83,4.86,4.86,0,0,1,.8.83,4.52,4.52,0,0,1,.8.83,4.8,4.8,0,0,1,.8.82,5.67,5.67,0,0,1,.8.82l.16.15c.22-.67.45-1.34.68-2l-.23-.23a6.84,6.84,0,0,0-.79-.82,7,7,0,0,0-.8-.83,39120290993609.74,39120290993609.74,0,0,1-1.6-1.66,39120290993495.14,39120290993495.14,0,0,1-1.6-1.66,7.12,7.12,0,0,0-.8-.84,9,9,0,0,0-.8-.83,6.84,6.84,0,0,0-.79-.82,8.49,8.49,0,0,0-.81-.87,10.77,10.77,0,0,1,1.6,2.78Z"/><path class="cls-7" d="M231.63,329.12a7.19,7.19,0,0,1-.68-.39c-.21-.11-.44-.24-.68-.39s-.44-.24-.69-.4a7.19,7.19,0,0,1-.68-.39c-.21-.11-.45-.24-.69-.39s-.44-.25-.69-.4-.45-.25-.69-.4a6.64,6.64,0,0,1-.69-.4,5.74,5.74,0,0,1-.69-.4,5.06,5.06,0,0,1-.69-.4,5.14,5.14,0,0,1-.7-.4,5.81,5.81,0,0,1-.7-.4c-.22-.11-.45-.25-.7-.4s-.45-.25-.7-.41a7.58,7.58,0,0,1-.7-.4,6.64,6.64,0,0,1-.7-.41,7.67,7.67,0,0,1-.71-.4c-.22-.11-.46-.26-.71-.41a7.83,7.83,0,0,1-.7-.41c-.22-.11-.47-.26-.72-.41a7.91,7.91,0,0,1-.71-.41c-.22-.11-.46-.26-.71-.41s-.46-.26-.72-.42a7.91,7.91,0,0,1-.71-.41,8.24,8.24,0,0,1-.72-.42c-.22-.11-.46-.25-.72-.41a14439459991794.9,14439459991794.9,0,0,0-1.44-.84,140,140,0,0,0-1.45-.84c-.22-.11-.47-.26-.73-.42a8.24,8.24,0,0,1-.72-.42,8.4,8.4,0,0,1-.74-.42l-.73-.43c-.22-.11-.47-.26-.73-.42s-.48-.27-.73-.43-.48-.27-.74-.43-.48-.27-.74-.43a6.62,6.62,0,0,1-.74-.43,6.62,6.62,0,0,1-.74-.43c-.23-.12-.48-.27-.74-.43s-.49-.27-.75-.43-.48-.28-.74-.44-.49-.27-.75-.43-.48-.28-.74-.44a7.63,7.63,0,0,1-.75-.44,7.63,7.63,0,0,1-.75-.44,7.55,7.55,0,0,1-.76-.43c-.23-.12-.49-.28-.75-.44a7.92,7.92,0,0,1-.76-.45c-.23-.12-.49-.28-.76-.44s-.49-.28-.76-.45-.49-.28-.76-.44-.49-.28-.76-.45-.49-.28-.76-.44-.51-.3-.79-.47-.45-.25-.74-.43-.5-.29-.77-.45-.5-.29-.77-.46-.5-.28-.77-.45-.5-.29-.77-.45-.51-.29-.77-.46-.51-.29-.78-.46-.51-.28-.78-.45-.5-.29-.78-.46-.52-.3-.79-.47-.48-.28-.78-.47a7.3,7.3,0,0,1-.77-.45c-.25-.13-.52-.3-.8-.47s-.47-.27-.77-.46-.51-.29-.79-.46-.53-.31-.81-.48l-.8-.48a7.69,7.69,0,0,1-.75-.45c-.25-.13-.52-.3-.8-.47s-.51-.29-.78-.46-.51-.3-.81-.49-.51-.29-.82-.48-.49-.28-.8-.48-.48-.27-.78-.46-.51-.3-.78-.47-.51-.29-.81-.48-.5-.29-.8-.48-.53-.31-.84-.5-.5-.29-.81-.49a7.69,7.69,0,0,1-.75-.45c-.23-.11-.52-.3-.81-.48s-.52-.3-.82-.49-.53-.31-.83-.5-.51-.3-.82-.49-.48-.28-.76-.45l-.06-.05c-.24-.13-.51-.29-.78-.47s-.53-.3-.83-.49-.52-.31-.82-.5-.54-.31-.84-.51-.53-.3-.84-.5-.48-.28-.78-.47l-.8-.48-.07,0-.78-.48c-.25-.13-.56-.33-.86-.52s-.49-.28-.77-.47l-.07,0c-.24-.13-.51-.3-.77-.47l-.07,0c-.24-.13-.51-.3-.79-.47l-.83-.51c-.24-.13-.54-.32-.84-.51s-.5-.3-.79-.48l-.09-.05c-.23-.13-.49-.29-.75-.46l-.08-.06c-.25-.13-.51-.3-.78-.47l-.07,0c-.24-.13-.51-.3-.78-.47l-.06,0c-.24-.13-.51-.31-.78-.48l-.06,0c-.25-.13-.53-.31-.81-.49s-.51-.3-.79-.48l-.09-.06c-.24-.13-.5-.29-.76-.46l-.09-.06-.76-.46-.09-.06c-.24-.13-.51-.31-.79-.48l-.06,0c-.25-.14-.53-.32-.81-.5s-.55-.33-.86-.52-.5-.31-.79-.49l-.1-.06c-.23-.13-.5-.3-.76-.47L140,275c-.25-.13-.52-.31-.79-.48l-.07-.05c-.24-.13-.52-.31-.79-.48l-.07-.05c-.24-.13-.5-.3-.77-.47l-.09-.06c-.24-.13-.5-.3-.77-.47l-.09-.06c-.24-.13-.51-.3-.78-.48l-.08-.05-.78-.48-.09-.06c-.24-.13-.5-.3-.77-.47l-.09-.06c-.23-.13-.49-.3-.75-.47l-.12-.07c-.23-.13-.49-.3-.75-.47l-.12-.07c-.23-.13-.49-.3-.75-.47l-.11-.07c-.24-.13-.5-.3-.77-.47l-.11-.07c-.24-.14-.51-.31-.78-.49l-.09-.05-.77-.48-.1-.07c-.23-.13-.49-.29-.75-.46l-.13-.08c-.23-.13-.49-.3-.75-.47l-.12-.08c-.24-.13-.5-.3-.76-.47l-.12-.08c-.23-.13-.49-.29-.75-.46l-.13-.09c-.24-.13-.51-.31-.78-.48l-.1-.07c-.23-.13-.49-.3-.75-.47l-.13-.08-.77-.48-.11-.08c-.24-.13-.49-.29-.75-.46l-.14-.09-.79-.49-.1-.07c-.24-.13-.5-.31-.77-.48l-.11-.08c-.24-.13-.51-.31-.77-.48l-.12-.08c-.23-.13-.48-.29-.74-.46l-.15-.1c-.24-.13-.5-.3-.77-.48l-.12-.08c-.24-.14-.51-.31-.78-.49l-.12-.07c-.23-.14-.5-.31-.76-.49l-.13-.08c-.23-.13-.5-.3-.76-.48l-.14-.09c-.23-.13-.49-.3-.75-.47l-.14-.09c-.23-.14-.49-.3-.74-.47l-.16-.1c-.23-.14-.49-.3-.74-.47l-.16-.1-.74-.47-.16-.1c-.24-.14-.5-.32-.77-.49l-.13-.09c-.24-.14-.51-.31-.78-.49l-.12-.09c-.23-.13-.49-.3-.75-.47l-.16-.1-.75-.48-.15-.1c-.24-.14-.5-.3-.75-.48l-.16-.1c-.23-.13-.48-.3-.73-.47l-.16-.1-.4-.24c0,.45,0,.9,0,1.36l-2-.68a14.36,14.36,0,0,1-3.61-2,42.71,42.71,0,0,1-4-3.24,51.07,51.07,0,0,1-3.86-3.94,25.44,25.44,0,0,1-2.3-3,24.41,24.41,0,0,0,3.62,5.24A48.94,48.94,0,0,0,97,250.73a43.28,43.28,0,0,0,4,3.19,14.63,14.63,0,0,0,3.6,2l2,.64c0-.11,0-.23,0-.35l.41.25.1.07c.28.19.55.36.8.51l.11.07.8.51.1.06.8.51.1.07c.28.18.55.36.81.5l.09.07c.28.18.55.36.81.5l.09.07c.28.18.55.36.81.5l.09.07.8.5.1.06.8.51.09.06c.28.18.55.36.81.5l.09.06.8.51.09.05c.25.17.52.35.81.51l.08.06c.28.18.55.35.81.5l.08.05c.25.17.52.35.81.51l.08.05c.28.18.55.36.81.51l.08.05c.27.18.55.36.8.5l.08.06c.25.16.53.34.81.5l.08,0c.25.16.52.34.81.5l.07.05.81.51.08.05c.24.16.52.33.8.5l.07,0c.25.17.53.35.81.51l.07,0,.81.51.07,0c.25.16.53.34.81.5l.07.05c.25.16.52.34.81.5l.07,0c.24.16.52.34.8.5l.06,0c.25.16.53.34.82.51l.06,0c.25.16.52.34.81.5l.06,0c.25.16.53.34.81.5l.06,0,.81.5.06,0c.25.16.52.34.81.5l.05,0c.25.16.53.34.82.5l.05,0c.25.16.53.34.81.5l.06,0c.24.16.52.34.81.5l.05,0c.24.16.52.34.81.5l0,0c.25.16.53.34.81.5l.05,0c.25.16.53.34.81.5l0,0c.25.16.53.34.81.5l0,0c.25.16.53.34.82.5l0,0c.25.16.53.34.81.5l0,0c.25.16.53.34.82.5l0,0,.81.49,0,0,.81.49,0,0c.25.16.53.34.82.5l0,0,.81.49,0,0c.25.16.53.34.82.5l0,0c.25.16.53.34.82.5h0c.26.16.54.34.82.5l0,0c.25.16.53.34.82.49l0,0c.25.16.53.34.82.5h0c.25.16.53.34.82.5h0c.25.16.53.34.82.5h0c.25.16.53.34.82.49h0c.25.16.53.34.82.5h0c.25.16.53.34.82.5h0c.25.16.53.34.82.5h0a8.12,8.12,0,0,0,.82.5h0c.25.16.53.34.82.5h0c.26.16.54.34.83.5s.54.34.83.5.54.34.83.49.54.34.82.5.54.34.83.5.53.33.82.49.53.34.82.49.53.34.82.49.53.34.82.49.53.34.81.49.53.34.82.49l.81.49c.25.16.53.33.81.48l.81.49c.25.16.53.33.81.48s.53.33.81.48.53.33.81.48.52.33.8.48.53.33.81.48.52.33.8.48.52.32.8.47.53.33.8.48.52.32.79.47.54.33.8.47.53.33.8.47a9.12,9.12,0,0,0,.79.47c.26.16.52.33.79.47s.52.33.79.47.52.32.79.46.52.33.79.47.52.32.78.46.52.32.79.46.51.32.78.47l.78.46.78.46c.25.15.51.31.78.45a8.42,8.42,0,0,0,.78.46c.24.15.5.31.77.46s.51.31.78.45.5.31.77.45.5.31.77.45.5.31.77.46l.77.45c.23.14.49.3.76.44s.5.31.77.45.51.32.76.45.51.31.76.44.51.32.76.45.51.31.76.44.51.31.76.44.51.31.76.44.5.31.75.44.5.31.75.44.5.31.76.44.49.3.75.44.49.3.74.43l.75.44c.24.14.49.3.75.43s.49.3.74.43.49.3.74.43.49.3.74.43.49.3.74.43.49.3.74.43.48.29.74.42.48.3.73.43.48.29.74.42a6.38,6.38,0,0,0,.73.43c.22.14.48.29.73.42s.48.29.73.42.48.29.72.42.48.29.73.42.48.29.72.42.48.29.73.42.47.29.72.41.47.29.72.42.47.29.71.41.48.29.72.41.47.29.71.42.47.28.72.41.46.28.71.41.46.28.71.41.46.28.71.4a6.94,6.94,0,0,0,.71.41c.21.14.46.28.7.41s.46.28.7.4.46.28.71.41.45.27.7.4a7.59,7.59,0,0,0,.7.4,7.38,7.38,0,0,0,.69.4,7.59,7.59,0,0,0,.7.4c.21.13.45.27.7.4s.44.27.69.4.49.29.69.4.44.27.69.39.44.27.69.4a7.55,7.55,0,0,0,.69.39,6.6,6.6,0,0,0,.68.39l.4.24,2.21-.71Z"/><path class="cls-7" d="M200.89,136.83l-.43,1a8.17,8.17,0,0,1,.5.7,5.77,5.77,0,0,1,.59.81,5.94,5.94,0,0,1,.6.82,6.42,6.42,0,0,1,.59.81,6.89,6.89,0,0,1,.6.82,5.24,5.24,0,0,1,.59.81,5.24,5.24,0,0,1,.59.81,5.24,5.24,0,0,1,.59.81,5,5,0,0,1,.59.8,5.77,5.77,0,0,1,.59.81,5.68,5.68,0,0,1,.59.8,2.48,2.48,0,0,1,.19.26c.13-.85.27-1.69.44-2.53v0l-.1-.12a7.6,7.6,0,0,0-.59-.81,7.78,7.78,0,0,0-.58-.8c-.19-.28-.38-.55-.59-.81s-.38-.55-.59-.81a9.41,9.41,0,0,0-.6-.81,6.81,6.81,0,0,0-.59-.82,9.3,9.3,0,0,0-.59-.81,8.13,8.13,0,0,0-.59-.82,7.81,7.81,0,0,0-.6-.82c-.18-.28-.38-.55-.59-.82a7.81,7.81,0,0,0-.6-.82,9.45,9.45,0,0,0-.59-.82,73.63,73.63,0,0,0-1.25-1.71,8.73,8.73,0,0,1,.87,1.66C200.26,135.22,200.58,136,200.89,136.83Z"/><path class="cls-7" d="M173.42,140.1l-.48.86c.09.12.19.24.28.37a151.59,151.59,0,0,0,1.37,1.68,6.62,6.62,0,0,1,.47.56l.86-1.91c-.13-.16-.25-.32-.38-.47-.22-.3-.45-.58-.68-.84s-.45-.58-.68-.84-.46-.59-.69-.85a8.35,8.35,0,0,0-.69-.84,10.12,10.12,0,0,0-.68-.85,10.43,10.43,0,0,0-.7-.86c-.17-.24-.36-.45-.55-.67a10.63,10.63,0,0,1,.8,1.31Z"/><path class="cls-7" d="M118.82,162.71c.15-.4.31-.81.47-1.21-.19-.19-.38-.38-.58-.56s-.56-.57-.86-.84-.56-.56-.87-.84-.55-.56-.86-.84-.6-.6-.91-.88a14,14,0,0,1,1.75,2.23Z"/><path class="cls-7" d="M279.26,100.41a189.51,189.51,0,0,0-16.53,22.06c-1.65,2.53-3.27,5.15-4.85,7.81l-.43-.8c-.14-.28-.29-.54-.43-.8s-.29-.55-.44-.81-.28-.55-.43-.81-.29-.54-.43-.81-.29-.54-.44-.81-.29-.55-.43-.82-.29-.54-.44-.81-.28-.55-.43-.81-.29-.55-.44-.83l-.43-.81-.44-.82c-.14-.28-.29-.55-.44-.83s-.29-.55-.43-.82l-.44-.82c-.14-.29-.29-.56-.44-.83s-.28-.54-.44-.83-.29-.56-.44-.83l-.43-.83-.45-.83c-.12-.25-.28-.54-.43-.84l-.44-.83c-.13-.25-.29-.54-.44-.84l-.45-.83q-.26-.52-.51-1a47.07,47.07,0,0,1,2.42,5.68,51.52,51.52,0,0,1,1.86,6.54c.13.22.28.51.43.8s.29.52.44.82l.44.82.44.81.43.82c.17.3.31.55.44.81s.3.56.44.81l.43.81c.13.23.28.52.44.82s.28.51.43.8.3.54.44.81.28.51.43.8.25.47.39.73c1.92-3.26,3.93-6.49,6-9.66a189.65,189.65,0,0,1,16.66-21.94,197.08,197.08,0,0,1,18.44-18.35l-.34-.39A197.36,197.36,0,0,0,279.26,100.41Z"/><path class="cls-7" d="M234,105l1.05-.59Z"/><path class="cls-7" d="M239.61,102.38h0l-1.05.38a27.78,27.78,0,0,0-3.5,1.61,27.58,27.58,0,0,1,3.73-1.68Z"/><path class="cls-7" d="M232.94,105.61c.24-.16.48-.32.73-.46C233.42,105.29,233.18,105.45,232.94,105.61Z"/><path class="cls-7" d="M233.43,328.18a7.19,7.19,0,0,1-.68-.39,6.52,6.52,0,0,1-.67-.4,5.06,5.06,0,0,1-.69-.39c-.2-.1-.43-.24-.68-.39a6.58,6.58,0,0,1-.68-.4c-.21-.1-.44-.24-.69-.39a6.58,6.58,0,0,1-.68-.4A7.27,7.27,0,0,1,228,325c-.21-.1-.44-.25-.69-.4a7.5,7.5,0,0,1-.69-.4,5.74,5.74,0,0,1-.69-.4,7.58,7.58,0,0,1-.7-.4,7.5,7.5,0,0,1-.69-.4,75.56,75.56,0,0,0-1.4-.81,6.93,6.93,0,0,1-.7-.41,5.81,5.81,0,0,1-.7-.4A7.91,7.91,0,0,1,221,321a6.93,6.93,0,0,1-.7-.41,6.05,6.05,0,0,1-.71-.41,14419156869391.08,14419156869391.08,0,0,0-1.42-.82,7,7,0,0,1-.71-.41,6.05,6.05,0,0,1-.71-.41c-.22-.11-.46-.26-.72-.42a7,7,0,0,1-.71-.41,8.24,8.24,0,0,1-.72-.42,6.13,6.13,0,0,1-.72-.41,14439459991793.79,14439459991793.79,0,0,0-1.44-.84c-.22-.11-.47-.26-.73-.42a8.24,8.24,0,0,1-.72-.42,7.6,7.6,0,0,1-.73-.43,7.36,7.36,0,0,1-.73-.42c-.22-.11-.47-.26-.73-.42s-.47-.27-.73-.43a7.6,7.6,0,0,1-.73-.43c-.22-.11-.48-.26-.74-.42s-.47-.27-.73-.43-.48-.27-.74-.43-.48-.27-.74-.43a7.92,7.92,0,0,1-.74-.44,7.66,7.66,0,0,1-.74-.43c-.23-.11-.48-.27-.74-.43s-.49-.27-.75-.44a8,8,0,0,1-.75-.44c-.22-.11-.48-.27-.74-.43s-.49-.28-.75-.44-.49-.28-.76-.44l-.75-.44c-.23-.12-.49-.28-.75-.44s-.49-.28-.76-.45a6.88,6.88,0,0,1-.75-.44c-.23-.12-.5-.28-.76-.45s-.5-.28-.76-.44-.5-.28-.77-.45-.49-.28-.76-.45-.5-.28-.76-.45-.5-.28-.77-.45-.5-.28-.77-.45-.5-.29-.77-.46a8.37,8.37,0,0,1-.77-.45c-.23-.12-.5-.29-.77-.46a8.37,8.37,0,0,1-.77-.45c-.24-.12-.51-.29-.78-.46s-.5-.29-.77-.46-.51-.29-.78-.46-.51-.29-.78-.46a7.69,7.69,0,0,1-.78-.47c-.24-.12-.51-.29-.78-.46s-.52-.29-.79-.46-.51-.3-.78-.47a15464972976085.87,15464972976085.87,0,0,1-1.58-.94,15464972976067.6,15464972976067.6,0,0,0-1.58-.94c-.24-.12-.52-.3-.79-.47s-.52-.3-.8-.47-.52-.3-.79-.48-.52-.3-.8-.47-.52-.31-.8-.48-.52-.3-.8-.48-.52-.3-.8-.48-.52-.3-.8-.48a8.13,8.13,0,0,1-.81-.48c-.24-.13-.52-.31-.8-.48s-.53-.31-.81-.49-.53-.31-.81-.48-.53-.31-.81-.49-.53-.31-.81-.49-.53-.31-.81-.49a8.41,8.41,0,0,1-.82-.49c-.25-.13-.53-.31-.81-.49s-.54-.31-.82-.49-.54-.32-.82-.5-.54-.31-.82-.49-.54-.32-.82-.5-.54-.32-.82-.5-.54-.32-.83-.5-.54-.32-.82-.5a9.62,9.62,0,0,1-.83-.5c-.25-.13-.54-.32-.83-.5s-.54-.32-.83-.51-.55-.32-.83-.5-.55-.33-.83-.51a9,9,0,0,1-.84-.51c-.25-.13-.55-.32-.84-.51s-.54-.32-.83-.51-.55-.33-.84-.51-.55-.33-.84-.51-.55-.33-.84-.52-.55-.33-.84-.51-.56-.34-.85-.52-.55-.33-.84-.52-.56-.33-.85-.52-.56-.34-.85-.52-.56-.34-.85-.53a9.31,9.31,0,0,1-.85-.52c-.26-.14-.56-.34-.85-.52s-.56-.34-.86-.53-.56-.34-.85-.53-.56-.34-.86-.53-.56-.34-.86-.53-.56-.34-.86-.53-.56-.34-.86-.53-.57-.35-.86-.54-.57-.35-.86-.54-.57-.34-.87-.53-.57-.35-.87-.54-.57-.35-.86-.54-.58-.35-.87-.54-.57-.35-.87-.55-.58-.35-.87-.54-.58-.35-.88-.55-.57-.35-.87-.54-.58-.36-.88-.55-.58-.36-.88-.55-.57-.36-.87-.55-.58-.36-.88-.56-.58-.35-.89-.55-.58-.36-.88-.56-.58-.36-.88-.55-.58-.36-.89-.56-.58-.36-.88-.56-.59-.37-.89-.56-.59-.37-.89-.57-.59-.36-.89-.56-.59-.37-.9-.56-.58-.37-.89-.57-.59-.37-.89-.57-.59-.37-.9-.57-.59-.37-.9-.57-.59-.37-.9-.57-.59-.38-.9-.58-.59-.37-.9-.57-.59-.38-.9-.58-.59-.37-.9-.58-.6-.37-.91-.58-.6-.37-.91-.58-.59-.38-.9-.58-.6-.38-.9-.58h0c0,.25,0,.48,0,.73,0,.52,0,1,0,1.56l.4.24.16.1c.25.17.5.34.73.47l.16.1c.25.18.51.34.75.48l.15.1.75.48.16.1c.26.17.52.34.75.47l.12.09c.27.18.54.35.78.49l.13.09c.27.17.53.35.77.49l.16.1.74.47.16.1c.25.17.51.33.74.47l.16.1c.25.17.51.33.74.47l.14.09c.26.17.52.34.75.47l.14.09c.26.18.53.35.76.48l.13.08c.26.18.53.35.76.49l.12.07c.27.18.54.35.78.49l.12.08c.27.18.53.35.77.48l.15.1c.26.17.51.33.74.46l.12.08c.26.17.53.35.77.48l.11.08c.27.17.53.35.77.48l.1.07.79.49.14.09c.26.17.51.33.75.46l.11.08.77.48.13.08c.26.17.52.34.75.47l.1.07c.27.17.54.35.78.48l.13.09c.26.17.52.33.75.46l.12.08c.26.17.52.34.76.47l.12.08c.26.17.52.34.75.47l.13.08c.26.17.52.33.75.46l.1.07.77.48.09.05c.27.18.54.35.78.49l.11.07c.27.17.53.34.77.47l.11.07c.26.17.52.34.75.47l.12.07c.26.17.52.34.75.47l.12.07c.26.17.52.34.75.47l.09.06c.27.17.53.34.77.47l.09.06.78.48.08.05c.27.18.54.35.78.48l.09.06c.27.17.53.34.77.47l.09.06c.27.17.53.34.77.47l.07.05c.27.17.55.35.79.48l.07.05c.27.17.54.35.79.48l.09.06c.26.17.53.34.76.47l.1.06c.29.18.57.37.79.49s.62.39.86.52.56.36.81.5l.06,0c.28.17.55.35.79.48l.09.06.76.46.09.06c.26.17.52.33.76.46l.09.06c.28.18.57.36.79.48s.56.36.81.49l.06,0c.27.17.54.35.78.48l.06,0c.27.17.54.34.78.47l.07,0c.27.17.53.34.78.47l.08.06c.26.17.52.33.75.46l.09.05c.29.18.56.36.79.48s.6.38.84.51l.83.51c.28.17.55.34.79.47l.07,0c.26.17.53.34.77.47l.07,0c.28.19.57.36.77.47s.61.39.86.52l.78.48.07,0,.8.48c.3.19.59.37.78.47s.62.39.84.5.61.39.84.51.6.38.82.5.59.37.83.49.54.34.78.47l.06.05c.28.17.57.35.76.45s.6.38.82.49.6.38.83.5.59.37.82.49.58.37.81.48a7.69,7.69,0,0,0,.75.45c.31.2.62.39.81.49s.62.38.84.5.59.37.8.48.59.37.81.48.54.34.78.47.6.37.78.46.62.39.8.48.62.38.82.48.6.38.81.49.54.33.78.46.55.34.8.47a7.69,7.69,0,0,0,.75.45l.8.48c.28.17.56.35.81.48s.55.34.79.46.58.37.77.46.55.34.8.47a7.3,7.3,0,0,0,.77.45c.3.19.59.38.78.47s.55.34.79.47.54.33.78.46.54.33.78.45.54.34.78.46.53.33.77.46.53.33.77.45.53.33.77.45.53.33.77.46.53.32.77.45.57.35.74.43.55.34.79.47.53.32.76.44.53.33.76.45.53.32.76.44.53.33.76.45.53.32.76.44a7.92,7.92,0,0,0,.76.45c.26.16.52.32.75.44a7.55,7.55,0,0,0,.76.43,7.63,7.63,0,0,0,.75.44,7.63,7.63,0,0,0,.75.44c.26.16.51.32.74.44s.52.32.75.43.51.32.74.44.52.31.75.43.51.31.74.43a6.62,6.62,0,0,0,.74.43,6.62,6.62,0,0,0,.74.43c.26.16.51.32.74.43s.51.31.74.43.5.31.73.43.51.31.73.42l.73.43a8.4,8.4,0,0,0,.74.42,8.24,8.24,0,0,0,.72.42c.26.16.51.31.73.42a140,140,0,0,1,1.45.84,14439459991794.9,14439459991794.9,0,0,1,1.44.84c.26.16.5.3.72.41a8.24,8.24,0,0,0,.72.42,7.91,7.91,0,0,0,.71.41c.26.16.5.31.72.42s.49.3.71.41a7.91,7.91,0,0,0,.71.41c.25.15.5.3.72.41a7.83,7.83,0,0,0,.7.41c.25.15.49.3.71.41a7.67,7.67,0,0,0,.71.4,6.64,6.64,0,0,0,.7.41,7.58,7.58,0,0,0,.7.4c.25.16.49.3.7.41s.48.29.7.4a5.81,5.81,0,0,0,.7.4,5.14,5.14,0,0,0,.7.4,5.06,5.06,0,0,0,.69.4,5.74,5.74,0,0,0,.69.4,6.64,6.64,0,0,0,.69.4c.24.15.48.29.69.4s.48.29.69.4.48.28.69.39a7.19,7.19,0,0,0,.68.39c.25.16.48.29.69.4s.47.28.68.39a7.19,7.19,0,0,0,.68.39l.13.08,2.17-.73Z"/><path class="cls-7" d="M252,127.4l.27.5.44.82c.14.26.29.53.43.81s.3.53.44.81.3.53.44.81l.43.8c.15.27.3.53.44.81s.29.53.44.8l.34.63,1.11-1.92c-.14-.26-.27-.52-.39-.73s-.31-.57-.43-.8-.29-.53-.44-.81-.31-.57-.43-.8-.31-.59-.44-.82l-.43-.81c-.14-.25-.27-.51-.44-.81s-.27-.51-.44-.81l-.43-.82-.44-.81-.44-.82c-.15-.3-.31-.58-.44-.82s-.3-.58-.43-.8c.14.65.28,1.3.39,2A32.49,32.49,0,0,1,252,127.4Z"/><path class="cls-7" d="M172.28,143.17a151.59,151.59,0,0,1,1.37,1.68,3.8,3.8,0,0,1,.57.68c.27-.65.55-1.3.84-2a6.62,6.62,0,0,0-.47-.56,151.59,151.59,0,0,1-1.37-1.68c-.09-.13-.19-.25-.28-.37-.34.58-.67,1.16-1,1.75A5.48,5.48,0,0,1,172.28,143.17Z"/><path class="cls-7" d="M136.53,159.12a2.35,2.35,0,0,1,.71.76,2.48,2.48,0,0,1,.81.83,2.51,2.51,0,0,1,.8.82,2.45,2.45,0,0,1,.8.83,2.33,2.33,0,0,1,.8.82,2.42,2.42,0,0,1,.8.82.69.69,0,0,1,.13.11c.22-.69.43-1.38.66-2.06l-.16-.15a5.67,5.67,0,0,0-.8-.82,4.8,4.8,0,0,0-.8-.82,4.52,4.52,0,0,0-.8-.83,4.86,4.86,0,0,0-.8-.83,5.25,5.25,0,0,0-.8-.83,5.32,5.32,0,0,0-.81-.83v0l-.51,2.13A.64.64,0,0,1,136.53,159.12Z"/><path class="cls-7" d="M199.62,139.88a3.28,3.28,0,0,1,.2.31,4.2,4.2,0,0,1,.6.82,4.26,4.26,0,0,1,.59.82,3.86,3.86,0,0,1,.6.81,3.49,3.49,0,0,1,.59.81,3.86,3.86,0,0,1,.6.81,3.81,3.81,0,0,1,.59.81,3.86,3.86,0,0,1,.6.81,4.19,4.19,0,0,1,.59.81,3.85,3.85,0,0,1,.59.8,4,4,0,0,1,.59.8,3.67,3.67,0,0,1,.59.8,5.58,5.58,0,0,1,.38.47c.09-.88.21-1.76.34-2.64a2.48,2.48,0,0,0-.19-.26,5.68,5.68,0,0,0-.59-.8,5.77,5.77,0,0,0-.59-.81,5,5,0,0,0-.59-.8,5.24,5.24,0,0,0-.59-.81,5.24,5.24,0,0,0-.59-.81,5.24,5.24,0,0,0-.59-.81,6.89,6.89,0,0,0-.6-.82,6.42,6.42,0,0,0-.59-.81,5.94,5.94,0,0,0-.6-.82,5.77,5.77,0,0,0-.59-.81,8.17,8.17,0,0,0-.5-.7c-.17.41-.35.82-.52,1.22Z"/><path class="cls-8" d="M91.14,238.23c-.07-2.81,0-6.51.32-11.3s.75-10.07,1.42-15.94,1.49-12,2.49-18.5q1-6.23,2.07-11.93c.33-1.75.67-3.47,1-5.14.84-4.07,1.66-7.37,2.4-9.81.4-1.32.84-2.55,1.3-3.7a33.74,33.74,0,0,1,1.65-3.66,10.76,10.76,0,0,1,1.79,0,12.23,12.23,0,0,1,1.75.28,16.19,16.19,0,0,1,3.54,1.24,17.24,17.24,0,0,1,3,1.86c.16.12.29.25.43.37a10.19,10.19,0,0,0-1.3-1.21,17.12,17.12,0,0,0-3-1.88,16.73,16.73,0,0,0-3.54-1.24,12.36,12.36,0,0,0-1.76-.28,12.08,12.08,0,0,0-1.8,0,38,38,0,0,0-2.6,6.39c-.77,2.42-1.62,5.7-2.5,9.74-1.22,5.61-2.36,11.72-3.36,18.21s-1.83,12.68-2.5,18.56-1.14,11.17-1.43,16-.39,8.52-.32,11.33a10.35,10.35,0,0,0,1.27,2c0-.27,0-.54,0-.83A5.39,5.39,0,0,1,91.14,238.23Z"/><path class="cls-8" d="M131.31,154.43l-.42-.06a6.12,6.12,0,0,0-2.89.46,5,5,0,0,0-2.62,2c-1.48,4-2.93,7.89-4.38,11.54.08.09.18.17.26.25s.35.31.51.46c1.31-3.43,2.64-7,4-10.8a4.1,4.1,0,0,1,.54-.72,5.09,5.09,0,0,1,2.53-1.93,6.21,6.21,0,0,1,2.88-.45,3.54,3.54,0,0,1,1.51.48A2.66,2.66,0,0,0,131.31,154.43Z"/><path class="cls-7" d="M120,162.2c.94-2.5,1.85-5,2.74-7.46l.12-.33.15-.27a5.82,5.82,0,0,1,.77-1.06,7.08,7.08,0,0,1,3.44-2.58A8.11,8.11,0,0,1,131,150l.6.08a5.91,5.91,0,0,1,2.87,1.45,6.29,6.29,0,0,0-3.69-2.3l-.59-.08a8,8,0,0,0-3.78.53,7.07,7.07,0,0,0-3.74,3c0,.09-.11.18-.16.28l-.12.32c-1,2.85-2.09,5.59-3.13,8.25l.28.27C119.73,161.91,119.89,162.05,120,162.2Z"/><path class="cls-7" d="M88.13,238.62c0-.33,0-.66,0-1s-.2-.46-.31-.69c0-.61,0-1.22,0-1.83-.07-2.94,0-6.64.35-11.64.2-3,.46-6.21.79-9.62.21-2.05.44-4.17.7-6.38.71-6.06,1.56-12.28,2.54-18.47.35-2.2.71-4.4,1.11-6.59.31-1.79.65-3.57,1-5.34s.68-3.5,1-5.18c1-4.57,1.79-7.77,2.5-10.09.43-1.38.91-2.73,1.4-3.95a37.94,37.94,0,0,1,1.83-4l.57-1.07,1-.05a13.2,13.2,0,0,1,2.08.05,16.23,16.23,0,0,1,2,.34,19.21,19.21,0,0,1,4.11,1.47,21.07,21.07,0,0,1,3.67,2.29c.26.2.51.42.76.64a16.67,16.67,0,0,0-1.63-1.49,20.92,20.92,0,0,0-3.69-2.3,19.25,19.25,0,0,0-4.11-1.48,16.69,16.69,0,0,0-2-.34,13.2,13.2,0,0,0-2.08-.05l-1,0-.58,1.07a41.83,41.83,0,0,0-2.87,6.93c-.73,2.31-1.6,5.48-2.6,10-.82,3.7-1.6,7.62-2.33,11.73-.38,2.14-.75,4.32-1.1,6.56-1,6.22-1.84,12.45-2.55,18.52-.26,2.21-.49,4.33-.7,6.38-.33,3.43-.6,6.65-.79,9.67-.32,5-.42,8.72-.36,11.67,0,.61,0,1.22,0,1.83.32.73.64,1.45,1,2.18a20.76,20.76,0,0,0,1.72,3.11c-.14-.27-.29-.54-.41-.81C88.78,240.06,88.45,239.34,88.13,238.62Z"/><path class="cls-7" d="M111.31,180.77c-.54,2.19-1.07,4.62-1.59,7.38,1.71-3.35,3.4-6.86,5.06-10.48,1.54-3.35,3.07-7,4.61-10.8-.22-.23-.45-.46-.71-.69a11.64,11.64,0,0,0-.87-.83,11.36,11.36,0,0,0-.86-.83,1.31,1.31,0,0,1-.12-.11l-.27.6A100.1,100.1,0,0,0,111.31,180.77Z"/><path class="cls-7" d="M105.62,233.05a81.87,81.87,0,0,1,2.47-14.62,71.7,71.7,0,0,1,5-13q2.39-4.77,5.77-10.39a38.42,38.42,0,0,0,2.37,4.12,23.32,23.32,0,0,0,7.66,7.66l1.81,1c.27-.65.54-1.29.82-1.93.74-1.75,1.45-3.6,2.12-5.52.26-2.16.57-4.44.95-6.88q.41-2.64.9-5.36c-.07-.18-.15-.35-.22-.53-.14-.37-1-2.57-1-9.43a80.68,80.68,0,0,1,2.3-19l-.09-.07a2.45,2.45,0,0,0-.8-.83,2.58,2.58,0,0,0-.62-.69l0,.07a82.42,82.42,0,0,0-2.37,19.77c.06,6.67.83,9.74,1.4,11.13.15.34.29.69.43,1l-.06,1a25.2,25.2,0,0,1-1.49,5.83c-.86,2.64-1.81,5.17-2.82,7.52l-.41,1-.91-.52a20.59,20.59,0,0,1-6.78-6.8,34.73,34.73,0,0,1-3.38-6.57q-4.15,6.69-7,12.25a72.23,72.23,0,0,0-5.11,13.24A82.73,82.73,0,0,0,104,231.36a182.33,182.33,0,0,0-.49,18.41c.17.11.35.23.51.32.41.28.8.53,1.15.73C105,243.69,105.23,237.86,105.62,233.05Z"/><path class="cls-7" d="M104.81,253.55l-1-.33a12.82,12.82,0,0,1-3.19-1.76,41.85,41.85,0,0,1-3.72-3,46.69,46.69,0,0,1-3.57-3.61,18.25,18.25,0,0,1-3-4.43A14.78,14.78,0,0,1,89,238L88.51,237c0-.3,0-.61,0-.91-.07-2.88,0-6.55.33-11.5.19-3,.44-6.13.77-9.5q.31-3.27.69-6.52c.7-6,1.55-12.28,2.53-18.54q.5-3.21,1.07-6.42c.73-4.14,1.51-8.1,2.33-11.83,1-4.49,1.83-7.62,2.54-9.88a40.17,40.17,0,0,1,2.74-6.66l.29-.53.49,0a12.77,12.77,0,0,1,2,.05,14,14,0,0,1,1.89.3,18,18,0,0,1,3.83,1.37,18.75,18.75,0,0,1,3.36,2.08,12.4,12.4,0,0,1,1.54,1.41c.29.26.56.52.82.8s.6.55.87.83.6.56.86.84.6.55.87.83.6.56.86.84a11.36,11.36,0,0,1,.86.83l.16.15q1.88-4.74,3.76-9.9l.06-.16s.05-.09.08-.14a6,6,0,0,1,3.17-2.52,7.22,7.22,0,0,1,3.34-.5l.51.07a4.59,4.59,0,0,1,2.88,1.86,6,6,0,0,1,.73.77,5.27,5.27,0,0,1,.8.83,4.92,4.92,0,0,1,.8.84,4.67,4.67,0,0,1,.79.81l0-.12-1-2.53a10.77,10.77,0,0,0-1.6-2.78,5.91,5.91,0,0,0-2.87-1.45L131,150a8.11,8.11,0,0,0-3.77.54,7.08,7.08,0,0,0-3.44,2.58,5.82,5.82,0,0,0-.77,1.06l-.15.27-.12.33c-.89,2.5-1.8,5-2.74,7.46-.15-.15-.31-.29-.47-.43l-.28-.27c-.16.4-.32.81-.47,1.21L117,159.77a14,14,0,0,0-1.75-2.23c-.25-.22-.5-.44-.76-.64a21.07,21.07,0,0,0-3.67-2.29,19.21,19.21,0,0,0-4.11-1.47,16.23,16.23,0,0,0-2-.34,13.2,13.2,0,0,0-2.08-.05l-1,.05-.57,1.07a37.94,37.94,0,0,0-1.83,4c-.49,1.22-1,2.57-1.4,3.95-.71,2.32-1.54,5.52-2.5,10.09-.36,1.68-.7,3.41-1,5.18s-.68,3.55-1,5.34c-.4,2.19-.76,4.39-1.11,6.59-1,6.19-1.83,12.41-2.54,18.47-.26,2.21-.49,4.33-.7,6.38-.33,3.41-.59,6.61-.79,9.62-.31,5-.42,8.7-.35,11.64,0,.61,0,1.22,0,1.83.11.23.21.46.31.69s0,.65,0,1c.32.72.65,1.44,1,2.17.12.27.27.54.41.81a25.44,25.44,0,0,0,2.3,3,51.07,51.07,0,0,0,3.86,3.94,42.71,42.71,0,0,0,4,3.24,14.36,14.36,0,0,0,3.61,2l2,.68c0-.46,0-.91,0-1.36l-.42-.26Z"/><path class="cls-7" d="M135.27,156.47c-.09.36-.17.71-.25,1.06a2.58,2.58,0,0,1,.62.69,2.45,2.45,0,0,1,.8.83l.09.07a.64.64,0,0,0,0-.07l.51-2.13a4.67,4.67,0,0,0-.79-.81,4.92,4.92,0,0,0-.8-.84,5.27,5.27,0,0,0-.8-.83,6,6,0,0,0-.73-.77,6.66,6.66,0,0,1,.83,1.54Z"/><path class="cls-7" d="M117.28,163.36l-.45,1a1.31,1.31,0,0,0,.12.11,11.36,11.36,0,0,1,.86.83,11.64,11.64,0,0,1,.87.83c.26.23.49.46.71.69l.75-1.91-.16-.15a11.36,11.36,0,0,0-.86-.83c-.26-.28-.55-.56-.86-.84s-.56-.55-.87-.83-.55-.56-.86-.84-.56-.56-.87-.83-.53-.54-.82-.8a10.31,10.31,0,0,1,1.19,1.55C116.45,162.05,116.87,162.7,117.28,163.36Z"/><path class="cls-7" d="M105.15,250.82c-.35-.2-.74-.45-1.15-.73-.16-.09-.34-.21-.51-.32a1.93,1.93,0,0,0,0,.24l0,1.46-1-.34a13.35,13.35,0,0,1-3.21-1.81,39.65,39.65,0,0,1-3.72-3.06A43.71,43.71,0,0,1,92,242.61a21,21,0,0,1-1.7-2.19,18.25,18.25,0,0,0,3,4.43,46.69,46.69,0,0,0,3.57,3.61,41.85,41.85,0,0,0,3.72,3,12.82,12.82,0,0,0,3.19,1.76l1,.33,0-.7.42.26c0-.52,0-1,0-1.56C105.16,251.3,105.16,251.07,105.15,250.82Z"/><path class="cls-7" d="M109.75,179a173.73,173.73,0,0,0-3.61,20.7c3.68-6.48,7-13.26,10.07-20q2.4-5.28,4.79-11.33c-.19-.19-.38-.38-.6-.57a8.54,8.54,0,0,0-.86-.83l-.15-.14c-1.54,3.84-3.07,7.45-4.61,10.8-1.66,3.62-3.35,7.13-5.06,10.48.52-2.76,1-5.19,1.59-7.38A100.1,100.1,0,0,1,116.56,165l.27-.6a8.56,8.56,0,0,0-.75-.72,10,10,0,0,0-.87-.84,9.68,9.68,0,0,0-.86-.82,8.47,8.47,0,0,1,.77,1A101.37,101.37,0,0,0,109.75,179Z"/><path class="cls-7" d="M104,231.36a82.73,82.73,0,0,1,2.56-14.92,72.23,72.23,0,0,1,5.11-13.24q2.79-5.55,7-12.25a34.73,34.73,0,0,0,3.38,6.57,20.59,20.59,0,0,0,6.78,6.8l.91.52.41-1c1-2.35,2-4.88,2.82-7.52a25.2,25.2,0,0,0,1.49-5.83l.06-1c-.14-.34-.28-.69-.43-1-.57-1.39-1.34-4.46-1.4-11.13A82.42,82.42,0,0,1,135,157.6l0-.07-.19-.15a2.57,2.57,0,0,0-.81-.83,2.54,2.54,0,0,0-.81-.85,3.09,3.09,0,0,1,.24.44A85.05,85.05,0,0,0,131,176.57c.06,6,.71,10.22,1.8,12.83a27.24,27.24,0,0,1-1.37,5.14q-1.27,3.87-2.76,7.32a17.89,17.89,0,0,1-5.91-5.94,31.75,31.75,0,0,1-4.11-9.4A167.21,167.21,0,0,0,110.23,201,73.32,73.32,0,0,0,105,214.44a83.36,83.36,0,0,0-2.65,15.22,186.52,186.52,0,0,0-.52,18.8,11.82,11.82,0,0,1-2.8-1.6A36.57,36.57,0,0,1,95.55,244a41.34,41.34,0,0,1-3.28-3.36c-.3-.35-.57-.68-.81-1v.21a13,13,0,0,0,2.1,3,42.49,42.49,0,0,0,3.27,3.32,36.69,36.69,0,0,0,3.46,2.8,11.34,11.34,0,0,0,2.8,1.57c0-.37,0-.71,0-1.07h0l.41.27A182.33,182.33,0,0,1,104,231.36Z"/><path class="cls-7" d="M89.8,239.24s0-1,0-1l-.3-.68c0-.3,0-.61,0-.91-.07-2.89,0-6.68.34-11.47.19-3.07.45-6.33.79-9.81q.3-3.09.66-6.16c.7-6.05,1.54-12.28,2.52-18.49q.93-6,2.09-11.94c.33-1.74.67-3.47,1-5.15,1-4.52,1.76-7.67,2.45-9.95.41-1.33.87-2.62,1.36-3.84a34.54,34.54,0,0,1,1.73-3.81l.28-.53.5,0a13.88,13.88,0,0,1,1.93,0,14,14,0,0,1,1.89.31,18.09,18.09,0,0,1,3.82,1.35,19.49,19.49,0,0,1,3.36,2.08l.66.56a12.4,12.4,0,0,0-1.54-1.41,18.75,18.75,0,0,0-3.36-2.08,18,18,0,0,0-3.83-1.37,14,14,0,0,0-1.89-.3,12.77,12.77,0,0,0-2-.05l-.49,0-.29.53a40.17,40.17,0,0,0-2.74,6.66c-.71,2.26-1.56,5.39-2.54,9.88-.82,3.73-1.6,7.69-2.33,11.83q-.57,3.21-1.07,6.42c-1,6.26-1.83,12.5-2.53,18.54q-.37,3.25-.69,6.52c-.33,3.37-.58,6.52-.77,9.5-.3,5-.4,8.62-.33,11.5,0,.3,0,.61,0,.91L89,238a14.78,14.78,0,0,0,1.35,2.38l-.06-.11Z"/><path class="cls-7" d="M120.9,165.68c1.17-3.09,2.28-6.09,3.37-9.14l0-.17.08-.13a4.68,4.68,0,0,1,.65-.89,6.08,6.08,0,0,1,3-2.26,7.15,7.15,0,0,1,3.32-.5,4.46,4.46,0,0,1,.51.07,4.37,4.37,0,0,1,2.07,1,4.59,4.59,0,0,0-2.88-1.86l-.51-.07a7.22,7.22,0,0,0-3.34.5,6,6,0,0,0-3.17,2.52c0,.05-.05.1-.08.14l-.06.16q-1.89,5.16-3.76,9.9a9.06,9.06,0,0,1,.7.68Z"/><path class="cls-7" d="M103.06,249.49c0,.36,0,.7,0,1.07a11.34,11.34,0,0,1-2.8-1.57,36.69,36.69,0,0,1-3.46-2.8,42.49,42.49,0,0,1-3.27-3.32,13,13,0,0,1-2.1-3v-.21a10.35,10.35,0,0,1-1.27-2c-.07-2.81,0-6.52.32-11.33s.75-10.1,1.43-16,1.49-12.07,2.5-18.56,2.14-12.6,3.36-18.21c.88-4,1.73-7.32,2.5-9.74a38,38,0,0,1,2.6-6.39,12.08,12.08,0,0,1,1.8,0,12.36,12.36,0,0,1,1.76.28,16.73,16.73,0,0,1,3.54,1.24,17.12,17.12,0,0,1,3,1.88,10.19,10.19,0,0,1,1.3,1.21,9.68,9.68,0,0,1,.86.82,10,10,0,0,1,.87.84,8.56,8.56,0,0,1,.75.72l.45-1c-.41-.66-.83-1.31-1.25-2a10.31,10.31,0,0,0-1.19-1.55l-.66-.56a19.49,19.49,0,0,0-3.36-2.08,18.09,18.09,0,0,0-3.82-1.35,14,14,0,0,0-1.89-.31,13.88,13.88,0,0,0-1.93,0l-.5,0-.28.53a34.54,34.54,0,0,0-1.73,3.81c-.49,1.22-1,2.51-1.36,3.84-.69,2.28-1.5,5.43-2.45,9.95-.35,1.68-.69,3.41-1,5.15q-1.16,5.94-2.09,11.94c-1,6.21-1.82,12.44-2.52,18.49q-.36,3.07-.66,6.16c-.34,3.48-.6,6.74-.79,9.81-.31,4.79-.41,8.58-.34,11.47,0,.3,0,.61,0,.91l.3.68s0,1,0,1l.48,1.07.06.11a21,21,0,0,0,1.7,2.19,43.71,43.71,0,0,0,3.57,3.65,39.65,39.65,0,0,0,3.72,3.06,13.35,13.35,0,0,0,3.21,1.81l1,.34,0-1.46a1.93,1.93,0,0,1,0-.24l-.41-.27Z"/><path class="cls-7" d="M119.54,167a8.54,8.54,0,0,1,.86.83c.22.19.41.38.6.57,1.45-3.65,2.9-7.49,4.38-11.54a5,5,0,0,1,2.62-2,6.12,6.12,0,0,1,2.89-.46l.42.06a2.66,2.66,0,0,1,1.9,1.27,2.54,2.54,0,0,1,.81.85,2.57,2.57,0,0,1,.81.83l.19.15c.08-.35.16-.7.25-1.06l-.5-1.26a6.66,6.66,0,0,0-.83-1.54,4.37,4.37,0,0,0-2.07-1,4.46,4.46,0,0,0-.51-.07,7.15,7.15,0,0,0-3.32.5,6.08,6.08,0,0,0-3,2.26,4.68,4.68,0,0,0-.65.89l-.08.13,0,.17c-1.09,3.05-2.2,6.05-3.37,9.14l-.06,0a9.06,9.06,0,0,0-.7-.68l-.75,1.91Z"/><path class="cls-8" d="M177.24,149.19c.82-2,1.7-4,2.68-6.08a69.37,69.37,0,0,1,5.16-9.05,11.83,11.83,0,0,1,3.77-.63,16.31,16.31,0,0,1,2.36.16,11.39,11.39,0,0,1,1.32.25,9.1,9.1,0,0,1,2.31.87,7.73,7.73,0,0,1,1.17.66,4.56,4.56,0,0,1,.8.7,4.49,4.49,0,0,0-1.4-1.53,8.75,8.75,0,0,0-2.88-1.26,14.15,14.15,0,0,0-1.47-.29,17.56,17.56,0,0,0-2.22-.16,12.15,12.15,0,0,0-3.78.58,68,68,0,0,0-5.22,9c-1.07,2.19-2,4.33-2.9,6.43l.13.18Z"/><path class="cls-8" d="M144.94,167.68c1.3-4.18,2.74-8.3,4.35-12.33a84.19,84.19,0,0,1,8.88-17,15.6,15.6,0,0,1,2.76-.83,8.25,8.25,0,0,1,1.64-.19,9.46,9.46,0,0,1,2.06,0h0a11.18,11.18,0,0,1,3,.82,4.42,4.42,0,0,1,1.24.87,4.44,4.44,0,0,0-1.94-1.72,10.93,10.93,0,0,0-3-.83h-.05a9.16,9.16,0,0,0-3.09.1,15.85,15.85,0,0,0-2.77.79,83.69,83.69,0,0,0-9,16.91c-1.73,4.23-3.27,8.56-4.66,13l.05.07A2.59,2.59,0,0,1,144.94,167.68Z"/><path class="cls-7" d="M177.14,140a72.4,72.4,0,0,1,5.42-9.49l.6-.89.87-.28a14.43,14.43,0,0,1,4.54-.72,20,20,0,0,1,2.73.2,15.77,15.77,0,0,1,1.58.32,12.46,12.46,0,0,1,2.91,1.11,11.32,11.32,0,0,1,1.57.91,8.38,8.38,0,0,1,1.71,1.6,8.68,8.68,0,0,0-2.32-2.44,11.79,11.79,0,0,0-3.85-1.73,15.93,15.93,0,0,0-1.75-.36,19.24,19.24,0,0,0-2.56-.2,14.2,14.2,0,0,0-4.55.65l-.87.28-.62.88a73.21,73.21,0,0,0-5.49,9.42c-.39.8-.77,1.61-1.14,2.41.09.11.19.22.28.34C176.51,141.31,176.82,140.65,177.14,140Z"/><path class="cls-7" d="M146.41,152a86.25,86.25,0,0,1,9.28-17.65l.48-.67.65-.27a16.77,16.77,0,0,1,3.15-.92,17.09,17.09,0,0,1,4.47-.17h.06a14,14,0,0,1,3.66,1.05,7.86,7.86,0,0,1,2.71,2.08,8.41,8.41,0,0,0-3.41-2.94,14,14,0,0,0-3.66-1.06h-.07a11.72,11.72,0,0,0-3.83.09,17.76,17.76,0,0,0-3.16.88l-.66.26-.49.67a86,86,0,0,0-9.42,17.5c-1.24,3-2.38,6.09-3.45,9.22a5.33,5.33,0,0,1,.52.54C144.25,157.59,145.32,154.71,146.41,152Z"/><path class="cls-7" d="M164.6,154.29c-.5,1.22-1,2.44-1.48,3.66a223.21,223.21,0,0,0-10.81,38.48c-.34,1.62-.74,3.89-1.17,7s-.8,6.24-1.13,9.51-.54,6.43-.62,9.35c0,1.75-.06,3.27,0,4.54.49-1.14,1.08-2.69,1.78-4.81,1.12-3.37,2.95-9.52,6.14-19.4.61-1.91,1.33-4.09,2.18-6.53.13-.39.27-.79.41-1.18,1-2.89,2.11-6,3.26-9.3s2.31-6.68,3.47-10.2,2.17-6.88,3.06-10.25c.47-1.85,1.07-4.07,1.87-6.74s1.75-5.47,2.9-8.44c.36-.92.75-1.86,1.14-2.81a3.69,3.69,0,0,0-.56-.67,5.19,5.19,0,0,0-.68-.84l-.12-.15c-.43,1-.84,2-1.22,3-1.17,3-2.15,5.9-2.95,8.58s-1.41,4.91-1.88,6.81c-.88,3.3-1.89,6.66-3,10s-2.31,6.88-3.44,10.09-2.23,6.35-3.26,9.24l-.45,1.3c-.84,2.4-1.55,4.54-2.16,6.44-1.92,5.89-3.33,10.46-4.41,13.88l.06-.68q.49-4.91,1.13-9.48c.43-3.08.81-5.3,1.14-6.82v-.09a221.67,221.67,0,0,1,10.74-38.28c.49-1.25,1-2.49,1.5-3.73,2.77-6.73,5-11.49,5.77-12.87l.13-.23a2.55,2.55,0,0,0-.35-.38,4.49,4.49,0,0,0-.69-.85,5.15,5.15,0,0,0-.32-.45l-.1.17C169.68,142.65,167.51,147.22,164.6,154.29Z"/><path class="cls-7" d="M180.65,233.24c0-.2,0-.41,0-.62-.05-1-.07-2-.08-2.92,0-.14-.07-.26-.12-.39-.16-.5-.43-1.37-.79-2.82-.28-1.12-.57-2.6-.85-4.43a48.44,48.44,0,0,1-.48-6.56,83.15,83.15,0,0,1,1.47-16.5,170.32,170.32,0,0,1,4.62-18.83c1.92-6.28,4.18-12.87,7-20.09,2.64-6.67,5.4-13.46,8.21-20.2a3.9,3.9,0,0,0-.4-.51,4.2,4.2,0,0,0-.6-.82,3.74,3.74,0,0,0-.27-.42c-2.85,6.85-5.66,13.77-8.35,20.58-2.87,7.26-5.13,13.87-7.05,20.15a171.46,171.46,0,0,0-4.65,19,84.75,84.75,0,0,0-1.49,17.05,54.06,54.06,0,0,0,.53,7.06c.31,2,.63,3.58.95,4.82s.62,2.32.88,3.1a13.5,13.5,0,0,1,.73,3.57,4.21,4.21,0,0,1-.32,1.85,1.51,1.51,0,0,1-.79.94,3.36,3.36,0,0,1-1,.15,6.22,6.22,0,0,1-1.36-.13,14.07,14.07,0,0,1-2.92-1,24.1,24.1,0,0,1-3.22-1.73,25,25,0,0,1-3.15-2.35l-.13-.11-.11-.14a20.26,20.26,0,0,1-4.15-9.18,61.45,61.45,0,0,1-1.09-7c-.57,1.68-1.17,3.58-1.81,5.73-1,3.37-2,6.72-2.86,10-1,3.47-1.58,5.75-1.95,7a37,37,0,0,1-2.18,5.43,6.53,6.53,0,0,1-2,2.66l-.07,0-.07,0a5.92,5.92,0,0,1-1.39.21,7.86,7.86,0,0,1-2.64-.37,13.13,13.13,0,0,1-4.35-2.43,20.19,20.19,0,0,1-4.12-4.7A24.38,24.38,0,0,1,135.1,231c0-.11,0-.21-.07-.31s0-.2,0-.3c-.43-3.67-.7-6.74-.82-9.12a78.73,78.73,0,0,1,0-8.13,181.91,181.91,0,0,1,1.93-18.28,203.27,203.27,0,0,1,4.45-21.29c.7-2.68,1.49-5.32,2.32-8l0,0a2.3,2.3,0,0,0-.8-.81,2.36,2.36,0,0,0-.66-.71c-.83,2.63-1.62,5.28-2.33,7.95-1.45,5.47-2.64,10.86-3.58,16.07.21.51.42,1,.64,1.54-.05.66-.09,1.32-.14,2a26.81,26.81,0,0,1-1.6,6.53q-.36,1.11-.75,2.19c-.52,4.39-.84,8.23-1,11.59a81.74,81.74,0,0,0,0,8.43c.13,2.48.4,5.53.85,9.32,0,.2,0,.4.07.6l.16.61a29.39,29.39,0,0,0,3.83,9,23.63,23.63,0,0,0,4.8,5.46,14.39,14.39,0,0,0,4.83,2.69,8.75,8.75,0,0,0,2.91.4,6.51,6.51,0,0,0,1.53-.24l.14,0,.14-.08a7.34,7.34,0,0,0,2.32-3,40.52,40.52,0,0,0,2.24-5.6.19.19,0,0,0,0-.08l0-.09c.36-1.31,1-3.61,1.94-7.1.9-3.27,1.86-6.63,2.85-10l.11-.35a24.72,24.72,0,0,0,5,11l.23.27.25.22a27,27,0,0,0,3.38,2.52,26.4,26.4,0,0,0,3.38,1.8,14.83,14.83,0,0,0,3.13,1,6.54,6.54,0,0,0,1.53.14,4,4,0,0,0,1.18-.19,2.42,2.42,0,0,0,1.36-1.57,6.79,6.79,0,0,0,.37-1.28q-.25-.93-.45-1.89C180.73,233.67,180.69,233.46,180.65,233.24Z"/><path class="cls-7" d="M175.27,143.85a6.73,6.73,0,0,1,.69.84c.15.16.31.35.46.54q.95-2.17,2-4.41a70.17,70.17,0,0,1,5.36-9.19l.3-.44.44-.14a12.91,12.91,0,0,1,4.16-.62,15.35,15.35,0,0,1,2.39.18,13.89,13.89,0,0,1,1.61.32,10.43,10.43,0,0,1,3.36,1.49,6.67,6.67,0,0,1,1.92,2.05,7.38,7.38,0,0,1,.58.8,6.89,6.89,0,0,1,.6.82,7,7,0,0,1,.6.83,5.86,5.86,0,0,1,.59.82l.1.12.43-1c-.31-.81-.63-1.61-.95-2.42a8.73,8.73,0,0,0-.87-1.66,8.38,8.38,0,0,0-1.71-1.6,11.32,11.32,0,0,0-1.57-.91,12.46,12.46,0,0,0-2.91-1.11,15.77,15.77,0,0,0-1.58-.32,20,20,0,0,0-2.73-.2,14.43,14.43,0,0,0-4.54.72l-.87.28-.6.89a72.4,72.4,0,0,0-5.42,9.49c-.32.66-.63,1.32-.94,2-.09-.12-.19-.23-.28-.34l-.86,1.91Z"/><path class="cls-7" d="M142.67,162.72a5.19,5.19,0,0,1,.8.82s0,.05.06.06c1.24-3.76,2.6-7.47,4.08-11.07a84.67,84.67,0,0,1,9.22-17.2l.24-.33.33-.14a16.58,16.58,0,0,1,3-.83,10.3,10.3,0,0,1,3.46-.1,12.89,12.89,0,0,1,3.37.95,6.33,6.33,0,0,1,2.64,2.29,6.08,6.08,0,0,1,.64.77,9.05,9.05,0,0,1,.69.85,9.05,9.05,0,0,1,.69.85,7.66,7.66,0,0,1,.68.85c.14.14.27.3.41.47l.48-.86-1.75-3.35a10.63,10.63,0,0,0-.8-1.31,7.86,7.86,0,0,0-2.71-2.08,14,14,0,0,0-3.66-1.05h-.06a17.09,17.09,0,0,0-4.47.17,16.77,16.77,0,0,0-3.15.92l-.65.27-.48.67A86.25,86.25,0,0,0,146.41,152c-1.09,2.73-2.16,5.61-3.17,8.61a5.33,5.33,0,0,0-.52-.54c-.23.66-.46,1.33-.68,2A5,5,0,0,1,142.67,162.72Z"/><path class="cls-7" d="M171.29,139.78c-.24.42-.48.83-.71,1.25a5.15,5.15,0,0,1,.32.45,4.49,4.49,0,0,1,.69.85,2.55,2.55,0,0,1,.35.38c.33-.59.66-1.17,1-1.75-.14-.17-.27-.33-.41-.47a7.66,7.66,0,0,0-.68-.85,9.05,9.05,0,0,0-.69-.85,9.05,9.05,0,0,0-.69-.85,6.08,6.08,0,0,0-.64-.77,6.59,6.59,0,0,1,.57.93Z"/><path class="cls-7" d="M174.34,145.68a5.19,5.19,0,0,1,.68.84,3.69,3.69,0,0,1,.56.67c.27-.65.55-1.3.84-2-.15-.19-.31-.38-.46-.54a6.73,6.73,0,0,0-.69-.84l-.21-.28c-.29.66-.57,1.31-.84,2Z"/><path class="cls-7" d="M199,136.66c-.16.38-.32.75-.47,1.13a3.45,3.45,0,0,0-.14.34,3.74,3.74,0,0,1,.27.42,4.2,4.2,0,0,1,.6.82,3.9,3.9,0,0,1,.4.51l.32-.8c.17-.4.35-.81.52-1.22l-.1-.12a5.86,5.86,0,0,0-.59-.82,7,7,0,0,0-.6-.83,6.89,6.89,0,0,0-.6-.82,7.38,7.38,0,0,0-.58-.8,6,6,0,0,1,.49,1Z"/><path class="cls-7" d="M142,164.82a2.3,2.3,0,0,1,.8.81l0,0c.22-.68.43-1.37.65-2.06,0,0,0,0-.06-.06a5.19,5.19,0,0,0-.8-.82,5,5,0,0,0-.63-.67c-.23.68-.44,1.37-.66,2.06A2.36,2.36,0,0,1,142,164.82Z"/><path class="cls-7" d="M136,191.65c.05-.66.09-1.32.14-2-.22-.51-.43-1-.64-1.54q-.5,2.72-.9,5.36c-.38,2.44-.69,4.72-.95,6.88q.39-1.08.75-2.19A26.81,26.81,0,0,0,136,191.65Z"/><path class="cls-7" d="M161.7,156.37A224.17,224.17,0,0,0,150.81,195c-.35,1.67-.76,4.05-1.18,7.12s-.81,6.26-1.14,9.56-.54,6.46-.63,9.51a60.85,60.85,0,0,0,.13,7.14,7.14,7.14,0,0,0,.5,2.3,6.2,6.2,0,0,0,.6,1.05c1-1.12,2.1-3.72,3.46-7.9s3.27-10.6,6.15-19.52c.7-2.22,1.55-4.79,2.57-7.71s2.11-6,3.27-9.37,2.33-6.76,3.5-10.3,2.22-7,3.13-10.47c.46-1.86,1.07-4.09,1.85-6.7s1.73-5.37,2.86-8.3c.34-.86.69-1.74,1.06-2.62a5,5,0,0,0-.55-.65,5.11,5.11,0,0,0-.68-.83c0-.06-.09-.11-.13-.16-.39.95-.78,1.89-1.14,2.81-1.15,3-2.12,5.81-2.9,8.44s-1.4,4.89-1.87,6.74c-.89,3.37-1.93,6.82-3.06,10.25s-2.33,6.95-3.47,10.2-2.24,6.41-3.26,9.3c-.14.39-.28.79-.41,1.18-.85,2.44-1.57,4.62-2.18,6.53-3.19,9.88-5,16-6.14,19.4-.7,2.12-1.29,3.67-1.78,4.81,0-1.27,0-2.79,0-4.54.08-2.92.29-6.07.62-9.35s.71-6.45,1.13-9.51.83-5.4,1.17-7A223.21,223.21,0,0,1,163.12,158c.49-1.22,1-2.44,1.48-3.66,2.91-7.07,5.08-11.64,5.88-13.09l.1-.17a4.59,4.59,0,0,0-.37-.39,4.49,4.49,0,0,0-.69-.85,5.15,5.15,0,0,0-.65-.8c.09.15.19.3.28.46C168.18,141.22,165.47,146.91,161.7,156.37Z"/><path class="cls-7" d="M136.11,194.9a181.91,181.91,0,0,0-1.93,18.28,78.73,78.73,0,0,0,0,8.13c.12,2.38.39,5.45.82,9.12,0,.1,0,.2,0,.3s.05.2.07.31a24.38,24.38,0,0,0,3.12,7.36,20.19,20.19,0,0,0,4.12,4.7,13.13,13.13,0,0,0,4.35,2.43,7.86,7.86,0,0,0,2.64.37,5.92,5.92,0,0,0,1.39-.21l.07,0,.07,0a6.53,6.53,0,0,0,2-2.66,37,37,0,0,0,2.18-5.43c.37-1.3,1-3.58,1.95-7,.9-3.24,1.86-6.59,2.86-10,.64-2.15,1.24-4.05,1.81-5.73a61.45,61.45,0,0,0,1.09,7,20.26,20.26,0,0,0,4.15,9.18l.11.14.13.11a25,25,0,0,0,3.15,2.35,24.1,24.1,0,0,0,3.22,1.73,14.07,14.07,0,0,0,2.92,1,6.22,6.22,0,0,0,1.36.13,3.36,3.36,0,0,0,1-.15,1.51,1.51,0,0,0,.79-.94,4.21,4.21,0,0,0,.32-1.85,13.5,13.5,0,0,0-.73-3.57c-.26-.78-.56-1.82-.88-3.1s-.64-2.85-.95-4.82a54.06,54.06,0,0,1-.53-7.06,84.75,84.75,0,0,1,1.49-17.05,171.46,171.46,0,0,1,4.65-19c1.92-6.28,4.18-12.89,7.05-20.15,2.69-6.81,5.5-13.73,8.35-20.58a4.12,4.12,0,0,0-.33-.4,3.92,3.92,0,0,0-.6-.82,3.75,3.75,0,0,0-.61-.84,4.23,4.23,0,0,1,.22.42q-4.35,10.45-8.44,20.83c-2.74,6.92-5.08,13.66-7.07,20.22a171.44,171.44,0,0,0-4.69,19.16,87.15,87.15,0,0,0-1.51,17.59,56.58,56.58,0,0,0,.6,7.58q.5,3.15,1,5.2c.35,1.38.68,2.52,1,3.41a9.48,9.48,0,0,1,.52,2.4,2.42,2.42,0,0,1-.18.7c-.06.16-.13.25-.2.27a2.3,2.3,0,0,1-.77.12,5.27,5.27,0,0,1-1.19-.12,14.23,14.23,0,0,1-2.71-.92,24.6,24.6,0,0,1-3-1.64,23.59,23.59,0,0,1-2.93-2.2,16.11,16.11,0,0,1-3.25-7.34,50.24,50.24,0,0,1-1.12-8.27,42.54,42.54,0,0,1,.33-7.73c-.3.11-.95,1.48-1.92,4.07s-2,5.62-3,9-2,6.73-2.88,9.92-1.52,5.51-2,7a35.36,35.36,0,0,1-2.07,5.1,6,6,0,0,1-1.71,2.29,5.25,5.25,0,0,1-1.25.19,7,7,0,0,1-2.38-.35,11.37,11.37,0,0,1-3.85-2.15,16.63,16.63,0,0,1-3.45-4,18.88,18.88,0,0,1-2.41-5.77c-.42-3.58-.68-6.56-.8-8.92s-.12-5,0-7.82a180.3,180.3,0,0,1,1.91-18.11,203.88,203.88,0,0,1,4.41-21.15c.71-2.68,1.49-5.33,2.32-8a55.36,55.36,0,0,1-1.5-1.53c-.83,2.63-1.62,5.27-2.32,8A203.27,203.27,0,0,0,136.11,194.9Z"/><path class="cls-7" d="M176.7,145.59c.62-1.44,1.22-2.75,1.83-4a70.69,70.69,0,0,1,5.29-9.26l.3-.45.43-.14a13.22,13.22,0,0,1,4.15-.68,17.5,17.5,0,0,1,2.55.18c.49.07,1,.17,1.45.28a11.06,11.06,0,0,1,2.66,1,9.16,9.16,0,0,1,1.31.75,7,7,0,0,1,1.32,1.22,6.67,6.67,0,0,0-1.92-2.05,10.43,10.43,0,0,0-3.36-1.49,13.89,13.89,0,0,0-1.61-.32,15.35,15.35,0,0,0-2.39-.18,12.91,12.91,0,0,0-4.16.62l-.44.14-.3.44a70.17,70.17,0,0,0-5.36,9.19q-1.08,2.24-2,4.41l.22.29Z"/><path class="cls-7" d="M147.85,153.67a85.88,85.88,0,0,1,9.08-17.35l.24-.34.33-.13a16.11,16.11,0,0,1,2.95-.88,10.78,10.78,0,0,1,1.83-.21,9.83,9.83,0,0,1,2.25,0,12.74,12.74,0,0,1,3.35.94,5.92,5.92,0,0,1,2,1.43,6.33,6.33,0,0,0-2.64-2.29,12.89,12.89,0,0,0-3.37-.95,10.3,10.3,0,0,0-3.46.1,16.58,16.58,0,0,0-3,.83l-.33.14-.24.33a84.67,84.67,0,0,0-9.22,17.2c-1.48,3.6-2.84,7.31-4.08,11.07a5.6,5.6,0,0,1,.55.54C145.27,160.47,146.54,157,147.85,153.67Z"/><path class="cls-7" d="M175.71,147.35a5.11,5.11,0,0,1,.68.83,5,5,0,0,1,.55.65c.87-2.1,1.83-4.24,2.9-6.43a68,68,0,0,1,5.22-9,12.15,12.15,0,0,1,3.78-.58,17.56,17.56,0,0,1,2.22.16,14.15,14.15,0,0,1,1.47.29,8.75,8.75,0,0,1,2.88,1.26,4.49,4.49,0,0,1,1.4,1.53,3.75,3.75,0,0,1,.61.84,3.92,3.92,0,0,1,.6.82,4.12,4.12,0,0,1,.33.4,3.45,3.45,0,0,1,.14-.34c.15-.38.31-.75.47-1.13l-.48-1.21a6,6,0,0,0-.49-1,7,7,0,0,0-1.32-1.22,9.16,9.16,0,0,0-1.31-.75,11.06,11.06,0,0,0-2.66-1c-.47-.11-1-.21-1.45-.28a17.5,17.5,0,0,0-2.55-.18,13.22,13.22,0,0,0-4.15.68l-.43.14-.3.45a70.69,70.69,0,0,0-5.29,9.26c-.61,1.29-1.21,2.6-1.83,4l-.06-.07-.22-.29c-.29.66-.57,1.31-.84,2C175.62,147.24,175.67,147.29,175.71,147.35Z"/><path class="cls-7" d="M143.64,166.45a2.38,2.38,0,0,1,.74.74c1.39-4.4,2.93-8.73,4.66-13a83.69,83.69,0,0,1,9-16.91,15.85,15.85,0,0,1,2.77-.79,9.16,9.16,0,0,1,3.09-.1H164a10.93,10.93,0,0,1,3,.83,4.44,4.44,0,0,1,1.94,1.72,5.15,5.15,0,0,1,.65.8,4.49,4.49,0,0,1,.69.85,4.59,4.59,0,0,1,.37.39c.23-.42.47-.83.71-1.25l-.89-1.68a6.59,6.59,0,0,0-.57-.93,5.92,5.92,0,0,0-2-1.43,12.74,12.74,0,0,0-3.35-.94,9.83,9.83,0,0,0-2.25,0,10.78,10.78,0,0,0-1.83.21,16.11,16.11,0,0,0-2.95.88l-.33.13-.24.34a85.88,85.88,0,0,0-9.08,17.35c-1.31,3.28-2.58,6.8-3.77,10.47a5.6,5.6,0,0,0-.55-.54c-.22.69-.43,1.38-.65,2.06A2.4,2.4,0,0,1,143.64,166.45Z"/><path class="cls-8" d="M241.93,109.2a14,14,0,0,1,1.43,2c.2.35.39.72.58,1.08-.33-.66-.67-1.31-1-1.92-1.16-2-2.22-3.13-3.2-3.48l-.19.08A5.63,5.63,0,0,1,241.93,109.2Z"/><path class="cls-8" d="M210.76,146.17a52.58,52.58,0,0,1,4-12.24,70,70,0,0,1,6.87-11.7,55,55,0,0,1,8.68-9.52,41,41,0,0,1,3.36-2.59c-1.05.72-2.12,1.53-3.2,2.44a55.36,55.36,0,0,0-8.75,9.42,70.45,70.45,0,0,0-6.94,11.64,52.38,52.38,0,0,0-4.09,12.19,57.77,57.77,0,0,0-1,7.77l.11.16A59.51,59.51,0,0,1,210.76,146.17Z"/><path class="cls-8" d="M236.31,108.49l0,0Z"/><path class="cls-8" d="M235.11,109.2c.1-.07.2-.12.3-.18C235.31,109.08,235.21,109.13,235.11,109.2Z"/><path class="cls-8" d="M233.87,110l.66-.42Z"/><path class="cls-7" d="M232.3,106l.64-.4Z"/><path class="cls-7" d="M211.89,131.4a72.85,72.85,0,0,1,7.22-12.32A57.64,57.64,0,0,1,228.36,109a43.11,43.11,0,0,1,3.62-2.77c-1.14.78-2.29,1.64-3.44,2.6a57.61,57.61,0,0,0-9.32,10,72.86,72.86,0,0,0-7.3,12.25,56.43,56.43,0,0,0-4.4,13.29l.09.12A57,57,0,0,1,211.89,131.4Z"/><path class="cls-7" d="M244.64,106.13a17.64,17.64,0,0,1,1.72,2.5c.18.3.35.62.53,1-.31-.62-.64-1.22-1-1.8-1.65-2.84-3.26-4.47-5.07-5.11l-1-.37-.21.07,1,.35A8.74,8.74,0,0,1,244.64,106.13Z"/><path class="cls-7" d="M233.67,105.15,234,105Z"/><path class="cls-7" d="M235,104.39l0,0Z"/><path class="cls-7" d="M198,212.49a66.12,66.12,0,0,0-4,10.45,28.5,28.5,0,0,0-1.32,8.15,8.27,8.27,0,0,0,.71,3.54,36.11,36.11,0,0,0,3.85-6.28,84.7,84.7,0,0,0,4.12-10c1.24-3.62,2.35-7.47,3.28-11.44.51-2.2.94-4.36,1.27-6.48a26.41,26.41,0,0,0-2.45,2.88A55.36,55.36,0,0,0,198,212.49Zm2.07,4.43a79.51,79.51,0,0,1-4,9.7q-.92,1.83-1.86,3.36a32.15,32.15,0,0,1,1.16-5.66,66,66,0,0,1,3.87-10.19,58.56,58.56,0,0,1,3.58-6.47C202,210.87,201.06,214,200.05,216.92Z"/><path class="cls-7" d="M250.16,131.76a1.87,1.87,0,0,0,0,.25l-.09.23c-1,2.82-2.25,5.8-3.68,8.85s-2.85,5.85-4.26,8.34a67.79,67.79,0,0,1-4,6.38c-1.54,2.12-2.78,3.16-4,3.27h-.29a2.56,2.56,0,0,1-1.95-1.39,6.82,6.82,0,0,1-.48-4.36l0-.12,0-.12a12.71,12.71,0,0,1,1-2.62c.45-1,1-2,1.53-3.23s1.1-2.33,1.63-3.5a17.75,17.75,0,0,0,1-2.66,9.94,9.94,0,0,0,.43-3.86,1.25,1.25,0,0,0-.08-.28c0,.06-.05.06-.11.07-3.19.27-6.72,3.87-10.09,10.88-3.46,7.19-6.54,17.74-8.55,31.38,1-.16,1.85-.29,2.68-.41q2.13-.3,4.2-.54l1.45-.17c.08.69.17,1.38.26,2.07a12.93,12.93,0,0,1-1.48,6.57l-.25.36-.33.16c-1.86.9-3.5,1.76-4.75,2.49a18.13,18.13,0,0,0-2.54,1.72,2.66,2.66,0,0,0-.7.79,7.7,7.7,0,0,0-.28,1.49c-.12,1.12-.22,2.24-.3,3.35s-.21,2.73-.36,4.45c-1.15,12.5-3.4,23-6.89,31.29s-7.89,13.84-13.71,16.66l-.1.05H195a2,2,0,0,1-.34,0,6,6,0,0,1-3.39-1,15.77,15.77,0,0,1-3.7-3.35,25.6,25.6,0,0,1-3.23-5.09,26.39,26.39,0,0,1-2.17-6.36c0-.11,0-.21-.07-.32s0-.21,0-.31a64.11,64.11,0,0,1,1.33-16.77,62.23,62.23,0,0,1,5.29-15.19,46.36,46.36,0,0,1,8.55-12,22.81,22.81,0,0,1,10-6.09c.29-3,.46-6,.5-8.88,0-3.44.07-6.79.1-9.95s.1-6.4.2-9.5c0-1.07.11-2.16.2-3.25l-.08-.1a3.75,3.75,0,0,0-.59-.8,3.44,3.44,0,0,0-.59-.8c-.06-.11-.14-.22-.21-.33q-.28,2.53-.36,5c-.09,3.16-.15,6.37-.17,9.55s0,6.45-.07,9.9q0,3.48-.33,7.13a24.39,24.39,0,0,0-9.52,6,47.41,47.41,0,0,0-8.84,12.29A63.85,63.85,0,0,0,182,215.12a66.3,66.3,0,0,0-1.45,14.58,17.8,17.8,0,0,1,.82,4.31,7.22,7.22,0,0,1-.12,1.76,31.45,31.45,0,0,0,2.09,5.51A28.93,28.93,0,0,0,187,247a17.6,17.6,0,0,0,4.18,3.78,6.92,6.92,0,0,0,3.93,1.18l.4,0,.23,0,.2-.1c6-3,10.61-8.86,14.18-17.39S216,215,217.25,202.14c.17-1.78.31-3.3.39-4.54.07-1,.17-2.1.3-3.24,0-.3.07-.51.09-.65s.13-.13.23-.21a17.05,17.05,0,0,1,2.35-1.6c1.23-.72,2.84-1.58,4.66-2.47l.66-.32.48-.72a12.62,12.62,0,0,0,1.71-4.95,12.39,12.39,0,0,0,.19-3.56c-.18-1.37-.35-2.75-.52-4.13l-2.91.33c-1.4.15-2.81.33-4.24.53l-.43.06c2-11.87,4.82-21.12,7.92-27.57,2.38-4.92,4.82-8.06,7-9.31,0,.19-.09.38-.15.59a14.87,14.87,0,0,1-.86,2.25c-.52,1.16-1.06,2.31-1.59,3.42s-1.07,2.27-1.53,3.23a15.72,15.72,0,0,0-1.18,3.15c0,.08,0,.16-.05.24a2,2,0,0,1,0,.24,9.67,9.67,0,0,0,.81,6.12,4.09,4.09,0,0,0,3.11,2.24h.52c1.61-.15,3.19-1.41,5-3.95a72,72,0,0,0,4.19-6.64c1.46-2.57,2.93-5.45,4.4-8.56s2.76-6.2,3.81-9.11c0-.15.11-.31.17-.47s.05-.33.08-.49a21.4,21.4,0,0,0,.14-4.66l-.17-.31c-.14-.28-.29-.55-.44-.82s-.29-.54-.44-.81-.29-.55-.44-.82-.29-.55-.44-.82-.29-.55-.44-.82l-.13-.24c.11.52.23,1,.32,1.57A22.76,22.76,0,0,1,250.16,131.76Z"/><path class="cls-7" d="M207.07,146.92a4.19,4.19,0,0,1,.4.54,6.33,6.33,0,0,1,.59.8,6.7,6.7,0,0,1,.45.6c.16-1.25.35-2.51.6-3.76a54.63,54.63,0,0,1,4.25-12.76,72.7,72.7,0,0,1,7.12-11.94,56.55,56.55,0,0,1,9-9.7,39.44,39.44,0,0,1,3.28-2.49l.31-.22.58-.37.72-.46.24-.14a28.4,28.4,0,0,1,4.38-2.14l.52-.2h0l.2-.07.51.18c1.39.49,2.75,1.9,4.14,4.28.37.65.73,1.34,1.08,2,.13.23.26.46.38.7s.3.55.44.84l.45.84.44.83c.13.24.29.54.44.84s.29.53.44.83.3.54.44.83.29.53.44.83.31.56.45.84.28.52.44.82l.44.83c.13.23.28.52.43.82s.3.54.44.82v0a51.52,51.52,0,0,0-1.86-6.54,47.07,47.07,0,0,0-2.42-5.68c-.18-.34-.35-.66-.53-1a17.64,17.64,0,0,0-1.72-2.5,8.74,8.74,0,0,0-4-3.4l-1-.35-.84.31a27.58,27.58,0,0,0-3.73,1.68l0,0L234,105l-.28.17c-.25.14-.49.3-.73.46l-.64.4-.32.22a43.11,43.11,0,0,0-3.62,2.77,57.64,57.64,0,0,0-9.25,10.08,72.85,72.85,0,0,0-7.22,12.32,57,57,0,0,0-4.28,13.07l-.09-.12v0C207.34,145.23,207.2,146.07,207.07,146.92Z"/><path class="cls-7" d="M250.72,121c-.15-.3-.3-.59-.43-.82l-.44-.83c-.16-.3-.31-.59-.44-.82s-.29-.55-.45-.84-.31-.59-.44-.83-.29-.56-.44-.83-.31-.59-.44-.83-.31-.6-.44-.84l-.44-.83-.45-.84c-.14-.29-.3-.57-.44-.84s-.25-.47-.38-.7a45,45,0,0,1,2.17,5.09,51.64,51.64,0,0,1,1.85,6.55l.13.24c.15.27.3.54.44.82s.3.54.44.82.3.54.44.82.3.53.44.81.3.54.44.82l.17.31a32.49,32.49,0,0,0-.45-3.64c-.11-.65-.25-1.3-.39-2v0C251,121.51,250.87,121.23,250.72,121Z"/><path class="cls-7" d="M206.94,149.89a3.44,3.44,0,0,1,.59.8,3.75,3.75,0,0,1,.59.8l.08.1c.08-.91.18-1.82.31-2.73a6.7,6.7,0,0,0-.45-.6,6.33,6.33,0,0,0-.59-.8,4.19,4.19,0,0,0-.4-.54c-.13.88-.25,1.76-.34,2.64C206.8,149.67,206.88,149.78,206.94,149.89Z"/><path class="cls-7" d="M239.56,104.69h0l-.52.2a28.4,28.4,0,0,0-4.38,2.14,27.75,27.75,0,0,1,4.59-2.21Z"/><path class="cls-7" d="M233.69,107.62l.72-.46Z"/><path class="cls-7" d="M232.8,108.21l.31-.22Z"/><path class="cls-7" d="M180.53,229.7c0,1,0,2,.08,2.92,0,.21,0,.42,0,.62s.08.43.13.64q.19,1,.45,1.89a7.22,7.22,0,0,0,.12-1.76A17.8,17.8,0,0,0,180.53,229.7Z"/><path class="cls-7" d="M234.53,109.57l.58-.37Z"/><path class="cls-7" d="M233.69,110.12l.18-.13Z"/><path class="cls-7" d="M235.41,109l.9-.53Z"/><path class="cls-7" d="M202.39,201.44a55.54,55.54,0,0,0-5.64,9.4,67.62,67.62,0,0,0-4.1,10.71,30.35,30.35,0,0,0-1.41,9c.08,3.12.9,5.46,2.4,7a34.78,34.78,0,0,0,4.78-7.53,86.47,86.47,0,0,0,4.23-10.32A121.46,121.46,0,0,0,206,208,83.58,83.58,0,0,0,208,196.17C206.31,197,204.43,198.72,202.39,201.44Zm2.24,5.46c-.93,4-2,7.82-3.28,11.44a84.7,84.7,0,0,1-4.12,10,36.11,36.11,0,0,1-3.85,6.28,8.27,8.27,0,0,1-.71-3.54,28.5,28.5,0,0,1,1.32-8.15,66.12,66.12,0,0,1,4-10.45,55.36,55.36,0,0,1,5.47-9.19,26.41,26.41,0,0,1,2.45-2.88C205.57,202.54,205.14,204.7,204.63,206.9Z"/><path class="cls-7" d="M239.51,107a25.49,25.49,0,0,0-3.16,1.48,25.49,25.49,0,0,1,3.17-1.47Z"/><path class="cls-7" d="M248.76,121.35l-.45-.83c-.14-.28-.29-.55-.44-.82s-.29-.56-.44-.83-.3-.56-.44-.84l-.45-.82c-.14-.29-.29-.56-.44-.84l-.45-.83c-.14-.29-.29-.56-.44-.84s-.3-.56-.45-.84-.29-.56-.44-.84-.25-.46-.38-.7a43.46,43.46,0,0,1,2.07,4.84,49.29,49.29,0,0,1,2.1,7.75,20.33,20.33,0,0,1,.34,6.55q-1.47,4.11-3.56,8.58c-1.39,3-2.76,5.69-4.14,8.12a64.2,64.2,0,0,1-3.87,6.14c-1.21,1.65-2.16,2.51-2.89,2.57h-.06c-.92-.11-1.24-1.15-1-3.13a12.49,12.49,0,0,1,.83-2.11l1.54-3.24c.57-1.18,1.13-2.37,1.67-3.55a21.1,21.1,0,0,0,1.17-3.08,12.38,12.38,0,0,0,.5-5.07c-.2-1.13-.68-1.76-1.47-1.88a1.74,1.74,0,0,0-.46,0c-3.82.3-7.79,4.28-11.42,11.84s-6.76,18.48-8.76,32.62a14.36,14.36,0,0,0-.24,2.6c1.78-.31,3.37-.56,4.77-.76s2.78-.39,4.15-.56a7.94,7.94,0,0,1-.15,1.73,7.28,7.28,0,0,1-.93,2.9c-2.05,1-3.66,1.82-4.85,2.51a19,19,0,0,0-2.73,1.83,3.78,3.78,0,0,0-1.22,1.6,10.7,10.7,0,0,0-.42,2.11c-.12,1.16-.22,2.32-.3,3.47s-.19,2.61-.35,4.35c-1.08,12.19-3.23,22.24-6.62,30.28s-7.67,13.27-13.25,15.93a2.58,2.58,0,0,1-.29,0,5.05,5.05,0,0,1-2.84-.87,13.52,13.52,0,0,1-3.22-2.93,22.8,22.8,0,0,1-4.59-9.74,62.56,62.56,0,0,1,6.42-30.82,45.18,45.18,0,0,1,8.26-11.63,21,21,0,0,1,10.38-6.08c.41-3.67.65-7.23.7-10.68s.1-6.77.14-10,.11-6.37.22-9.45c0-.5.06-1,.09-1.51a3.35,3.35,0,0,0-.42-.51,3.91,3.91,0,0,0-.58-.79,3.73,3.73,0,0,0-.51-.69c-.09,1.09-.17,2.18-.2,3.25q-.15,4.65-.2,9.5c0,3.16-.07,6.51-.1,9.95,0,2.88-.21,5.85-.5,8.88a22.81,22.81,0,0,0-10,6.09,46.36,46.36,0,0,0-8.55,12,62.23,62.23,0,0,0-5.29,15.19,64.11,64.11,0,0,0-1.33,16.77c0,.1,0,.21,0,.31s.05.21.07.32a26.39,26.39,0,0,0,2.17,6.36,25.6,25.6,0,0,0,3.23,5.09,15.77,15.77,0,0,0,3.7,3.35,6,6,0,0,0,3.39,1,2,2,0,0,0,.34,0h.12l.1-.05c5.82-2.82,10.27-8.47,13.71-16.66s5.74-18.79,6.89-31.29c.15-1.72.28-3.22.36-4.45s.18-2.23.3-3.35a7.7,7.7,0,0,1,.28-1.49,2.66,2.66,0,0,1,.7-.79,18.13,18.13,0,0,1,2.54-1.72c1.25-.73,2.89-1.59,4.75-2.49l.33-.16.25-.36a12.93,12.93,0,0,0,1.48-6.57c-.09-.69-.18-1.38-.26-2.07l-1.45.17q-2.07.24-4.2.54c-.83.12-1.72.25-2.68.41,2-13.64,5.09-24.19,8.55-31.38,3.37-7,6.9-10.61,10.09-10.88.06,0,.11,0,.11-.07a1.25,1.25,0,0,1,.08.28,9.94,9.94,0,0,1-.43,3.86,17.75,17.75,0,0,1-1,2.66c-.53,1.17-1.07,2.33-1.63,3.5s-1.08,2.26-1.53,3.23a12.71,12.71,0,0,0-1,2.62l0,.12,0,.12a6.82,6.82,0,0,0,.48,4.36,2.56,2.56,0,0,0,1.95,1.39h.29c1.19-.11,2.43-1.15,4-3.27a67.79,67.79,0,0,0,4-6.38c1.41-2.49,2.84-5.3,4.26-8.34s2.68-6,3.68-8.85l.09-.23a1.87,1.87,0,0,1,0-.25,22.76,22.76,0,0,0-.33-7.43c-.09-.53-.21-1-.32-1.57l-.31-.59Z"/><path class="cls-7" d="M243.28,107.66a16.67,16.67,0,0,1,1.57,2.27c.22.38.43.79.64,1.19-.35-.7-.71-1.39-1.08-2-1.39-2.38-2.75-3.79-4.14-4.28l-.51-.18-.2.07.5.17A7.1,7.1,0,0,1,243.28,107.66Z"/><path class="cls-7" d="M233.11,108l.58-.37Z"/><path class="cls-7" d="M234.41,107.16l.24-.14Z"/><path class="cls-7" d="M209.16,145.48a54.69,54.69,0,0,1,4.18-12.81,71.41,71.41,0,0,1,7-12,56.83,56.83,0,0,1,9-9.79,39.42,39.42,0,0,1,3.46-2.65,39.44,39.44,0,0,0-3.28,2.49,56.55,56.55,0,0,0-9,9.7,72.7,72.7,0,0,0-7.12,11.94,54.63,54.63,0,0,0-4.25,12.76c-.25,1.25-.44,2.51-.6,3.76l.09.13C208.75,147.81,208.94,146.64,209.16,145.48Z"/><path class="cls-7" d="M208.71,152.28a3.91,3.91,0,0,1,.58.79,3.35,3.35,0,0,1,.42.51,57.77,57.77,0,0,1,1-7.77,52.38,52.38,0,0,1,4.09-12.19A70.45,70.45,0,0,1,221.74,122a55.36,55.36,0,0,1,8.75-9.42c1.08-.91,2.15-1.72,3.2-2.44l.18-.13.66-.42.58-.37c.1-.07.2-.12.3-.18l.9-.53,0,0a25.49,25.49,0,0,1,3.16-1.48h0l.19-.08c1,.35,2,1.5,3.2,3.48.36.61.7,1.26,1,1.92.13.24.26.46.38.7s.3.55.44.84.3.55.45.84.3.55.44.84l.45.83c.15.28.3.55.44.84l.45.82c.14.28.29.55.44.84s.3.54.44.83.3.54.44.82l.45.83.44.82.31.59a51.64,51.64,0,0,0-1.85-6.55,45,45,0,0,0-2.17-5.09c-.21-.4-.42-.81-.64-1.19a16.67,16.67,0,0,0-1.57-2.27,7.1,7.1,0,0,0-3.22-2.8l-.5-.17-.32.12a27.75,27.75,0,0,0-4.59,2.21l-.24.14-.72.46-.58.37-.31.22a39.42,39.42,0,0,0-3.46,2.65,56.83,56.83,0,0,0-9,9.79,71.41,71.41,0,0,0-7,12,54.69,54.69,0,0,0-4.18,12.81c-.22,1.16-.41,2.33-.56,3.51l-.09-.13c-.13.91-.23,1.82-.31,2.73A3.73,3.73,0,0,1,208.71,152.28Z"/><path class="cls-8" d="M358.88,68.84a1.45,1.45,0,0,1,.09.22,20.05,20.05,0,0,1,.66,3.26,19.3,19.3,0,0,0-2.47-8.15,18.59,18.59,0,0,1,1.36,3.31C358.66,67.94,358.78,68.39,358.88,68.84Z"/><path class="cls-7" d="M363.14,67.73c0,.09.07.18.1.27a22.19,22.19,0,0,1,.74,3.86,21.51,21.51,0,0,0-.81-4.67,21.79,21.79,0,0,0-2-4.71,21.76,21.76,0,0,1,1.62,3.92C362.92,66.84,363,67.29,363.14,67.73Z"/><path class="cls-7" d="M311.62,100.1c.34.51.68,1,1,1.52q4-3,8.41-5.85a172.53,172.53,0,0,1,39-18.88c0-.18,0-.36-.05-.54s0-.53-.07-.8,0-.3,0-.45A173.5,173.5,0,0,0,320,94.25Q315.65,97.1,311.62,100.1Z"/><path class="cls-7" d="M238,172.62a195.57,195.57,0,0,0-6.55,22.62,148.82,148.82,0,0,0-3,18.59,26.86,26.86,0,0,0,.13,5.46c.18,1.58.4,3.22.66,4.87a27,27,0,0,0,1.2,5c1,2.72,2.17,4.08,3.57,4h.07c1.34-.08,2.28-1.44,3-2.62a17.91,17.91,0,0,0,1.68-3.83A154,154,0,0,1,260,183.41a131.79,131.79,0,0,1,14.11-16.87,88.56,88.56,0,0,1,8.42-7.46c-1.44,2-2.85,4.09-4.21,6.16a191.77,191.77,0,0,0-10.19,17.39,154.14,154.14,0,0,0-6.58,14.44,58.78,58.78,0,0,0-3.18,10.26,27.29,27.29,0,0,0-.43,6.4,27.68,27.68,0,0,0,.9,5.74,15.9,15.9,0,0,0,2.17,4.9,6.11,6.11,0,0,0,3.61,2.76,4.2,4.2,0,0,0,.81.08,9.18,9.18,0,0,0,3.29-.85c1.4-.57,2.87-1.24,4.37-2a33.55,33.55,0,0,0,4.23-2.41,7.68,7.68,0,0,0,3.61-4.76,11.42,11.42,0,0,0,.27-2.11,24.06,24.06,0,0,0-.16-3.35c-.07-.8-.15-1.6-.22-2.4l-1.69-.59a2.85,2.85,0,0,0-.71-.12,5.93,5.93,0,0,0-2.3.59,1.41,1.41,0,0,1-.55.07h0a52.35,52.35,0,0,1,4.71-10.66A129.25,129.25,0,0,1,291.15,182a143.8,143.8,0,0,1,14.74-16.43,97.88,97.88,0,0,1,14.95-11.89l2.19-1.36c0-.8,0-1.61,0-2.41a36.2,36.2,0,0,0-2.23-13.83c-1.69-4.21-4.13-7.07-7.23-8.41a10.53,10.53,0,0,0-2.36-.72c-5.09-.75-17-.31-41.64,23,.53-.87,1.07-1.73,1.61-2.58,2.77-4.38,5.82-8.77,9.09-13s7.07-8.91,11.3-13.64a143.89,143.89,0,0,1,21-19c-.32-.51-.66-1-1-1.52a144.89,144.89,0,0,0-21.3,19.29c-4.24,4.75-8,9.37-11.32,13.68s-6.35,8.71-9.13,13.11-5.33,8.88-7.64,13.39c-.31.6-.62,1.21-.92,1.82,22-25.18,40.77-34.09,49.33-32.6a9,9,0,0,1,2,.62c2.69,1.16,4.86,3.74,6.42,7.59a34.77,34.77,0,0,1,2.16,13.22v1.21l-1.1.68a99,99,0,0,0-15.22,12.06,144.29,144.29,0,0,0-14.87,16.56A129.84,129.84,0,0,0,279,197.59c-2.84,5.21-4.47,9.23-5,11.83a10.74,10.74,0,0,0-.27,1.56,2.26,2.26,0,0,0,.37.14,5.24,5.24,0,0,0,1.31.23,2.69,2.69,0,0,0,1-.16,4.86,4.86,0,0,1,1.85-.52h.16l.22.07.85.28.12,1.21a20.75,20.75,0,0,1,.16,3,9.5,9.5,0,0,1-.19,1.61,5.8,5.8,0,0,1-2.76,3.37,31.24,31.24,0,0,1-4.08,2.29c-1.5.72-2.95,1.37-4.32,1.93a8.48,8.48,0,0,1-2.94.75,2.87,2.87,0,0,1-.61-.06,4.86,4.86,0,0,1-2.86-2.21,13.64,13.64,0,0,1-1.84-4.2,24.85,24.85,0,0,1-.38-10.86,57.62,57.62,0,0,1,3.08-9.82,154.74,154.74,0,0,1,6.55-14.3,188.57,188.57,0,0,1,10.15-17.28c3.18-4.84,6.61-9.61,10.21-14.22-.8.43-1.6.87-2.37,1.33A79.19,79.19,0,0,0,273.13,165a131.93,131.93,0,0,0-14.27,17,153.68,153.68,0,0,0-12.38,20.86,151.34,151.34,0,0,0-9,22.75A16.76,16.76,0,0,1,236,229c-.79,1.33-1.43,1.94-2.12,2h0c-1.23,0-2-2-2.22-2.76a24,24,0,0,1-1-4.34c-.25-1.61-.46-3.21-.63-4.75a22.94,22.94,0,0,1-.1-4.78,147.37,147.37,0,0,1,3-18.32,193.71,193.71,0,0,1,6.54-22.44,239,239,0,0,1,10.41-24.67q3.16-6.47,6.84-12.87a.16.16,0,0,1,0-.07l-.43-.8c-.14-.27-.29-.53-.44-.8l-.09-.17c-2.6,4.51-5,9.07-7.25,13.64A236,236,0,0,0,238,172.62Z"/><path class="cls-7" d="M355.85,55.91a22.27,22.27,0,0,0-6-3.92L348,51.14l-2.06.85A166.17,166.17,0,0,0,322.7,64a190.54,190.54,0,0,0-22.79,16.6l-2,1.72c.31.35.62.69.92,1l2-1.72A188.67,188.67,0,0,1,323.36,65a164.8,164.8,0,0,1,22.91-12.06l1-.43,1,.42a19.63,19.63,0,0,1,5.41,3.5A27,27,0,0,1,358,61.28a20,20,0,0,1,1.2,2,20.13,20.13,0,0,1,2.65,8.78c0,.28.05.56.07.83s.05.51.07.8.05.51.07.8.05.5.07.79.06.51.07.8c0,0,0,0,0,.07l1.8-.59c0-.84,0-1.69.05-2.54,0-.39,0-.79,0-1.19a22.19,22.19,0,0,0-.74-3.86c0-.09-.06-.18-.1-.27-.1-.44-.22-.89-.35-1.33a21.76,21.76,0,0,0-1.62-3.92c-.26-.46-.53-.91-.83-1.36A28.39,28.39,0,0,0,355.85,55.91Z"/><path class="cls-7" d="M257.26,133.15c.16.28.3.53.44.8l.05.09c2-3.53,4.18-7,6.39-10.4a188.57,188.57,0,0,1,16.45-21.9,196.72,196.72,0,0,1,18.25-18.38c-.3-.35-.61-.69-.92-1a197.08,197.08,0,0,0-18.44,18.35,189.65,189.65,0,0,0-16.66,21.94c-2.1,3.17-4.11,6.4-6,9.66l0,.08C257,132.57,257.11,132.85,257.26,133.15Z"/><path class="cls-7" d="M362.08,75.31c0-.29,0-.58-.07-.79s0-.58-.07-.8,0-.58-.07-.8,0-.55-.07-.83c0,.37,0,.73,0,1.09s0,.85,0,1.28l-1.5.49-.43.15c0,.15,0,.3,0,.45s.06.54.07.8,0,.36.05.54l.91-.32,1.21-.39s0-.05,0-.07C362.14,75.82,362.11,75.53,362.08,75.31Z"/><path class="cls-7" d="M301.14,82.06a190.22,190.22,0,0,1,22.66-16.5,165.05,165.05,0,0,1,23-11.92l1-.42,1,.42a19.88,19.88,0,0,1,5.38,3.52,26.76,26.76,0,0,1,4.22,4.89c.28.41.53.84.77,1.26a20,20,0,0,0-1.2-2,27,27,0,0,0-4.27-4.87,19.63,19.63,0,0,0-5.41-3.5l-1-.42-1,.43A164.8,164.8,0,0,0,323.36,65a188.67,188.67,0,0,0-22.55,16.66l-2,1.72.35.39Z"/><path class="cls-7" d="M255.77,134.36c.15.27.3.53.44.8l.43.8a.16.16,0,0,0,0,.07q3.56-6.21,7.54-12.25A190.39,190.39,0,0,1,280.8,102a196.79,196.79,0,0,1,18.39-18.26l-.35-.39a196.72,196.72,0,0,0-18.25,18.38,188.57,188.57,0,0,0-16.45,21.9c-2.21,3.38-4.35,6.87-6.39,10.4l-.05-.09c-.14-.27-.28-.52-.44-.8s-.3-.58-.43-.8l0-.08-1.11,1.92Z"/><path class="cls-7" d="M302.37,83.51a188,188,0,0,1,22.53-16.4,164,164,0,0,1,22.78-11.82,17.51,17.51,0,0,1,4.81,3.14A25,25,0,0,1,356.43,63c.26.39.5.78.73,1.18A20.17,20.17,0,0,0,356,62.23a24.85,24.85,0,0,0-4-4.54,17.61,17.61,0,0,0-4.84-3.13,163.73,163.73,0,0,0-22.71,12,187.62,187.62,0,0,0-22.42,16.55c-.66.57-1.29,1.16-1.95,1.73.12.13.23.27.34.4C301.08,84.65,301.71,84.07,302.37,83.51Z"/><path class="cls-7" d="M359.77,74c0-.26,0-.53-.07-.8s0-.55-.07-.83c0,.34,0,.67,0,1A173.68,173.68,0,0,0,319,92.73c-2.94,1.91-5.74,3.87-8.41,5.85.34.5.67,1,1,1.52q4-3,8.41-5.85A173.5,173.5,0,0,1,359.88,75.1l0-.35C359.83,74.49,359.8,74.22,359.77,74Z"/><path class="cls-7" d="M239.43,173.57A193.71,193.71,0,0,0,232.89,196a147.37,147.37,0,0,0-3,18.32,22.94,22.94,0,0,0,.1,4.78c.17,1.54.38,3.14.63,4.75a24,24,0,0,0,1,4.34c.27.76,1,2.78,2.22,2.76h0c.69,0,1.33-.65,2.12-2a16.76,16.76,0,0,0,1.48-3.36,151.34,151.34,0,0,1,9-22.75A153.68,153.68,0,0,1,258.86,182a131.93,131.93,0,0,1,14.27-17,79.19,79.19,0,0,1,14.23-11.49c.77-.46,1.57-.9,2.37-1.33-3.6,4.61-7,9.38-10.21,14.22a188.57,188.57,0,0,0-10.15,17.28,154.74,154.74,0,0,0-6.55,14.3,57.62,57.62,0,0,0-3.08,9.82,24.85,24.85,0,0,0,.38,10.86,13.64,13.64,0,0,0,1.84,4.2,4.86,4.86,0,0,0,2.86,2.21,2.87,2.87,0,0,0,.61.06,8.48,8.48,0,0,0,2.94-.75c1.37-.56,2.82-1.21,4.32-1.93a31.24,31.24,0,0,0,4.08-2.29,5.8,5.8,0,0,0,2.76-3.37,9.5,9.5,0,0,0,.19-1.61,20.75,20.75,0,0,0-.16-3l-.12-1.21-.85-.28-.22-.07h-.16a4.86,4.86,0,0,0-1.85.52,2.69,2.69,0,0,1-1,.16,5.24,5.24,0,0,1-1.31-.23,2.26,2.26,0,0,1-.37-.14,10.74,10.74,0,0,1,.27-1.56c.58-2.6,2.21-6.62,5-11.83a129.84,129.84,0,0,1,11.05-16.86,144.29,144.29,0,0,1,14.87-16.56,99,99,0,0,1,15.22-12.06l1.1-.68v-1.21A34.77,34.77,0,0,0,319.1,137c-1.56-3.85-3.73-6.43-6.42-7.59a9,9,0,0,0-2-.62c-8.56-1.49-27.32,7.42-49.33,32.6.3-.61.61-1.22.92-1.82,2.31-4.51,4.87-9,7.64-13.39s5.85-8.82,9.13-13.11,7.08-8.93,11.32-13.68a144.89,144.89,0,0,1,21.3-19.29c-.33-.51-.66-1-1-1.52a145.3,145.3,0,0,0-21.56,19.51c-4.26,4.79-8,9.39-11.34,13.74s-6.38,8.76-9.18,13.2-5.36,8.94-7.68,13.49-4.54,9.4-6.61,14.53c24.33-32.16,46.86-43.9,55.81-42.38a7.07,7.07,0,0,1,1.67.5q3.5,1.5,5.66,6.78a33.37,33.37,0,0,1,2.09,12.62A98.48,98.48,0,0,0,304,162.8a144.87,144.87,0,0,0-15,16.69,131.88,131.88,0,0,0-11.16,17c-2.95,5.43-4.62,9.62-5.25,12.45a7.88,7.88,0,0,0-.27,3c.13.57.58.95,1.36,1.18a6.34,6.34,0,0,0,1.57.26,3.45,3.45,0,0,0,1.42-.25,4.92,4.92,0,0,1,1.39-.44h.07a21.7,21.7,0,0,1,.17,2.57,6.79,6.79,0,0,1-.12,1.09c-.12.57-.76,1.22-1.9,2a31.66,31.66,0,0,1-3.93,2.18c-1.47.69-2.89,1.32-4.27,1.87a7.73,7.73,0,0,1-2.58.67,2.35,2.35,0,0,1-.4,0,3.64,3.64,0,0,1-2.12-1.67,11.07,11.07,0,0,1-1.51-3.5,21.1,21.1,0,0,1-.67-4.54,21.73,21.73,0,0,1,.37-5,56.46,56.46,0,0,1,3-9.37c1.62-4.09,3.74-8.83,6.5-14.17a190,190,0,0,1,10.12-17.18,216.93,216.93,0,0,1,13.38-18.15c.23-.55.16-.88-.19-1h0a8,8,0,0,0-2.7,1c-1.57.76-3.05,1.55-4.46,2.38a80.29,80.29,0,0,0-14.56,11.7,131.54,131.54,0,0,0-14.43,17.15,155,155,0,0,0-21.56,43.94,13.87,13.87,0,0,1-1.26,2.86c-.53.88-.94,1.33-1.24,1.35h0c-.22,0-.51-.49-.85-1.47a20.44,20.44,0,0,1-.86-3.74q-.34-2.25-.6-4.62a20.54,20.54,0,0,1-.08-4.1,146.07,146.07,0,0,1,3-18.05,193.73,193.73,0,0,1,6.53-22.26A238.27,238.27,0,0,1,251.25,150a223.29,223.29,0,0,1,14.36-25,188.3,188.3,0,0,1,16.51-21.64,196,196,0,0,1,18.32-18.13c-.11-.13-.22-.27-.34-.4a198.16,198.16,0,0,0-18.18,18.25,189.21,189.21,0,0,0-16.39,21.76q-4.2,6.44-7.88,13l-.14-.25c-.14-.27-.29-.54-.44-.8l-.39-.73q-3.66,6.39-6.84,12.87A239,239,0,0,0,239.43,173.57Z"/><path class="cls-7" d="M361,68.29c0,.08.06.16.09.23a21,21,0,0,1,.7,3.57,20.13,20.13,0,0,0-2.65-8.78,19.9,19.9,0,0,1,1.5,3.62C360.79,67.39,360.91,67.84,361,68.29Z"/><path class="cls-7" d="M354.16,57.16a19.88,19.88,0,0,0-5.38-3.52l-1-.42-1,.42a165.05,165.05,0,0,0-23,11.92,190.22,190.22,0,0,0-22.66,16.5l-1.95,1.69.91,1.06c.66-.57,1.29-1.16,1.95-1.73a187.62,187.62,0,0,1,22.42-16.55,163.73,163.73,0,0,1,22.71-12A17.61,17.61,0,0,1,352,57.69a24.85,24.85,0,0,1,4,4.54,20.17,20.17,0,0,1,1.15,1.94,19.3,19.3,0,0,1,2.47,8.15c0,.28.05.56.07.83s.06.54.07.8.06.54.08.8l0,.35.43-.15,1.5-.49c0-.43,0-.85,0-1.28s0-.72,0-1.09a21,21,0,0,0-.7-3.57c0-.07-.05-.15-.09-.23-.1-.45-.22-.9-.36-1.36a19.9,19.9,0,0,0-1.5-3.62c-.24-.42-.49-.85-.77-1.26A26.76,26.76,0,0,0,354.16,57.16Z"/><path class="cls-7" d="M257.51,137.56l.14.25q3.69-6.56,7.88-13a189.21,189.21,0,0,1,16.39-21.76A198.16,198.16,0,0,1,300.1,84.81l-.91-1.06A196.79,196.79,0,0,0,280.8,102a190.39,190.39,0,0,0-16.58,21.77q-4,6-7.54,12.25l.39.73C257.22,137,257.37,137.29,257.51,137.56Z"/><path class="cls-8" d="M131.7,155.22a6.21,6.21,0,0,0-2.88.45,5.09,5.09,0,0,0-2.53,1.93,4.1,4.1,0,0,0-.54.72c-1.34,3.79-2.67,7.37-4,10.8-.16-.15-.33-.31-.51-.46s-.18-.16-.26-.25q-2.4,6-4.79,11.33c-3.06,6.7-6.39,13.48-10.07,20a173.73,173.73,0,0,1,3.61-20.7,101.37,101.37,0,0,1,5.37-16,8.47,8.47,0,0,0-.77-1c-.14-.12-.27-.25-.43-.37a17.24,17.24,0,0,0-3-1.86,16.19,16.19,0,0,0-3.54-1.24,12.23,12.23,0,0,0-1.75-.28,10.76,10.76,0,0,0-1.79,0,33.74,33.74,0,0,0-1.65,3.66c-.46,1.15-.9,2.38-1.3,3.7-.74,2.44-1.56,5.74-2.4,9.81-.35,1.67-.69,3.39-1,5.14q-1.09,5.72-2.07,11.93-1.5,9.7-2.49,18.5c-.67,5.87-1.13,11.14-1.42,15.94s-.39,8.49-.32,11.3a5.39,5.39,0,0,0,.3.58c0,.29,0,.56,0,.83.24.32.51.65.81,1A41.34,41.34,0,0,0,95.55,244,36.57,36.57,0,0,0,99,246.86a11.82,11.82,0,0,0,2.8,1.6,186.52,186.52,0,0,1,.52-18.8A83.36,83.36,0,0,1,105,214.44,73.32,73.32,0,0,1,110.23,201a167.21,167.21,0,0,1,8.44-14.47,31.75,31.75,0,0,0,4.11,9.4,17.89,17.89,0,0,0,5.91,5.94q1.49-3.45,2.76-7.32a27.24,27.24,0,0,0,1.37-5.14c-1.09-2.61-1.74-6.86-1.8-12.83a85.05,85.05,0,0,1,2.43-20.43,3.09,3.09,0,0,0-.24-.44,3.54,3.54,0,0,0-1.51-.48Z"/><path class="cls-8" d="M137.65,196.3a180.3,180.3,0,0,0-1.91,18.11c-.14,2.86-.14,5.46,0,7.82s.38,5.34.8,8.92a18.88,18.88,0,0,0,2.41,5.77,16.63,16.63,0,0,0,3.45,4,11.37,11.37,0,0,0,3.85,2.15,7,7,0,0,0,2.38.35,5.25,5.25,0,0,0,1.25-.19,6,6,0,0,0,1.71-2.29,35.36,35.36,0,0,0,2.07-5.1c.43-1.5,1.06-3.82,2-7s1.85-6.49,2.88-9.92,2-6.45,3-9,1.62-4,1.92-4.07a42.54,42.54,0,0,0-.33,7.73,50.24,50.24,0,0,0,1.12,8.27,16.11,16.11,0,0,0,3.25,7.34,23.59,23.59,0,0,0,2.93,2.2,24.6,24.6,0,0,0,3,1.64,14.23,14.23,0,0,0,2.71.92,5.27,5.27,0,0,0,1.19.12,2.3,2.3,0,0,0,.77-.12c.07,0,.14-.11.2-.27a2.42,2.42,0,0,0,.18-.7,9.48,9.48,0,0,0-.52-2.4c-.3-.89-.63-2-1-3.41s-.71-3.1-1-5.2a56.58,56.58,0,0,1-.6-7.58,87.15,87.15,0,0,1,1.51-17.59,171.44,171.44,0,0,1,4.69-19.16c2-6.56,4.33-13.3,7.07-20.22s5.54-13.86,8.44-20.83a4.23,4.23,0,0,0-.22-.42,4.56,4.56,0,0,0-.8-.7,7.73,7.73,0,0,0-1.17-.66,9.1,9.1,0,0,0-2.31-.87,11.39,11.39,0,0,0-1.32-.25,16.31,16.31,0,0,0-2.36-.16,11.83,11.83,0,0,0-3.77.63,69.37,69.37,0,0,0-5.16,9.05c-1,2.07-1.86,4.09-2.68,6.08l-.17-.18-.13-.18c-.37.88-.72,1.76-1.06,2.62q-1.69,4.4-2.86,8.3c-.78,2.61-1.39,4.84-1.85,6.7q-1.36,5.16-3.13,10.47t-3.5,10.3c-1.16,3.33-2.24,6.45-3.27,9.37s-1.87,5.49-2.57,7.71c-2.88,8.92-4.78,15.34-6.15,19.52s-2.48,6.78-3.46,7.9a6.2,6.2,0,0,1-.6-1.05,7.14,7.14,0,0,1-.5-2.3,60.85,60.85,0,0,1-.13-7.14q.13-4.57.63-9.51c.33-3.3.72-6.48,1.14-9.56s.83-5.45,1.18-7.12a224.17,224.17,0,0,1,10.89-38.67c3.77-9.46,6.48-15.15,7.45-16.92-.09-.16-.19-.31-.28-.46a4.42,4.42,0,0,0-1.24-.87,11.18,11.18,0,0,0-3-.82h0a9.46,9.46,0,0,0-2.06,0,8.25,8.25,0,0,0-1.64.19,15.6,15.6,0,0,0-2.76.83,84.19,84.19,0,0,0-8.88,17c-1.61,4-3,8.15-4.35,12.33a2.59,2.59,0,0,0-.51-.42l-.05-.07c-.83,2.63-1.61,5.28-2.32,8A203.88,203.88,0,0,0,137.65,196.3Z"/><path class="cls-8" d="M209.4,164.54q-.06,4.83-.14,10c0,3.45-.29,7-.7,10.68a21,21,0,0,0-10.38,6.08,45.18,45.18,0,0,0-8.26,11.63,62.56,62.56,0,0,0-6.42,30.82,22.8,22.8,0,0,0,4.59,9.74,13.52,13.52,0,0,0,3.22,2.93,5.05,5.05,0,0,0,2.84.87,2.58,2.58,0,0,0,.29,0c5.58-2.66,9.86-7.89,13.25-15.93s5.54-18.09,6.62-30.28c.16-1.74.28-3.19.35-4.35s.18-2.31.3-3.47a10.7,10.7,0,0,1,.42-2.11,3.78,3.78,0,0,1,1.22-1.6,19,19,0,0,1,2.73-1.83c1.19-.69,2.8-1.53,4.85-2.51a7.28,7.28,0,0,0,.93-2.9,7.94,7.94,0,0,0,.15-1.73c-1.37.17-2.75.35-4.15.56s-3,.45-4.77.76a14.36,14.36,0,0,1,.24-2.6c2-14.14,5.14-25,8.76-32.62s7.6-11.54,11.42-11.84a1.74,1.74,0,0,1,.46,0c.79.12,1.27.75,1.47,1.88a12.38,12.38,0,0,1-.5,5.07,21.1,21.1,0,0,1-1.17,3.08c-.54,1.18-1.1,2.37-1.67,3.55l-1.54,3.24a12.49,12.49,0,0,0-.83,2.11c-.29,2,0,3,1,3.13H234c.73-.06,1.68-.92,2.89-2.57a64.2,64.2,0,0,0,3.87-6.14c1.38-2.43,2.75-5.13,4.14-8.12s2.58-5.84,3.56-8.58a20.33,20.33,0,0,0-.34-6.55,49.29,49.29,0,0,0-2.1-7.75,43.46,43.46,0,0,0-2.07-4.84c-.19-.36-.38-.73-.58-1.08a14,14,0,0,0-1.43-2,5.63,5.63,0,0,0-2.41-2.2,25.49,25.49,0,0,0-3.17,1.47l0,0-.9.53c-.1.06-.2.11-.3.18l-.58.37-.66.42-.18.13a41,41,0,0,0-3.36,2.59,55,55,0,0,0-8.68,9.52,70,70,0,0,0-6.87,11.7,52.58,52.58,0,0,0-4,12.24,59.51,59.51,0,0,0-.94,7.57l-.11-.16c0,.5-.07,1-.09,1.51C209.51,158.17,209.43,161.32,209.4,164.54ZM206,208a121.46,121.46,0,0,1-3.37,11.76,86.47,86.47,0,0,1-4.23,10.32,34.78,34.78,0,0,1-4.78,7.53c-1.5-1.59-2.32-3.93-2.4-7a30.35,30.35,0,0,1,1.41-9,67.62,67.62,0,0,1,4.1-10.71,55.54,55.54,0,0,1,5.64-9.4c2-2.72,3.92-4.48,5.58-5.27A83.58,83.58,0,0,1,206,208Z"/><path class="cls-8" d="M352.49,58.43a17.51,17.51,0,0,0-4.81-3.14A164,164,0,0,0,324.9,67.11a188,188,0,0,0-22.53,16.4c-.66.56-1.29,1.14-1.93,1.7a152.39,152.39,0,0,1,10.18,13.37c2.67-2,5.47-3.94,8.41-5.85a173.68,173.68,0,0,1,40.63-19.41c0-.33,0-.66,0-1a20.05,20.05,0,0,0-.66-3.26,1.45,1.45,0,0,0-.09-.22c-.1-.45-.22-.9-.36-1.36a18.59,18.59,0,0,0-1.36-3.31c-.23-.4-.47-.79-.73-1.18A25,25,0,0,0,352.49,58.43Z"/><path class="cls-8" d="M282.12,103.34A188.3,188.3,0,0,0,265.61,125a223.29,223.29,0,0,0-14.36,25,238.27,238.27,0,0,0-10.41,24.54,193.73,193.73,0,0,0-6.53,22.26,146.07,146.07,0,0,0-3,18.05,20.54,20.54,0,0,0,.08,4.1q.25,2.37.6,4.62a20.44,20.44,0,0,0,.86,3.74c.34,1,.63,1.47.85,1.47h0c.3,0,.71-.47,1.24-1.35a13.87,13.87,0,0,0,1.26-2.86,155,155,0,0,1,21.56-43.94,131.54,131.54,0,0,1,14.43-17.15,80.29,80.29,0,0,1,14.56-11.7c1.41-.83,2.89-1.62,4.46-2.38a8,8,0,0,1,2.7-1h0c.35.12.42.45.19,1a216.93,216.93,0,0,0-13.38,18.15,190,190,0,0,0-10.12,17.18c-2.76,5.34-4.88,10.08-6.5,14.17a56.46,56.46,0,0,0-3,9.37,21.73,21.73,0,0,0-.37,5,21.1,21.1,0,0,0,.67,4.54,11.07,11.07,0,0,0,1.51,3.5,3.64,3.64,0,0,0,2.12,1.67,2.35,2.35,0,0,0,.4,0,7.73,7.73,0,0,0,2.58-.67c1.38-.55,2.8-1.18,4.27-1.87a31.66,31.66,0,0,0,3.93-2.18c1.14-.76,1.78-1.41,1.9-2a6.79,6.79,0,0,0,.12-1.09,21.7,21.7,0,0,0-.17-2.57H278a4.92,4.92,0,0,0-1.39.44,3.45,3.45,0,0,1-1.42.25,6.34,6.34,0,0,1-1.57-.26c-.78-.23-1.23-.61-1.36-1.18a7.88,7.88,0,0,1,.27-3c.63-2.83,2.3-7,5.25-12.45a131.88,131.88,0,0,1,11.16-17,144.87,144.87,0,0,1,15-16.69,98.48,98.48,0,0,1,15.49-12.23A33.37,33.37,0,0,0,317.39,138q-2.16-5.28-5.66-6.78a7.07,7.07,0,0,0-1.67-.5c-8.95-1.52-31.48,10.22-55.81,42.38q3.11-7.7,6.61-14.53T268.54,145q4.2-6.66,9.18-13.2c3.32-4.35,7.08-9,11.34-13.74a145.3,145.3,0,0,1,21.56-19.51,152.39,152.39,0,0,0-10.18-13.37A196,196,0,0,0,282.12,103.34Z"/><path class="cls-9" d="M223.56,299.83l13.22-30.9a2.47,2.47,0,0,1-.51-.42,5.15,5.15,0,0,1-1-3.66,3.29,3.29,0,0,1-1.1-2.39c0-1.13.49-2.81,3-4.6a5.73,5.73,0,0,1,1.18-4.15,3.45,3.45,0,0,1,2.6-1.08,4.64,4.64,0,0,1,.63,0c.59-1.13,1.59-2.53,3.15-2.68a2.68,2.68,0,0,1,.28-1.81,2.27,2.27,0,0,1,2.06-1.08,7.11,7.11,0,0,1,2.77.76,2.58,2.58,0,0,1,2.4-1.66c1.4,0,3,1.05,4.87,3.28a5.64,5.64,0,0,1,1.27-.15c2.67,0,4.56,1.86,5.19,5,2.46,1,3.89,2.35,4.28,4a3.78,3.78,0,0,1-.34,2.6c2,1.45,3.63,3.11,3.1,4.86-.42,1.42-2,1.93-3.52,2.1.54,1.7.52,2.85,0,3.69a2.31,2.31,0,0,1-2,1,3.49,3.49,0,0,1-.87-.12,3.21,3.21,0,0,1-.39,1.89,4,4,0,0,1-3,1.8,4.41,4.41,0,0,1-.87,3,2.91,2.91,0,0,1-2.29,1,6.22,6.22,0,0,1-3-.95c-1.53,1.7-2.75,2.46-3.87,2.46a2.27,2.27,0,0,1-1.65-.7,2,2,0,0,1-.26-.32,3.81,3.81,0,0,1-2.29.95,2.16,2.16,0,0,1-1.71-.81,3.16,3.16,0,0,1-.6-2.21,3.9,3.9,0,0,1-2.4-2.77,2.68,2.68,0,0,1,.28-1.49,8.82,8.82,0,0,0-3.7,4.08l-10.06,23.51Zm20.73-34a15.34,15.34,0,0,0-1.54,2.47,18.84,18.84,0,0,1,2.06-.56,4,4,0,0,1-.11-1,5.48,5.48,0,0,0,0-.88h-.38Z"/><path class="cls-7" d="M252.23,247.7c1,0,2.46,1.14,4.35,3.5a4.86,4.86,0,0,1,1.79-.37c2,0,3.5,1.6,3.85,4.61,3.59,1.28,5.55,3.33,3.18,5.84,5.62,3.69,4.48,5.17,0,5.17h-.49c1.47,3.29,1.31,4.65.16,4.65a6,6,0,0,1-2.78-1.2c-.16.12-.33.25-.51.37,1.67,2.75,1.25,4.51-2.6,4.51h0c.44,2.77-.26,3.87-1.53,3.87a6.38,6.38,0,0,1-3.28-1.41c-1.65,2-2.82,2.92-3.58,2.92s-1.11-.95-1.05-2.6c-1.27,1.67-2.42,2.53-3.15,2.53s-1-.81-.68-2.46c-4-1.47-2.41-3.05-1.21-3.83a4.58,4.58,0,0,0,1.6-1.78c.13-.25.26-.53.38-.81-4.58.69-8.08,3.05-9.59,6.59l-9.48,22.13-2-.88L235,276.91l3.45-8.06c0-.06.15-.4.37-.91.08-.21.19-.44.3-.69a1.75,1.75,0,0,1-1.11.53c-.83,0-1.38-1.12-1.18-3.66-1.93-1.1-1.48-3.37,1.87-5.49-.22-2.8.41-4.5,2.24-4.5a4.65,4.65,0,0,1,1.48.28c.73-1.8,1.58-2.94,2.58-2.94a2.09,2.09,0,0,1,1.41.7l.66-.19c-1.16-2.15-1.23-3.38,0-3.38a9.34,9.34,0,0,1,3.84,1.5c0-1.58.5-2.4,1.33-2.4m-7.82,16.65a3.65,3.65,0,0,1-.74-.08,17.4,17.4,0,0,0-3.15,5.39l-.72,1.69a16.77,16.77,0,0,1,7.2-2.44s0,0,0,0a3.52,3.52,0,0,1-.79-2.13c.05-1.67-.29-2.52-.9-2.52a.51.51,0,0,0-.17,0,3.53,3.53,0,0,1-.72.08m7.82-19.65a4,4,0,0,0-3,1.32,6.62,6.62,0,0,0-2.2-.42,3.79,3.79,0,0,0-3.35,1.81,3.69,3.69,0,0,0-.5,1.45,5.86,5.86,0,0,0-2.47,2.27,4.86,4.86,0,0,0-3.5,1.56,6.6,6.6,0,0,0-1.57,4.42c-2.48,2-3,4-3,5.38a4.73,4.73,0,0,0,1.1,2.95,6.33,6.33,0,0,0,1.2,3.88l-2.75,6.41-9.47,22.13-1.18,2.76,2.75,1.18,2,.88,2.76,1.18,1.18-2.76L239.8,279a6.64,6.64,0,0,1,1-1.59,5.46,5.46,0,0,0,2,2.07,4.12,4.12,0,0,0,.91,2.27,3.69,3.69,0,0,0,2.87,1.36,4.46,4.46,0,0,0,2.11-.55,3.76,3.76,0,0,0,2.09.62c1.36,0,2.67-.65,4.18-2.12a6.76,6.76,0,0,0,2.68.61A4.42,4.42,0,0,0,261,280.1a5.14,5.14,0,0,0,1.16-2.74,4.9,4.9,0,0,0,2.92-2.26,4.48,4.48,0,0,0,.43-1,3.75,3.75,0,0,0,2.76-1.68,4.73,4.73,0,0,0,.59-3.33A4.27,4.27,0,0,0,272,266.2c.71-2.38-1-4.39-2.76-5.83a5.12,5.12,0,0,0,0-2.41c-.46-1.92-1.95-3.49-4.44-4.67-1.08-4-3.95-5.46-6.49-5.46-.23,0-.46,0-.69,0-2-2.18-3.72-3.17-5.45-3.17Z"/><path class="cls-10" d="M204.62,358.12a8.67,8.67,0,0,1-3.44-.76c-2.25-.95-4.37-2.91-4.42-5.29-2.23-3-1.71-7.12-1.3-10.48.08-.58.15-1.14.2-1.66A84.07,84.07,0,0,1,198.91,325c2.3-8,5.19-16.43,8.85-25.8.32-.82.63-1.64.94-2.46,2.84-7.53,5.79-15.31,14.51-18.83a12.44,12.44,0,0,1,4.74-1,15.54,15.54,0,0,1,5.65,1.23l2.48,1.06c3.43,1.64,5.83,3.43,7.4,7.38,3.48,8.74-.12,16.24-3.6,23.5-.38.79-.76,1.58-1.13,2.38-4.26,9.11-8.37,17-12.57,24.21a83.39,83.39,0,0,1-8.56,12.66c-.35.41-.71.85-1.08,1.3-2.14,2.62-4.78,5.85-8.47,6.3A5,5,0,0,1,204.62,358.12Z"/><path class="cls-7" d="M228,278.4a14.44,14.44,0,0,1,5.12,1.13l2.42,1c3.21,1.53,5.23,3.11,6.6,6.55,3.59,9-1,16.7-4.7,24.69-3.83,8.2-7.94,16.28-12.5,24.09a83.13,83.13,0,0,1-8.41,12.45c-2.37,2.75-5.17,7-9.11,7.12a3.35,3.35,0,0,1-2.75,1.15,7.22,7.22,0,0,1-2.85-.64c-2.05-.86-3.77-2.57-3.48-4.4-2.64-2.94-1.49-7.89-1.14-11.51a82.94,82.94,0,0,1,3.2-14.67c2.5-8.7,5.52-17.25,8.8-25.67,3.21-8.22,5.61-16.81,14.62-20.45a11,11,0,0,1,4.18-.88m0-3h0a14,14,0,0,0-5.3,1.1c-9.33,3.76-12.39,11.86-15.36,19.69-.31.82-.61,1.63-.93,2.45-3.67,9.41-6.58,17.89-8.89,25.93a85.13,85.13,0,0,0-3.3,15.21c-.06.52-.12,1.06-.19,1.63-.42,3.32-1,7.76,1.31,11.18.26,2.53,2.22,4.85,5.32,6.16a10.31,10.31,0,0,0,4,.87,6.64,6.64,0,0,0,4.08-1.28c4.05-.72,6.88-4.18,9-6.77.36-.44.71-.87,1.05-1.27a85.05,85.05,0,0,0,8.73-12.89c4.22-7.22,8.35-15.18,12.63-24.33.37-.79.74-1.58,1.12-2.36,3.62-7.55,7.36-15.36,3.65-24.71-1.75-4.38-4.5-6.43-8.1-8.15l-.05,0-.06,0-2.42-1-.06,0-.06,0A16.89,16.89,0,0,0,228,275.4Z"/><line class="cls-2" x1="215.76" y1="282.68" x2="233.16" y2="290.08"/><path class="cls-7" d="M215.76,282.68a37.54,37.54,0,0,1,4.58,1.32c1.49.5,3,1.09,4.41,1.69s2.88,1.28,4.29,2a39.66,39.66,0,0,1,4.12,2.39,38.81,38.81,0,0,1-4.58-1.31c-1.5-.51-3-1.09-4.41-1.7s-2.89-1.27-4.29-2A37,37,0,0,1,215.76,282.68Z"/><line class="cls-2" x1="212.3" y1="286.38" x2="225.53" y2="292"/><path class="cls-7" d="M212.3,286.38a21.67,21.67,0,0,1,3.53.87c1.15.36,2.27.78,3.38,1.25s2.18,1,3.24,1.56a21.75,21.75,0,0,1,3.08,1.94,21.79,21.79,0,0,1-3.54-.87,38.45,38.45,0,0,1-6.61-2.81A22.69,22.69,0,0,1,212.3,286.38Z"/><line class="cls-2" x1="215.44" y1="311.69" x2="235.6" y2="320.38"/><path class="cls-7" d="M215.44,311.69a50.25,50.25,0,0,1,5.27,1.64c1.73.61,3.42,1.3,5.1,2s3.35,1.48,5,2.32a49.65,49.65,0,0,1,4.81,2.71,49.52,49.52,0,0,1-5.27-1.64c-1.73-.61-3.42-1.31-5.11-2s-3.34-1.49-5-2.32A50.59,50.59,0,0,1,215.44,311.69Z"/><line class="cls-2" x1="219.07" y1="319.44" x2="233.71" y2="325.75"/><path class="cls-7" d="M219.07,319.44a27.81,27.81,0,0,1,3.89,1c1.27.42,2.5.92,3.73,1.43s2.42,1.09,3.59,1.73a25.9,25.9,0,0,1,3.43,2.11,26.5,26.5,0,0,1-3.89-1c-1.27-.41-2.5-.91-3.72-1.43s-2.43-1.09-3.6-1.73A26.57,26.57,0,0,1,219.07,319.44Z"/><rect class="cls-11" x="174.33" y="276.72" width="12.81" height="62.95" transform="translate(-75.37 59.07) rotate(-15.4)"/><path class="cls-7" d="M177.5,278l15.92,57.79L184,338.4,168,280.61,177.5,278m2.09-3.69-2.89.8-9.46,2.6-2.89.8.8,2.89,15.93,57.8.79,2.89,2.89-.8,9.46-2.6,2.89-.8-.79-2.89-15.93-57.8-.8-2.89Z"/><path class="cls-11" d="M173.31,347a2.61,2.61,0,0,1-2.51-1.92l-3.87-14a2.63,2.63,0,0,1,1.82-3.22L201.09,319a2.74,2.74,0,0,1,.7-.09,2.63,2.63,0,0,1,2.52,1.92l3.86,14a2.6,2.6,0,0,1-1.82,3.21L174,346.93a2.75,2.75,0,0,1-.7.1Z"/><path class="cls-7" d="M201.79,320.36a1.11,1.11,0,0,1,1.07.81l3.87,14a1.11,1.11,0,0,1-.78,1.36l-32.34,8.92a1.54,1.54,0,0,1-.3,0,1.13,1.13,0,0,1-1.07-.82l-3.86-14a1.11,1.11,0,0,1,.77-1.37l32.34-8.91a1,1,0,0,1,.3,0m0-3a4,4,0,0,0-1.09.15l-32.35,8.91a4.11,4.11,0,0,0-2.87,5.05l3.87,14a4.11,4.11,0,0,0,5.06,2.87l32.34-8.91a4.12,4.12,0,0,0,2.87-5.06l-3.87-14a4.12,4.12,0,0,0-4-3Z"/><path class="cls-11" d="M159.68,297.54a2.62,2.62,0,0,1-2.52-1.92l-3.87-14a2.62,2.62,0,0,1,1.83-3.21l32.34-8.91a2.3,2.3,0,0,1,.69-.1,2.62,2.62,0,0,1,2.52,1.92l3.87,14a2.65,2.65,0,0,1-.25,2,2.56,2.56,0,0,1-1.58,1.22l-32.34,8.92A2.72,2.72,0,0,1,159.68,297.54Z"/><path class="cls-7" d="M188.15,270.87a1.11,1.11,0,0,1,1.07.82l3.87,14a1.11,1.11,0,0,1-.78,1.37L160,296a1,1,0,0,1-.29,0,1.1,1.1,0,0,1-1.07-.82l-3.87-14a1.1,1.1,0,0,1,.78-1.36l32.34-8.92a1.45,1.45,0,0,1,.29,0m0-3a4,4,0,0,0-1.09.15l-32.34,8.91a4.06,4.06,0,0,0-2.48,1.94,4,4,0,0,0-.39,3.12l3.86,14a4.12,4.12,0,0,0,4,3,4,4,0,0,0,1.09-.15L193.11,290a4.11,4.11,0,0,0,2.87-5.06l-3.86-14a4.12,4.12,0,0,0-4-3Z"/><path class="cls-11" d="M169.51,353.88A2.63,2.63,0,0,1,167,352l-3.86-14a2.6,2.6,0,0,1,1.82-3.21l42.92-11.83a2.74,2.74,0,0,1,.7-.09,2.6,2.6,0,0,1,2.51,1.91l3.87,14a2.62,2.62,0,0,1-1.82,3.21L170.2,353.79a2.67,2.67,0,0,1-.69.09Z"/><path class="cls-7" d="M208.57,324.3a1.12,1.12,0,0,1,1.07.81l3.86,14a1.1,1.1,0,0,1-.77,1.36l-42.92,11.83a1,1,0,0,1-.3,0,1.11,1.11,0,0,1-1.07-.82l-3.87-14a1.12,1.12,0,0,1,.78-1.37l42.92-11.82a1,1,0,0,1,.3,0m0-3a4.54,4.54,0,0,0-1.1.14l-42.92,11.83a4.08,4.08,0,0,0-2.48,1.93,4.12,4.12,0,0,0-.39,3.13l3.87,14a4.12,4.12,0,0,0,4,3,4,4,0,0,0,1.09-.15l42.92-11.83a4.11,4.11,0,0,0,2.88-5l-3.87-14a4.12,4.12,0,0,0-4-3Z"/><path class="cls-11" d="M152.9,293.6a2.63,2.63,0,0,1-2.52-1.91l-3.86-14a2.59,2.59,0,0,1,.24-2,2.63,2.63,0,0,1,1.58-1.23l42.92-11.83a2.72,2.72,0,0,1,.69-.09,2.61,2.61,0,0,1,2.52,1.92l3.87,14a2.62,2.62,0,0,1-1.83,3.21l-42.92,11.83A2.67,2.67,0,0,1,152.9,293.6Z"/><path class="cls-7" d="M192,264a1.12,1.12,0,0,1,1.08.82l3.86,14a1.1,1.1,0,0,1-.77,1.36L153.2,292.06a1,1,0,0,1-.3,0,1.11,1.11,0,0,1-1.07-.81l-3.87-14a1.11,1.11,0,0,1,.78-1.36l42.92-11.83a1,1,0,0,1,.29,0m0-3h0a4.09,4.09,0,0,0-1.09.15L147.94,273a4.13,4.13,0,0,0-2.87,5.06l3.87,14a4.12,4.12,0,0,0,4,3A4,4,0,0,0,154,295l42.92-11.82a4.1,4.1,0,0,0,2.49-1.94,4,4,0,0,0,.38-3.12l-3.86-14a4.12,4.12,0,0,0-4-3Z"/><path class="cls-7" d="M202.55,323.63a12.17,12.17,0,0,1,1.9,1.2c.12.54.29,1.06.43,1.6l.88,3.2.88,3.2.44,1.6a16.2,16.2,0,0,1-1,2,15.38,15.38,0,0,1-1.89-1.21l-.44-1.6-.88-3.19-.88-3.2c-.16-.53-.28-1.07-.46-1.6A14,14,0,0,1,202.55,323.63Z"/><path class="cls-7" d="M199.39,324.5a8.74,8.74,0,0,1,1.29.85c.08.38.2.75.3,1.13l.61,2.24.62,2.24.31,1.12a10.75,10.75,0,0,1-.65,1.39,10.56,10.56,0,0,1-1.28-.86l-.31-1.12-.61-2.24-.62-2.24c-.11-.38-.2-.75-.32-1.12A9.13,9.13,0,0,1,199.39,324.5Z"/><path class="cls-7" d="M191.63,284a14.31,14.31,0,0,1-1.94-1.34c-.13-.59-.31-1.17-.47-1.75l-1-3.48-1-3.49-.48-1.74a16.58,16.58,0,0,1,1-2.14,16.19,16.19,0,0,1,1.92,1.34l.48,1.74,1,3.49,1,3.48c.17.58.31,1.17.5,1.74A13.9,13.9,0,0,1,191.63,284Z"/><path class="cls-7" d="M188.13,284.6a11.58,11.58,0,0,1-1.4-1.28c-.12-.52-.28-1-.41-1.55l-.86-3.09-.85-3.1-.43-1.55a14.78,14.78,0,0,1,.54-1.81,13.26,13.26,0,0,1,1.39,1.28l.43,1.55.85,3.09.85,3.1c.15.52.28,1,.44,1.55A12.37,12.37,0,0,1,188.13,284.6Z"/></g></g></svg>