<svg xmlns="http://www.w3.org/2000/svg" viewBox="0 0 600 767.12"><defs><style>.cls-1{fill:#101010;}</style></defs><title>skyTr33-logo</title><g id="Layer_2" data-name="Layer 2"><g id="Layer_1-2" data-name="Layer 1"><g id="Layer_2-2" data-name="Layer 2"><g id="black_on_white" data-name="black on white"><g id="leaves"><rect class="cls-1" x="209.14" width="43.28" height="43.28"/><rect class="cls-1" x="123.12" width="43.28" height="43.28"/><rect class="cls-1" x="391.93" width="43.28" height="43.28"/><rect class="cls-1" x="305.92" width="43.28" height="43.28"/><rect class="cls-1" x="254.03" y="44.9" width="38.71" height="38.71"/><rect class="cls-1" x="168.01" y="44.9" width="38.71" height="38.71"/><rect class="cls-1" x="213.17" y="90.05" width="34.41" height="34.41"/><rect class="cls-1" x="127.15" y="90.05" width="34.41" height="34.41"/><rect class="cls-1" x="258.33" y="135.21" width="30.11" height="30.11"/><rect class="cls-1" x="172.31" y="135.21" width="30.11" height="30.11"/><rect class="cls-1" x="217.47" y="176.34" width="25.81" height="25.81"/><rect class="cls-1" x="131.45" y="176.34" width="25.81" height="25.81"/><rect class="cls-1" x="262.63" y="218.81" width="21.51" height="21.51"/><rect class="cls-1" x="176.61" y="218.81" width="21.51" height="21.51"/><rect class="cls-1" x="221.78" y="258.61" width="17.2" height="17.2"/><rect class="cls-1" x="135.76" y="258.61" width="17.2" height="17.2"/><rect class="cls-1" x="178.77" y="293.82" width="17.2" height="17.2"/><rect class="cls-1" x="41.13" y="85.48" width="43.28" height="43.28"/><rect class="cls-1" x="86.02" y="130.38" width="38.71" height="38.71"/><rect class="cls-1" y="130.38" width="38.71" height="38.71"/><rect class="cls-1" x="45.16" y="175.54" width="34.41" height="34.41"/><rect class="cls-1" x="90.32" y="220.7" width="30.11" height="30.11"/><rect class="cls-1" x="4.3" y="220.7" width="30.11" height="30.11"/><rect class="cls-1" x="49.46" y="261.83" width="25.81" height="25.81"/><rect class="cls-1" x="94.62" y="304.3" width="21.51" height="21.51"/><rect class="cls-1" x="8.6" y="304.3" width="21.51" height="21.51"/><rect class="cls-1" x="53.77" y="344.09" width="17.2" height="17.2"/><rect class="cls-1" x="346.24" y="52.42" width="43.28" height="43.28"/><rect class="cls-1" x="432.26" y="52.42" width="43.28" height="43.28"/><rect class="cls-1" x="305.91" y="97.31" width="38.71" height="38.71"/><rect class="cls-1" x="391.94" y="97.31" width="38.71" height="38.71"/><rect class="cls-1" x="351.08" y="142.48" width="34.41" height="34.41"/><rect class="cls-1" x="437.1" y="142.48" width="34.41" height="34.41"/><rect class="cls-1" x="310.22" y="187.64" width="30.11" height="30.11"/><rect class="cls-1" x="396.24" y="187.64" width="30.11" height="30.11"/><rect class="cls-1" x="355.38" y="228.77" width="25.81" height="25.81"/><rect class="cls-1" x="441.4" y="228.77" width="25.81" height="25.81"/><rect class="cls-1" x="314.52" y="271.24" width="21.51" height="21.51"/><rect class="cls-1" x="400.54" y="271.24" width="21.51" height="21.51"/><rect class="cls-1" x="359.68" y="311.02" width="17.2" height="17.2"/><rect class="cls-1" x="445.7" y="311.02" width="17.2" height="17.2"/><rect class="cls-1" x="515.59" y="138.44" width="43.28" height="43.28"/><rect class="cls-1" x="475.27" y="183.34" width="38.71" height="38.71"/><rect class="cls-1" x="561.29" y="183.34" width="38.71" height="38.71"/><rect class="cls-1" x="520.43" y="228.5" width="34.41" height="34.41"/><rect class="cls-1" x="479.57" y="273.66" width="30.11" height="30.11"/><rect class="cls-1" x="565.59" y="273.66" width="30.11" height="30.11"/><rect class="cls-1" x="524.73" y="314.79" width="25.81" height="25.81"/><rect class="cls-1" x="483.87" y="357.26" width="21.51" height="21.51"/><rect class="cls-1" x="569.89" y="357.26" width="21.51" height="21.51"/><rect class="cls-1" x="529.03" y="397.04" width="17.2" height="17.2"/></g><path class="cls-1" d="M375.9,525.13H307.83V440.24l69.56-69.56H365a23.66,23.66,0,0,0-16.73,6.93L300,425.91l-48.29-48.3A23.68,23.68,0,0,0,235,370.68H222.61l69.56,69.56v84.89H224.1a23.68,23.68,0,0,0-17.91,8.19l-6.45,7.47H400.26l-6.45-7.47A23.68,23.68,0,0,0,375.9,525.13Z"/><g id="text"><path class="cls-1" d="M52.63,712.72V694.87L2.85,683.32V633.76H69.43V668.2H53.68V649.56h-34v18.69L69,679.75v48.52l-42.43.13A23.66,23.66,0,0,1,2.84,704.81v-.07h16v8Z"/><path class="cls-1" d="M141.42,728.48l-29.19-41.59h-3.15v41.59h-16V586.56h16v87.57L141.21,634H164.1l-39.9,45.54,42,48.94Z"/><path class="cls-1" d="M250,633.76V752.21a14.92,14.92,0,0,1-14.91,14.91h-36.8a14.93,14.93,0,0,1-14.91-14.91h49.77V728.48H183.8V633.76h15.54v79.17h33.81V633.76Z"/><path class="cls-1" d="M331.61,728.48H293v-79.6H273.64V633.76H293V605.83h16v27.93h22.68v15.12H308.93v64.47h22.68Z"/><path class="cls-1" d="M395.2,649.3l-23.1.21v79H355.3V633.76h55.86V668.2h-16Z"/><path class="cls-1" d="M450.81,667.15V654.56l24.19-33H433.59V605.83H500v16.59l-24,32.14h24.36v73.93H433.59V700.56h16v12.18H483.4V667.15Z"/><path class="cls-1" d="M547.58,667.15V654.56l24.16-33H530.36V605.83h66.37v16.59l-23.94,32.14h24.36v50.27a23.66,23.66,0,0,1-23.66,23.66H530.36V700.56h16v12.18h33.82V667.15Z"/></g></g></g></g></g></svg>