<svg xmlns="http://www.w3.org/2000/svg" viewBox="0 0 723.5 692.84"><defs><style>.cls-1{fill:#1e2740;}.cls-2{fill:#fff;}.cls-3{fill:#fcc398;}.cls-4{fill:#f9a159;}.cls-5{fill:#f47920;}</style></defs><title>traede-logo</title><g id="Layer_2" data-name="Layer 2"><g id="Layer_1-2" data-name="Layer 1"><g id="Layer_2-2" data-name="Layer 2"><g id="Traede-NColor"><g id="Traede-NColor-2"><path class="cls-1" d="M56.26,688.4A6,6,0,0,1,54.44,684V529.52H6.26a6,6,0,0,1-4.42-1.82A6.27,6.27,0,0,1,0,523V503.49a6.54,6.54,0,0,1,1.7-4.69A5.89,5.89,0,0,1,6.26,497h133a6.25,6.25,0,0,1,6.51,6V523a6.25,6.25,0,0,1-6,6.51H91.36V684a6.33,6.33,0,0,1-1.7,4.43,5.91,5.91,0,0,1-4.55,1.82H60.68A6,6,0,0,1,56.26,688.4Z"/><path class="cls-1" d="M144.39,688.4a6,6,0,0,1-1.82-4.43V561.33a6.32,6.32,0,0,1,1.82-4.69,6,6,0,0,1,4.43-1.82h21.35a6.24,6.24,0,0,1,6.5,5.95V572q13-17.18,37.49-17.18H225.1a5.84,5.84,0,0,1,6.25,5.38,6.31,6.31,0,0,1,0,.87v19a6.36,6.36,0,0,1-1.69,4.43,5.93,5.93,0,0,1-4.56,1.82H204.53q-12.27,0-19.27,7t-7,19.27v71.33a6.23,6.23,0,0,1-6.21,6.25H148.82A6,6,0,0,1,144.39,688.4Z"/><path class="cls-1" d="M467.79,676q-14.07-16.78-15.36-44.91l-.26-8.59.26-8.59q1-27.6,15.23-44.65t40.48-17q25,0,39.84,17.18V519.58A5.88,5.88,0,0,1,549.8,515a6.27,6.27,0,0,1,4.46-1.69h22.65a5.83,5.83,0,0,1,6.24,5.39,6.17,6.17,0,0,1,0,.86V684a6.27,6.27,0,0,1-1.69,4.43,5.92,5.92,0,0,1-4.55,1.82H555.79a6.21,6.21,0,0,1-6.25-6.17v-9.72q-14.32,18.49-41.4,18.49Q481.85,692.84,467.79,676ZM540,655.2q7.14-9.5,7.94-23.56c.17-2.08.26-5.37.26-9.89s-.09-8-.26-10.15q-.54-13-8.07-22.13T518,580.33q-27.87,0-29.68,34.37l-.26,7.81.26,7.81q1.8,34.36,29.68,34.37Q532.88,664.71,540,655.2Z"/><path class="cls-1" d="M613,676.16q-17.07-16.65-18.1-47.38l-.26-6.51q0-32.53,17.06-51.29t47.25-18.74q31,0,47.77,18.74t16.8,50v5.47a6.07,6.07,0,0,1-1.83,4.42A6.34,6.34,0,0,1,717,632.7H630.55v2.08q.53,14.58,7.94,24.08c5,6.34,11.76,9,20.44,9,9.89,0,18-3.46,24.21-11.44a14.21,14.21,0,0,1,3.65-3.52,10.71,10.71,0,0,1,4.42-.65h22.91a6.5,6.5,0,0,1,4,1.3,4.39,4.39,0,0,1,1.69,3.65q0,6.24-7.42,14.71t-21.13,14.67q-13.8,6.24-32,6.25Q630,692.83,613,676.16Zm74.59-65.61V610q0-15.35-7.68-24.6t-21-9.24q-13.27,0-20.83,9.24T630.51,610v.52Z"/><path class="cls-1" d="M424.88,571q-16.8-18.75-47.78-18.74c-14.56,0-21.38.86-28.16,2.59a53.42,53.42,0,0,0-12.76,4.92c-.46.25-1.35.77-1.35.77l-1.35-.77a53.75,53.75,0,0,0-12.76-4.92,95.58,95.58,0,0,0-23.46-2.59q-18.75,0-31.5,6.11t-18.88,14.32q-6.12,8.21-6.37,14.71a5.35,5.35,0,0,0,1.69,4.17,5.71,5.71,0,0,0,4,1.56h18a7.84,7.84,0,0,0,6.68-3.66,20.51,20.51,0,0,1,2.9-3.73,33.72,33.72,0,0,1,8-6.41c5.55-2.69,9.44-3.12,15.17-3.12q12.49,0,18.23,5.73a17.93,17.93,0,0,1,3.85,6,29.32,29.32,0,0,1,1.87,10.93v11.71H287.56a66.19,66.19,0,0,0-20.11,3.06A70.28,70.28,0,0,0,246,624.33q-14.31,11-14.32,28.66A34.16,34.16,0,0,0,238,673a44.16,44.16,0,0,0,17.45,14.45,55.33,55.33,0,0,0,24.34,5.34c34.08,0,51.74-11.17,54.6-13.15l.38-.26a56.25,56.25,0,0,0,18.47,9.91,78.28,78.28,0,0,0,24.13,3.5q18.23,0,32-6.25t21.21-14.71q7.41-8.46,7.42-14.71a4.39,4.39,0,0,0-1.69-3.65,6.43,6.43,0,0,0-4-1.3H409.39a10.76,10.76,0,0,0-4.43.65,14.21,14.21,0,0,0-3.65,3.52c-6.24,8-14.32,11.44-24.21,11.44-8.68,0-15.49-2.63-20.44-9-.2-.26-.37-.54-.57-.81q-6.84-9.3-7.37-23.27v-2.08h86.44a6.38,6.38,0,0,0,4.69-1.83,6,6,0,0,0,1.82-4.42v-5.47Q441.67,589.72,424.88,571ZM316.73,652a28.6,28.6,0,0,1-4.64,6.48q-9.12,9.38-23.43,9.37a29.32,29.32,0,0,1-16.53-4.5,14.56,14.56,0,0,1-6.9-12.89c0-6.79,4.41-12,13.17-15.66,2.5-1,5.92-2,14.82-2h27.72C320.94,638.59,319.52,646.75,316.73,652Zm89-41.43h-57V610q0-13.35,5.72-22.08a27.85,27.85,0,0,1,1.83-2.52q7.56-9.24,20.83-9.24t21,9.24q7.68,9.24,7.68,24.6Z"/><path class="cls-1" d="M564.26,166.27C517.68,55.44,390.08,3.36,279.25,49.93s-162.91,174.18-116.33,285,174.17,162.92,285,116.34a217.67,217.67,0,0,0,116.34-285ZM510.7,104.39l-.09-.08Z"/><path class="cls-2" d="M304.66,390a9.18,9.18,0,0,1-9.18-9.18V279.68a9.18,9.18,0,1,1,18.36,0V380.8a9.18,9.18,0,0,1-9.18,9.18Z"/><path class="cls-2" d="M356.31,402.77a9.18,9.18,0,0,1-9.18-9.18V229.92a9.18,9.18,0,0,1,18.36,0V393.59A9.18,9.18,0,0,1,356.31,402.77Z"/><path class="cls-2" d="M408,396.23a9.18,9.18,0,0,1-9.18-9.18v-128a9.18,9.18,0,1,1,18.36,0v128A9.18,9.18,0,0,1,408,396.23Z"/><path class="cls-2" d="M459.6,366.56a9.18,9.18,0,0,1-9.18-9.18V224.44a9.18,9.18,0,1,1,18.36,0v133a9.18,9.18,0,0,1-9.18,9.18Z"/><path class="cls-2" d="M224.26,288.9a9.18,9.18,0,0,1-6.67-15.57l118-122.76a29.11,29.11,0,0,1,41.16-.82l.42.41,22.46,22.46a10.76,10.76,0,0,0,15.21,0c.13-.12.25-.25.37-.38l51-56.22a9.18,9.18,0,0,1,13.6,12.34l-51,56.21a29.13,29.13,0,0,1-41.15,2c-.35-.31-.69-.64-1-1l-22.45-22.46a10.79,10.79,0,0,0-7.72-3.15,10.63,10.63,0,0,0-7.65,3.31L230.82,286A9.19,9.19,0,0,1,224.26,288.9Z"/><path class="cls-3" d="M453.18,153.45a9.17,9.17,0,0,1-6.8-15.34L487.7,92.54a9.18,9.18,0,0,1,13.56,12.33l-41.32,45.57A9.18,9.18,0,0,1,453.18,153.45Z"/><path class="cls-4" d="M468.8,136A9.17,9.17,0,0,1,462,120.64l44-48.29a9.18,9.18,0,1,1,13.57,12.37h0l-44,48.28A9.17,9.17,0,0,1,468.8,136Z"/><path class="cls-5" d="M483.87,119.6a9.17,9.17,0,0,1-6.8-15.34l56.19-61.93a9.18,9.18,0,0,1,13.61,12.33l-56.17,62A9.16,9.16,0,0,1,483.87,119.6Z"/><polygon class="cls-5" points="514.32 44.9 584 0 546.11 73.73 514.32 44.9"/></g></g></g></g></g></svg>