<svg xmlns="http://www.w3.org/2000/svg" viewBox="0 0 747.21 715.53"><defs><style>.cls-1{fill:#fff;}.cls-2{fill:#1e2740;}.cls-3{fill:#fcc398;}.cls-4{fill:#f9a159;}.cls-5{fill:#f47920;}</style></defs><title>traede-logo</title><g id="Layer_2" data-name="Layer 2"><g id="Layer_1-2" data-name="Layer 1"><g id="Traede-NColor-2"><path class="cls-1" d="M58.06,710.81a6.38,6.38,0,0,1-1.87-4.54V546.79H6.43a6.42,6.42,0,0,1-4.55-1.87A6.17,6.17,0,0,1,0,540.1V519.9a6.54,6.54,0,0,1,1.74-4.82,5.76,5.76,0,0,1,4.68-1.87H143.7a6.36,6.36,0,0,1,6.69,6V540.1a6.34,6.34,0,0,1-6,6.68H94.23V706.27a6.23,6.23,0,0,1-1.74,4.54,5.74,5.74,0,0,1-4.69,1.88H62.49A5.78,5.78,0,0,1,58.06,710.81Z"/><path class="cls-1" d="M149.06,710.81a6.38,6.38,0,0,1-1.87-4.54V579.7a7,7,0,0,1,1.87-4.81,6.36,6.36,0,0,1,4.55-1.88h22.07a6.36,6.36,0,0,1,6.69,6v11.64c9-11.77,21.81-17.79,38.67-17.79h11.24a6,6,0,0,1,6.42,5.55v20.67a6.25,6.25,0,0,1-1.74,4.55,5.67,5.67,0,0,1-4.68,1.87H211c-8.43,0-15.11,2.41-19.93,7.23s-7.23,11.5-7.23,19.93v73.72a6.34,6.34,0,0,1-6.26,6.42H153.41A7.36,7.36,0,0,1,149.06,710.81Z"/><path class="cls-1" d="M483,698.1c-9.63-11.5-15-27-15.92-46.42l-.26-8.83.26-8.83c.67-19,5.89-34.38,15.79-46.16s23.68-17.66,41.74-17.66c17.26,0,30.91,5.89,41.07,17.8V536.49a5.71,5.71,0,0,1,1.88-4.68,6.46,6.46,0,0,1,4.55-1.74H595.5a6,6,0,0,1,6.42,5.55V706.4a6.25,6.25,0,0,1-1.74,4.55,5.67,5.67,0,0,1-4.68,1.87H573.69a6.42,6.42,0,0,1-6.42-6.42v-10c-9.9,12.71-24.08,19.13-42.81,19.13C506.53,715.36,492.75,709.65,483,698.1Zm74.66-21.53c5-6.56,7.62-14.59,8.16-24.35.13-2.14.27-5.49.27-10.17s-.14-8.3-.27-10.44c-.4-9-3.08-16.59-8.3-22.88s-12.71-9.36-22.61-9.49c-19.13,0-29.43,11.77-30.63,35.45l-.27,8,.27,8c1.2,23.68,11.5,35.46,30.63,35.46,10.17.18,17.8-3,22.75-9.58Z"/><path class="cls-1" d="M633,698.24c-11.77-11.51-17.93-27.83-18.73-49l-.27-6.69q0-33.51,17.66-53c11.78-12.84,28-19.4,48.83-19.4,21.41,0,37.73,6.43,49.37,19.4s17.39,30.11,17.39,51.65v5.61a6.31,6.31,0,0,1-1.87,4.55,6.16,6.16,0,0,1-4.81,1.88H651.29v2.14c.4,10,3.08,18.33,8.16,24.88s12.17,9.23,21.14,9.23c10.17,0,18.59-3.61,25-11.77a13.81,13.81,0,0,1,3.74-3.61,10.69,10.69,0,0,1,4.55-.67h23.68a6.65,6.65,0,0,1,4.15,1.34,4.23,4.23,0,0,1,1.74,3.74q0,6.42-7.63,15.25c-5.08,5.89-12.44,10.84-21.8,15.12s-20.47,6.42-33,6.42C660.65,715.36,644.73,709.74,633,698.24Zm77.1-67.83v-.54c0-10.57-2.67-19-7.89-25.42s-12.58-9.5-21.68-9.5-16.32,3.22-21.54,9.5-7.76,14.85-7.76,25.42v.54Z"/><path class="cls-1" d="M438.7,589.65c-11.51-12.84-28-19.4-49.37-19.4-15,0-22.07.94-29,2.68A52.65,52.65,0,0,0,347.22,578c-.46.25-.9.52-1.34.81l-1.34-.81a51.89,51.89,0,0,0-13.11-5.08,98.67,98.67,0,0,0-24.21-2.68c-12.85,0-23.82,2.14-32.51,6.29s-15.26,9.1-19.54,14.85-6.42,10.71-6.55,15.25a5.22,5.22,0,0,0,1.74,4.29,5.74,5.74,0,0,0,4.14,1.6h18.56a8.57,8.57,0,0,0,7-3.75A27.86,27.86,0,0,1,283,604.9a32.9,32.9,0,0,1,8.3-6.55c5.75-2.81,9.76-3.21,15.65-3.21,8.56,0,14.85,2,18.86,5.88a18.6,18.6,0,0,1,4,6.16,29.72,29.72,0,0,1,1.87,11.24v12H297.29a67.62,67.62,0,0,0-20.74,3.23,72.11,72.11,0,0,0-22.21,11.1c-9.9,7.63-14.72,17.4-14.85,29.57A36,36,0,0,0,246.06,695a45.68,45.68,0,0,0,18.06,15,56.52,56.52,0,0,0,25.15,5.49c35.19,0,53.38-11.51,56.32-13.52l.4-.26a57.41,57.41,0,0,0,19.14,10.16A78.35,78.35,0,0,0,390,715.52c12.58,0,23.55-2.14,33-6.42s16.72-9.37,21.94-15.26,7.62-10.83,7.62-15.25a4.16,4.16,0,0,0-1.74-3.74,6.64,6.64,0,0,0-4.14-1.34H423.06a10.39,10.39,0,0,0-4.55.67,16.07,16.07,0,0,0-3.75,3.61c-6.42,8.29-14.85,11.77-25,11.77-9,0-16-2.67-21.13-9.23a2.75,2.75,0,0,1-.54-.8q-7-9.63-7.63-24.08v-2.14H449.7a7,7,0,0,0,4.82-1.88,6.37,6.37,0,0,0,1.87-4.55v-5.63C456.06,619.71,450.34,602.45,438.7,589.65ZM327,673.22a29.42,29.42,0,0,1-4.82,6.69c-6.29,6.42-14.31,9.63-24.21,9.63a31.2,31.2,0,0,1-17.13-4.68,14.83,14.83,0,0,1-7.09-13.21c0-7,4.55-12.44,13.65-16.18,2.54-1.07,6.15-2,15.25-2H331.4C331.4,659.44,329.93,667.87,327,673.22Zm91.91-42.81H360.06v-.54c0-9.23,2-16.72,5.89-22.74a17.86,17.86,0,0,1,1.87-2.54c5.22-6.42,12.31-9.5,21.54-9.5s16.32,3.21,21.68,9.5,7.89,14.85,7.89,25.42Z"/><path class="cls-1" d="M582.66,171.78C534.63,57.4,402.84,3.65,288.32,51.65S120.15,231.45,168.18,346s180,168.17,294.33,120S630.7,286.2,582.66,171.78Z"/><path class="cls-2" d="M314.54,402.7a9.53,9.53,0,0,1-9.49-9.5V288.85a9.5,9.5,0,0,1,19,0h0V393.2a9.53,9.53,0,0,1-9.5,9.5Z"/><path class="cls-2" d="M367.93,416a9.53,9.53,0,0,1-9.5-9.5v-169a9.5,9.5,0,0,1,19,0v169A9.53,9.53,0,0,1,367.93,416Z"/><path class="cls-2" d="M421.17,409.12a9.53,9.53,0,0,1-9.5-9.5V267.44a9.5,9.5,0,0,1,19,0h0V399.65a9.36,9.36,0,0,1-9.25,9.47Z"/><path class="cls-2" d="M474.56,378.49a9.53,9.53,0,0,1-9.5-9.5V231.72a9.5,9.5,0,1,1,19,0h0V369a9.45,9.45,0,0,1-9.4,9.5h-.1Z"/><path class="cls-2" d="M231.6,298.35a9.47,9.47,0,0,1-6.83-16.06L346.65,155.65a30.17,30.17,0,0,1,42.55-.81l.4.4,23.15,23.15a11.14,11.14,0,0,0,15.65,0l.4-.4,52.71-58.07a9.47,9.47,0,0,1,14,12.71l-52.66,58a30.06,30.06,0,0,1-42.47,2.07l-.08-.07a7.73,7.73,0,0,1-1.07-1.07l-23.17-23.14a11.14,11.14,0,0,0-15.75.1l-.17.17L238.29,295.4A9.13,9.13,0,0,1,231.6,298.35Z"/><path class="cls-3" d="M468,158.54a9.53,9.53,0,0,1-9.5-9.5,9.71,9.71,0,0,1,2.41-6.29l42.68-47.1a9.43,9.43,0,0,1,13.91,12.71l-42.68,47.09A9.58,9.58,0,0,1,468,158.54Z"/><path class="cls-4" d="M484.06,140.48a9.53,9.53,0,0,1-9.49-9.5,10,10,0,0,1,2.4-6.42l45.48-49.91a9.47,9.47,0,0,1,14,12.71h0l-45.44,49.91A8.81,8.81,0,0,1,484.06,140.48Z"/><path class="cls-5" d="M499.57,123.49a9.53,9.53,0,0,1-9.5-9.5,9.71,9.71,0,0,1,2.41-6.29l58.07-64a9.47,9.47,0,1,1,14.73,11.91,9.23,9.23,0,0,1-.73.8l-57.89,64A9.37,9.37,0,0,1,499.57,123.49Z"/><polygon class="cls-5" points="531.01 46.43 602.99 0 563.93 76.12 531.01 46.43"/></g></g></g></svg>