<svg xmlns="http://www.w3.org/2000/svg" viewBox="0 0 233.97 311.23"><defs><style>.cls-1{fill:#5e646c;}.cls-2{fill:#f22430;}.cls-3{fill:#4ad9d9;}.cls-4{fill:#ffcb05;}.cls-5{fill:#10162e;}</style></defs><title>wanderSpace-logo</title><g id="Layer_2" data-name="Layer 2"><g id="Layer_1-2" data-name="Layer 1"><g id="Layer_2-2" data-name="Layer 2"><g id="Layer_3" data-name="Layer 3"><g id="WanderSpace-LogoV6-5"><g id="WanderSpace-LogoV6-3"><path class="cls-1" d="M87.4,94a218.06,218.06,0,0,1,40.3-12.3V3.62c-.3.4-.6.9-.9,1.4l-39,62.7L70,1h-.1V103A125.63,125.63,0,0,1,87.4,94Z"/><path class="cls-1" d="M78.5,138.22a86.23,86.23,0,0,1-8.6-1.8v32.2c.7,0,1.4.1,2.1.1a29.9,29.9,0,0,0,27.1-14.2l8-12.9C95.7,140.62,86.2,139.42,78.5,138.22Z"/><path class="cls-1" d="M90.4,110.82c-5.5,6-4.4,10.3,3.2,12.9,4.9,1.6,12.2,3.1,21.9,4.3l11.9-19.1.3.6V92.72l-4.7,1.2C107.7,98.12,96.8,103.82,90.4,110.82Z"/><path class="cls-2" d="M167.1,157.82c5.6-3,7-5.9,4.2-8.1s-6.4-2.4-14.3-3.6c-2.6-.4-5.5-.7-8.7-1.1l9.1,15.8A52,52,0,0,0,167.1,157.82Z"/><path class="cls-2" d="M127.7,92.52v16.8l12,20.8c18.4,1.4,32.8,2.9,43.2,4.3.3,0,.5.1.8.1V85.82c-1.9,0-3.8.1-5.8.2C158.8,86.82,142.1,88.92,127.7,92.52Z"/><path class="cls-2" d="M133.6,80.52a368,368,0,0,1,50.2-6.1V30.32L174,67,137.7,5c-2-3.3-3.7-5-5-5a4.2,4.2,0,0,0-2.9.9,17.09,17.09,0,0,0-2.1,2.6v78.1C129.6,81.32,131.6,80.92,133.6,80.52Z"/><path class="cls-2" d="M176.9,176.82c-2.7,1.1-5.5,2.2-8.3,3.2l2.5,4.4c3.8,6.5,8,10.1,12.7,10.7v-21.3Q180.5,175.32,176.9,176.82Z"/><path class="cls-3" d="M69.9,168.62v-32.2c-6.7-1.8-11.7-4.1-14.8-7.1q-6.45-6.15,3.3-16.8a57.67,57.67,0,0,1,11.5-9.4V1.12H0l49.9,165.5c4.2.5,8.5,1,12.9,1.4Z"/><path class="cls-4" d="M183.8,195a7.57,7.57,0,0,0,1.5.1c5.3,0,9-3.9,11.2-11.7l6.1-21.8a79.4,79.4,0,0,1-18.8,12.1V195Z"/><path class="cls-4" d="M188.8,74.22a301.29,301.29,0,0,1,38,.7l5.6-20A42.4,42.4,0,0,0,203,2.72a44.18,44.18,0,0,0-11.4-1.6h0l-7.8,29.3v44.1A41.93,41.93,0,0,1,188.8,74.22Z"/><path class="cls-4" d="M183.8,85.82v48.7c11,1.6,18.9,4.3,23.8,8l.3.2,15-53.7C212.2,86.12,199.3,85.62,183.8,85.82Z"/><path class="cls-5" d="M26.2,226.12h5.7l4.2,22.6h1.1l5-22h5.9l5,22h1.1l4.1-22.6H64l-5.6,27.8H49.3l-4.1-19-4.1,19H32Z"/><path class="cls-5" d="M93.8,234.72v12.7a2.79,2.79,0,0,0,.6,1.8,3.81,3.81,0,0,0,1.7.8l-.2,4.6c-3,0-5.4-.7-7-2.1a20.89,20.89,0,0,1-8.5,2.1c-5.2,0-7.9-2.9-7.9-8.8,0-2.8.7-4.9,2.1-6.1s3.6-2,6.6-2.3l6.8-.6v-2a4.37,4.37,0,0,0-.9-3.1,3.85,3.85,0,0,0-2.7-.9,72.7,72.7,0,0,0-8.5.5l-1.7.1-.2-4.3a42.26,42.26,0,0,1,10.6-1.4c3.2,0,5.6.7,7,2.2S93.8,231.52,93.8,234.72Zm-11.9,6.9q-3.6.3-3.6,4.2c0,2.6,1.1,3.8,3.2,3.8a17.74,17.74,0,0,0,5.6-.9l.9-.3V241Z"/><path class="cls-5" d="M112.1,253.92h-5.8v-27.8H112v1.7a14.61,14.61,0,0,1,7.3-2.3c3.5,0,5.9,1,7.2,3.1s1.9,5.5,1.9,10.4v14.9h-5.7v-14.7a16.35,16.35,0,0,0-.9-6.4c-.6-1.3-1.9-1.9-3.8-1.9a13.1,13.1,0,0,0-5.2,1.1l-.8.3Z"/><path class="cls-5" d="M162.1,214.62v39.3h-5.7v-1.5a15,15,0,0,1-7.1,2.1c-3.5,0-6-1.1-7.6-3.3s-2.4-5.9-2.4-11,.9-8.9,2.7-11.2,4.6-3.5,8.3-3.5a40.87,40.87,0,0,1,6,.7v-11.6Zm-6.7,33.5.9-.4v-16.5a28.79,28.79,0,0,0-5.9-.5c-3.6,0-5.3,3.1-5.3,9.3,0,3.4.4,5.8,1.2,7.1a4.38,4.38,0,0,0,3.9,2,13,13,0,0,0,5.2-1Z"/><path class="cls-5" d="M193.2,248.92l1.5-.2.1,4.5a54.91,54.91,0,0,1-10.7,1.3c-3.9,0-6.7-1.1-8.4-3.4s-2.6-5.9-2.6-10.8c0-9.9,3.8-14.8,11.5-14.8,7.4,0,11.1,4.2,11.1,12.7l-.4,4.3H178.9a8.1,8.1,0,0,0,1.4,5c.9,1.1,2.6,1.6,5.1,1.6S190.5,249.12,193.2,248.92Zm-3.2-11c0-2.7-.4-4.6-1.2-5.8s-2.2-1.6-4.2-1.6a5.38,5.38,0,0,0-4.3,1.7c-.9,1.1-1.4,3-1.4,5.7Z"/><path class="cls-5" d="M206.5,253.92v-27.8h5.7v3.3a23.31,23.31,0,0,1,9-3.9v6.1a35.23,35.23,0,0,0-7.8,2.4l-1.2.5v19.4Z"/><path class="cls-5" d="M41,269.72c-7.1,0-10.6,2.6-10.6,7.7,0,3,.8,5,2.4,6.1s4.8,2,9.5,2.9,8,2.1,10,3.6,3,4.1,3,7.8c0,4.7-1.2,8-3.7,10.1s-6,3.1-10.7,3.1a80.79,80.79,0,0,1-12-.9l-2.4-.3.5-3.3a129.93,129.93,0,0,0,14,1.1c3.3,0,5.8-.8,7.5-2.3a8.59,8.59,0,0,0,2.6-6.7c0-2.9-.8-4.9-2.3-6a18.65,18.65,0,0,0-7.3-2.5,59.26,59.26,0,0,1-7.3-1.6,17.15,17.15,0,0,1-4.3-2.1,7.17,7.17,0,0,1-2.9-3.5,16,16,0,0,1-.9-5.3c0-7.6,4.8-11.4,14.6-11.4a109.39,109.39,0,0,1,11.4.9l2.2.3-.3,3.3C49.6,270.22,45.3,269.82,41,269.72Z"/><path class="cls-5" d="M83.7,295.42H71v15.2H66.9v-43.7H83.7c4.9,0,8.5,1.1,10.8,3.4S98,276,98,280.72C98,290.52,93.2,295.42,83.7,295.42ZM71,291.92H83.7c6.7,0,10.1-3.7,10.1-11.2,0-3.6-.8-6.2-2.4-7.9s-4.1-2.5-7.7-2.5H71Z"/><path class="cls-5" d="M106.1,310.62,119.3,267h9.6l13.1,43.6h-4l-3.7-12.1H113.8l-3.7,12.1Zm16.2-40.3-7.5,24.8h18.5l-7.5-24.8Z"/><path class="cls-5" d="M180.3,309.92a64.39,64.39,0,0,1-11.6,1.3,26.12,26.12,0,0,1-7.8-1,12.69,12.69,0,0,1-4.8-2.7,12.39,12.39,0,0,1-2.9-4.6c-1.3-3.4-2-8.1-2-14,0-9.5,1.6-15.7,4.8-18.8,2.6-2.5,6.6-3.8,11.9-3.8a73.46,73.46,0,0,1,12.4,1.3l-.2,3.4a67.32,67.32,0,0,0-11-1.2,19.41,19.41,0,0,0-6.4.8,10.07,10.07,0,0,0-3.7,2.3,8.76,8.76,0,0,0-2.1,3.9,35.28,35.28,0,0,0-1.3,10.7,61.78,61.78,0,0,0,.5,9.6,19,19,0,0,0,1.8,5.7,7.41,7.41,0,0,0,3.9,3.7,19.19,19.19,0,0,0,7.1,1.1,73.51,73.51,0,0,0,11.4-1.2Z"/><path class="cls-5" d="M193.6,310.62v-43.7h27.6v3.5H197.7v16.2h19.5v3.5H197.7v17h23.5v3.5Z"/></g></g></g></g></g></g></svg>